<?xml version="1.0" standalone="yes"?>
<svg xmlns="http://www.w3.org/2000/svg" width="2560" height="1280">
<path style="fill:#a1b6df; stroke:none;" d="M0 0L1 1L0 0z"/>
<path style="fill:#0139a9; stroke:none;" d="M1 0L1 1L96 55.5756L290 167.576L813 469.424L1008 582.011L1076 621.281L1108 639.301L1150 640L1242 640L1547 640L2560 640L2560 0L1 0z"/>
<path style="fill:#ffffff; stroke:none;" d="M0 1L0 1280C81.3579 1236.7 160.281 1187.69 240 1141.42C422.743 1035.36 606.258 930.635 789 824.576C894.628 763.272 999.199 698.376 1107 641L1107 639C1018.38 592.32 932.639 538.708 846 488.424C672.248 387.584 498.231 287.163 324 187.15C252.239 145.957 180.348 104.892 109 62.9891C84.1171 48.3751 59.0729 34.0055 34 19.7191C23.2363 13.5861 11.9044 4.50159 0 1z"/>
<path style="fill:#a1b6df; stroke:none;" d="M2 1L3 2L2 1M4 2L5 3L4 2M7 4L8 5L7 4M9 5L10 6L9 5M11 6L12 7L11 6M12 7L13 8L12 7M14 8L15 9L14 8M16 9L17 10L16 9M18 10L19 11L18 10M19 11L20 12L19 11M21 12L22 13L21 12M23 13L24 14L23 13M26 15L27 16L26 15M28 16L29 17L28 16M30 17L31 18L30 17M31 18L32 19L31 18M33 19L34 20L33 19M35 20L36 21L35 20M37 21L38 22L37 21M38 22L39 23L38 22M40 23L41 24L40 23M42 24L43 25L42 24M44 25L45 26L44 25M45 26L46 27L45 26M47 27L48 28L47 27M49 28L50 29L49 28M52 30L53 31L52 30M54 31L55 32L54 31M56 32L57 33L56 32M57 33L58 34L57 33M59 34L60 35L59 34M61 35L62 36L61 35M63 36L64 37L63 36M64 37L65 38L64 37M66 38L67 39L66 38M68 39L69 40L68 39M70 40L71 41L70 40M71 41L72 42L71 41M73 42L74 43L73 42M75 43L76 44L75 43M78 45L79 46L78 45M80 46L81 47L80 46M82 47L83 48L82 47M83 48L84 49L83 48M85 49L86 50L85 49M87 50L88 51L87 50M89 51L90 52L89 51M90 52L91 53L90 52M92 53L93 54L92 53M94 54L95 55L94 54M97 56L98 57L97 56M99 57L100 58L99 57M101 58L102 59L101 58M104 60L105 61L104 60M106 61L107 62L106 61M108 62L109 63L108 62M109 63L110 64L109 63M111 64L112 65L111 64M113 65L114 66L113 65M115 66L116 67L115 66M116 67L117 68L116 67M118 68L119 69L118 68M120 69L121 70L120 69M123 71L124 72L123 71M125 72L126 73L125 72M127 73L128 74L127 73M128 74L129 75L128 74M130 75L131 76L130 75M132 76L133 77L132 76M134 77L135 78L134 77M135 78L136 79L135 78M137 79L138 80L137 79M139 80L140 81L139 80M141 81L142 82L141 81M142 82L143 83L142 82M144 83L145 84L144 83M146 84L147 85L146 84M149 86L150 87L149 86M151 87L152 88L151 87M153 88L154 89L153 88M154 89L155 90L154 89M156 90L157 91L156 90M158 91L159 92L158 91M160 92L161 93L160 92M161 93L162 94L161 93M163 94L164 95L163 94M165 95L166 96L165 95M167 96L168 97L167 96M168 97L169 98L168 97M170 98L171 99L170 98M172 99L173 100L172 99M175 101L176 102L175 101M177 102L178 103L177 102M179 103L180 104L179 103M180 104L181 105L180 104M182 105L183 106L182 105M184 106L185 107L184 106M186 107L187 108L186 107M187 108L188 109L187 108M189 109L190 110L189 109M191 110L192 111L191 110z"/>
<path style="fill:#fdd119; stroke:none;" d="M64 111L70.8002 147L71.9576 160.621L60 168.8L31 187L66 191.845L79.436 194.603L84 209L92 242L93 242L107.424 211L115.213 198.117L132 198.714L164 201L138 175.999L128.932 165.83L133.719 152L147 120L117 136L103 142.443L91 133.729L64 111z"/>
<path style="fill:#a1b6df; stroke:none;" d="M194 112L195 113L194 112M196 113L197 114L196 113M198 114L199 115L198 114M199 115L200 116L199 115M201 116L202 117L201 116M203 117L204 118L203 117M205 118L206 119L205 118M206 119L207 120L206 119M208 120L209 121L208 120M210 121L211 122L210 121M212 122L213 123L212 122M213 123L214 124L213 123M215 124L216 125L215 124M217 125L218 126L217 125M220 127L221 128L220 127M222 128L223 129L222 128M224 129L225 130L224 129M225 130L226 131L225 130M227 131L228 132L227 131M229 132L230 133L229 132M231 133L232 134L231 133M232 134L233 135L232 134M234 135L235 136L234 135M236 136L237 137L236 136M238 137L239 138L238 137M239 138L240 139L239 138M241 139L242 140L241 139M243 140L244 141L243 140M246 142L247 143L246 142M248 143L249 144L248 143M250 144L251 145L250 144M251 145L252 146L251 145M253 146L254 147L253 146M255 147L256 148L255 147M257 148L258 149L257 148M258 149L259 150L258 149M260 150L261 151L260 150M262 151L263 152L262 151M264 152L265 153L264 152M265 153L266 154L265 153M267 154L268 155L267 154M269 155L270 156L269 155M272 157L273 158L272 157M274 158L275 159L274 158M276 159L277 160L276 159M277 160L278 161L277 160M279 161L280 162L279 161M281 162L282 163L281 162M283 163L284 164L283 163M284 164L285 165L284 164M286 165L287 166L286 165M288 166L289 167L288 166M291 168L292 169L291 168M293 169L294 170L293 169M295 170L296 171L295 170M296 171L297 172L296 171M298 172L299 173L298 172M300 173L301 174L300 173M302 174L303 175L302 174M303 175L304 176L303 175M305 176L306 177L305 176M307 177L308 178L307 177M309 178L310 179L309 178M310 179L311 180L310 179M312 180L313 181L312 180M314 181L315 182L314 181M317 183L318 184L317 183M319 184L320 185L319 184M321 185L322 186L321 185M322 186L323 187L322 186M324 187L325 188L324 187M326 188L327 189L326 188M328 189L329 190L328 189M329 190L330 191L329 190M331 191L332 192L331 191M333 192L334 193L333 192M335 193L336 194L335 193M336 194L337 195L336 194M338 195L339 196L338 195M340 196L341 197L340 196M343 198L344 199L343 198M345 199L346 200L345 199M347 200L348 201L347 200M348 201L349 202L348 201M350 202L351 203L350 202M352 203L353 204L352 203M354 204L355 205L354 204M355 205L356 206L355 205M357 206L358 207L357 206M359 207L360 208L359 207M362 209L363 210L362 209M364 210L365 211L364 210M366 211L367 212L366 211M369 213L370 214L369 213M371 214L372 215L371 214M373 215L374 216L373 215M374 216L375 217L374 216M376 217L377 218L376 217M378 218L379 219L378 218M380 219L381 220L380 219M381 220L382 221L381 220M383 221L384 222L383 221M385 222L386 223L385 222M388 224L389 225L388 224M390 225L391 226L390 225M392 226L393 227L392 226M393 227L394 228L393 227M395 228L396 229L395 228M397 229L398 230L397 229M399 230L400 231L399 230M400 231L401 232L400 231M402 232L403 233L402 232M404 233L405 234L404 233M406 234L407 235L406 234M407 235L408 236L407 235M409 236L410 237L409 236M411 237L412 238L411 237M414 239L415 240L414 239M416 240L417 241L416 240M418 241L419 242L418 241M419 242L420 243L419 242M421 243L422 244L421 243M423 244L424 245L423 244M425 245L426 246L425 245M426 246L427 247L426 246M428 247L429 248L428 247M430 248L431 249L430 248M432 249L433 250L432 249M433 250L434 251L433 250M435 251L436 252L435 251M437 252L438 253L437 252M440 254L441 255L440 254M442 255L443 256L442 255M444 256L445 257L444 256M445 257L446 258L445 257M447 258L448 259L447 258M449 259L450 260L449 259M451 260L452 261L451 260M452 261L453 262L452 261M454 262L455 263L454 262M456 263L457 264L456 263M459 265L460 266L459 265M461 266L462 267L461 266M463 267L464 268L463 267M464 268L465 269L464 268M466 269L467 270L466 269M468 270L469 271L468 270M470 271L471 272L470 271M471 272L472 273L471 272M473 273L474 274L473 273M475 274L476 275L475 274M477 275L478 276L477 275M478 276L479 277L478 276M480 277L481 278L480 277M482 278L483 279L482 278M485 280L486 281L485 280M487 281L488 282L487 281M489 282L490 283L489 282M490 283L491 284L490 283M492 284L493 285L492 284M494 285L495 286L494 285M496 286L497 287L496 286M497 287L498 288L497 287M499 288L500 289L499 288M501 289L502 290L501 289M503 290L504 291L503 290M504 291L505 292L504 291M506 292L507 293L506 292M508 293L509 294L508 293M511 295L512 296L511 295M513 296L514 297L513 296M515 297L516 298L515 297M516 298L517 299L516 298M518 299L519 300L518 299M520 300L521 301L520 300M522 301L523 302L522 301M523 302L524 303L523 302M525 303L526 304L525 303M527 304L528 305L527 304M529 305L530 306L529 305M530 306L531 307L530 306M532 307L533 308L532 307M534 308L535 309L534 308M537 310L538 311L537 310M539 311L540 312L539 311M541 312L542 313L541 312M542 313L543 314L542 313M544 314L545 315L544 314M546 315L547 316L546 315M548 316L549 317L548 316M549 317L550 318L549 317M551 318L552 319L551 318M553 319L554 320L553 319M556 321L557 322L556 321M558 322L559 323L558 322M560 323L561 324L560 323M561 324L562 325L561 324M563 325L564 326L563 325M565 326L566 327L565 326M567 327L568 328L567 327M568 328L569 329L568 328M570 329L571 330L570 329M572 330L573 331L572 330M574 331L575 332L574 331M575 332L576 333L575 332M577 333L578 334L577 333M579 334L580 335L579 334M582 336L583 337L582 336M584 337L585 338L584 337M586 338L587 339L586 338M587 339L588 340L587 339M589 340L590 341L589 340M591 341L592 342L591 341M593 342L594 343L593 342M594 343L595 344L594 343M596 344L597 345L596 344M598 345L599 346L598 345M600 346L601 347L600 346M601 347L602 348L601 347M603 348L604 349L603 348M605 349L606 350L605 349M608 351L609 352L608 351M610 352L611 353L610 352M612 353L613 354L612 353M613 354L614 355L613 354M615 355L616 356L615 355M617 356L618 357L617 356M619 357L620 358L619 357M620 358L621 359L620 358M622 359L623 360L622 359M624 360L625 361L624 360M626 361L627 362L626 361M627 362L628 363L627 362M629 363L630 364L629 363M631 364L632 365L631 364M634 366L635 367L634 366M636 367L637 368L636 367M638 368L639 369L638 368M639 369L640 370L639 369z"/>
<path style="fill:#fdd119; stroke:none;" d="M398 370L382.603 387L383.961 420L390 512L381 513L367 401C350.356 408.762 354.692 421.46 357.6 436C362.83 462.143 369.586 488.564 373 515C355.258 516.449 342.011 527.138 326 533C317.923 511.689 298.99 490.985 286.333 472C281.99 465.485 276.716 452.954 269.816 449.028C265.075 446.33 256.324 448 251 448C266.254 472.494 286.402 495.281 304.21 518C306.542 520.975 323.903 539.663 314.961 541.079C311.07 541.695 307.874 536.475 305.718 534C299.026 526.315 292.231 518.718 285.576 511C273.414 496.895 260.942 483.054 248.718 469C243.707 463.238 237.844 453.543 230.985 450.028C224.857 446.886 213.782 449 207 449C207 455.478 204.778 466.984 208.028 472.714C213.371 482.136 226.956 489.984 235 497.166C256.259 516.148 277.844 539.89 302 555L302 556L297 562L296 562L249 525.116L206 493C206 498.193 204.286 507.105 207.028 511.674C210.328 517.175 219.749 521.166 225 524.667L269 554C274.414 557.609 286.056 562.491 289.122 568.326C291.17 572.224 285.508 578.68 283.784 582C278.65 591.886 273.912 603.828 273 615C249.975 610.535 226.999 605.799 204 601.2C194.839 599.368 182.312 594.413 173 595.604C167.217 596.344 161.284 604.103 159 609L271 623L270 632C257.001 628.158 240.563 629.839 227 628.911C204.027 627.337 181.004 625.047 158 624.039C149.088 623.649 130.207 627.389 130.207 640C130.207 652.611 149.088 656.351 158 655.961C181.004 654.953 204.027 652.663 227 651.089C240.563 650.161 257.001 651.842 270 648L271 657L159 671C161.284 675.897 167.217 683.656 173 684.396C182.312 685.587 194.839 680.632 204 678.8C226.999 674.201 249.975 669.465 273 665C273.912 676.172 278.65 688.114 283.784 698C285.508 701.32 291.17 707.776 289.122 711.674C286.056 717.509 274.413 722.391 269 726L225 755.333C219.749 758.834 210.328 762.825 207.028 768.326C204.286 772.895 206 781.807 206 787L249 754.884L296 718L297 718L302 724L302 725C277.844 740.11 256.259 763.852 235 782.834C226.957 790.016 213.371 797.864 208.028 807.286C204.778 813.016 207 824.522 207 831C213.782 831 224.857 833.114 230.985 829.972C237.844 826.457 243.707 816.762 248.718 811C260.942 796.946 273.414 783.105 285.576 769C292.231 761.282 299.026 753.685 305.718 746C307.851 743.551 311.115 738.23 314.961 738.782C323.999 740.081 306.489 759.092 304.21 762C286.402 784.719 266.253 807.506 251 832C256.323 832 265.075 833.67 269.816 830.972C276.716 827.046 281.99 814.515 286.333 808C298.99 789.015 317.923 768.311 326 747C342.011 752.862 355.258 763.551 373 765C369.586 791.436 362.83 817.857 357.6 844C354.692 858.54 350.356 871.238 367 879L381 767L390 768L383.961 860L382.603 893L398 910L399 910C403.752 905.248 412.149 899.487 414.382 893C416.726 886.189 413.354 875.166 413.039 868C412.105 846.702 409.205 825.304 409 804C408.905 794.122 400.85 767.777 415 767L423.718 834L430 879C434.348 875.937 441.662 870.635 442.512 865C443.76 856.715 438.909 845.227 437.424 837C433.25 813.864 430.538 788.259 423 766L470 747L509.333 807L526.518 830.972L545 832L522.884 802L476 741L482 736L483 736C496.81 759.89 521.586 781.258 539.845 802C547.201 810.357 555.565 824.46 565.286 829.972C571.016 833.222 582.522 831 589 831C589 824.218 591.114 813.143 587.972 807.015C584.305 799.859 574.037 793.629 568 788.424C553.563 775.975 539.38 763.23 525 750.718C516.429 743.261 493.454 730.219 499 718L590 787C590 781.676 591.67 772.925 588.972 768.184C585.046 761.284 572.515 756.01 566 751.667C547.015 739.01 526.311 720.078 505 712C510.33 700.584 516.98 690.243 520.576 678C521.563 674.638 522.086 667.06 526.147 666.042C532.109 664.548 542.03 668.606 548 669.8L602 680.6C616.708 683.542 629.169 687.792 637 671L525 657L526 648C562.303 654.74 601.219 652.33 638 655.83C648.639 656.843 653.358 655.694 660.999 648C663.008 645.978 666.793 643.169 666.793 640C666.793 636.831 663.008 634.022 660.999 632C653.358 624.306 648.639 623.157 638 624.17C601.219 627.67 562.303 625.26 526 632L525 623L637 609C629.169 592.208 616.708 596.458 602 599.4L548 610.2C542.03 611.394 532.109 615.452 526.147 613.958C522.086 612.94 521.563 605.362 520.576 602C516.98 589.757 510.33 579.415 505 568C526.311 559.922 547.015 540.99 566 528.333C572.515 523.99 585.046 518.716 588.972 511.816C591.67 507.075 590 498.323 590 493L499 562C493.454 549.781 516.429 536.739 525 529.282C539.38 516.77 553.563 504.025 568 491.576C574.037 486.371 584.305 480.141 587.972 472.985C591.114 466.857 589 455.782 589 449C582.522 449 571.015 446.778 565.286 450.028C555.565 455.54 547.201 469.643 539.845 478C521.586 498.742 496.81 520.11 483 544L482 544L476 539L522.13 479L545 448L526.518 449.028L509.333 473L470 533L423 514C430.256 492.573 432.518 468.214 436.803 446C438.536 437.016 443.877 424.059 442.512 415C441.662 409.365 434.348 404.063 430 401L423.718 446L415 513C400.869 512.224 408.869 484.964 409.004 475C409.29 453.775 411.638 432.192 413.09 411C413.554 404.223 416.601 393.448 414.382 387C412.177 380.595 403.379 373.789 398 370z"/>
<path style="fill:#a1b6df; stroke:none;" d="M641 370L642 371L641 370M643 371L644 372L643 371M645 372L646 373L645 372M646 373L647 374L646 373M648 374L649 375L648 374M650 375L651 376L650 375M653 377L654 378L653 377M655 378L656 379L655 378M657 379L658 380L657 379M658 380L659 381L658 380M660 381L661 382L660 381M662 382L663 383L662 382M664 383L665 384L664 383M665 384L666 385L665 384M667 385L668 386L667 385M669 386L670 387L669 386M671 387L672 388L671 387M672 388L673 389L672 388M674 389L675 390L674 389M676 390L677 391L676 390M679 392L680 393L679 392M681 393L682 394L681 393M683 394L684 395L683 394M684 395L685 396L684 395M686 396L687 397L686 396M688 397L689 398L688 397M690 398L691 399L690 398M691 399L692 400L691 399M693 400L694 401L693 400M695 401L696 402L695 401M697 402L698 403L697 402M698 403L699 404L698 403M700 404L701 405L700 404M702 405L703 406L702 405M705 407L706 408L705 407M707 408L708 409L707 408M709 409L710 410L709 409M710 410L711 411L710 410M712 411L713 412L712 411M714 412L715 413L714 412M716 413L717 414L716 413M717 414L718 415L717 414M719 415L720 416L719 415M721 416L722 417L721 416M724 418L725 419L724 418M726 419L727 420L726 419M728 420L729 421L728 420M731 422L732 423L731 422M733 423L734 424L733 423M735 424L736 425L735 424M736 425L737 426L736 425M738 426L739 427L738 426M740 427L741 428L740 427M742 428L743 429L742 428M743 429L744 430L743 429M745 430L746 431L745 430M747 431L748 432L747 431M750 433L751 434L750 433M752 434L753 435L752 434M754 435L755 436L754 435M755 436L756 437L755 436M757 437L758 438L757 437M759 438L760 439L759 438M761 439L762 440L761 439M762 440L763 441L762 440M764 441L765 442L764 441M766 442L767 443L766 442M768 443L769 444L768 443M769 444L770 445L769 444M771 445L772 446L771 445M773 446L774 447L773 446M776 448L777 449L776 448M778 449L779 450L778 449M780 450L781 451L780 450M781 451L782 452L781 451M783 452L784 453L783 452M785 453L786 454L785 453M787 454L788 455L787 454M788 455L789 456L788 455M790 456L791 457L790 456M792 457L793 458L792 457M794 458L795 459L794 458M795 459L796 460L795 459M797 460L798 461L797 460M799 461L800 462L799 461M802 463L803 464L802 463M804 464L805 465L804 464M806 465L807 466L806 465M807 466L808 467L807 466M809 467L810 468L809 467M811 468L812 469L811 468M813 469L814 470L813 469M814 470L815 471L814 470M816 471L817 472L816 471M818 472L819 473L818 472M821 474L822 475L821 474M823 475L824 476L823 475M825 476L826 477L825 476M826 477L827 478L826 477M828 478L829 479L828 478M830 479L831 480L830 479M832 480L833 481L832 480M833 481L834 482L833 481M835 482L836 483L835 482M837 483L838 484L837 483M839 484L840 485L839 484M840 485L841 486L840 485M842 486L843 487L842 486M844 487L845 488L844 487M847 489L848 490L847 489M849 490L850 491L849 490M851 491L852 492L851 491M852 492L853 493L852 492M854 493L855 494L854 493M856 494L857 495L856 494M858 495L859 496L858 495M859 496L860 497L859 496M861 497L862 498L861 497M863 498L864 499L863 498M865 499L866 500L865 499M866 500L867 501L866 500M868 501L869 502L868 501M870 502L871 503L870 502M873 504L874 505L873 504M875 505L876 506L875 505M877 506L878 507L877 506M878 507L879 508L878 507M880 508L881 509L880 508M882 509L883 510L882 509M884 510L885 511L884 510M885 511L886 512L885 511M887 512L888 513L887 512M889 513L890 514L889 513M891 514L892 515L891 514M892 515L893 516L892 515M894 516L895 517L894 516M896 517L897 518L896 517M899 519L900 520L899 519M901 520L902 521L901 520M903 521L904 522L903 521M904 522L905 523L904 522M906 523L907 524L906 523M908 524L909 525L908 524M910 525L911 526L910 525M911 526L912 527L911 526M913 527L914 528L913 527M915 528L916 529L915 528M918 530L919 531L918 530M920 531L921 532L920 531M922 532L923 533L922 532M923 533L924 534L923 533M925 534L926 535L925 534M927 535L928 536L927 535M929 536L930 537L929 536M930 537L931 538L930 537M932 538L933 539L932 538M934 539L935 540L934 539M936 540L937 541L936 540M937 541L938 542L937 541M939 542L940 543L939 542M941 543L942 544L941 543M944 545L945 546L944 545M946 546L947 547L946 546M948 547L949 548L948 547M949 548L950 549L949 548M951 549L952 550L951 549M953 550L954 551L953 550M955 551L956 552L955 551M956 552L957 553L956 552M958 553L959 554L958 553M960 554L961 555L960 554M962 555L963 556L962 555M963 556L964 557L963 556M965 557L966 558L965 557M967 558L968 559L967 558M970 560L971 561L970 560M972 561L973 562L972 561M974 562L975 563L974 562M975 563L976 564L975 563M977 564L978 565L977 564M979 565L980 566L979 565M981 566L982 567L981 566M982 567L983 568L982 567M984 568L985 569L984 568M986 569L987 570L986 569M989 571L990 572L989 571M991 572L992 573L991 572M993 573L994 574L993 573z"/>
<path style="fill:#fdd119; stroke:none;" d="M930 574L901 613L853 599L872.28 628L879.292 640L872.28 652L853 681L901 667C907.302 679.346 920.001 697.563 931 706L932 671L933.603 657.51L946 652.192L979 640C969.161 633.808 955.882 631.493 945 627.424C941.355 626.062 935.247 625.265 933.028 621.722C930.966 618.432 932 612.714 932 609C932 598.487 934.64 583.655 930 574z"/>
<path style="fill:#a1b6df; stroke:none;" d="M996 575L997 576L996 575M998 576L999 577L998 576M1000 577L1001 578L1000 577M1001 578L1002 579L1001 578M1003 579L1004 580L1003 579M1005 580L1006 581L1005 580M1007 581L1008 582L1007 581M1008 582L1009 583L1008 582M1010 583L1011 584L1010 583M1012 584L1013 585L1012 584M1015 586L1016 587L1015 586M1017 587L1018 588L1017 587M1019 588L1020 589L1019 588M1020 589L1021 590L1020 589M1022 590L1023 591L1022 590M1024 591L1025 592L1024 591M1026 592L1027 593L1026 592M1027 593L1028 594L1027 593M1029 594L1030 595L1029 594M1031 595L1032 596L1031 595M1033 596L1034 597L1033 596M1034 597L1035 598L1034 597M1036 598L1037 599L1036 598M1038 599L1039 600L1038 599M1041 601L1042 602L1041 601M1043 602L1044 603L1043 602M1045 603L1046 604L1045 603M1046 604L1047 605L1046 604M1048 605L1049 606L1048 605M1050 606L1051 607L1050 606M1052 607L1053 608L1052 607M1053 608L1054 609L1053 608M1055 609L1056 610L1055 609M1057 610L1058 611L1057 610M1059 611L1060 612L1059 611M1060 612L1061 613L1060 612M1062 613L1063 614L1062 613M1064 614L1065 615L1064 614M1067 616L1068 617L1067 616M1069 617L1070 618L1069 617M1071 618L1072 619L1071 618M1072 619L1073 620L1072 619M1074 620L1075 621L1074 620M1076 621L1077 622L1076 621M1078 622L1079 623L1078 622M1079 623L1080 624L1079 623M1081 624L1082 625L1081 624M1083 625L1084 626L1083 625M1086 627L1087 628L1086 627M1088 628L1089 629L1088 628M1090 629L1091 630L1090 629M1091 630L1092 631L1091 630M1093 631L1094 632L1093 631M1095 632L1096 633L1095 632M1097 633L1098 634L1097 633M1098 634L1099 635L1098 634M1100 635L1101 636L1100 635M1102 636L1103 637L1102 636M1104 637L1105 638L1104 637M1105 638L1106 639L1105 638M1107.33 639.667L1107.67 640.333L1107.33 639.667z"/>
<path style="fill:#cf1127; stroke:none;" d="M1 1279L1 1280L2560 1280L2560 640L1552 640L1245 640L1151 640L1108 640.649L1074 659.799L1012 695.579L806 814.576L283 1116.42L90 1227.85L1 1279z"/>
<path style="fill:#a1b6df; stroke:none;" d="M1105 641L1106 642L1105 641M1102 643L1103 644L1102 643M1100 644L1101 645L1100 644M1095 647L1096 648L1095 647M1093 648L1094 649L1093 648M1090 650L1091 651L1090 650M1088 651L1089 652L1088 651M1086 652L1087 653L1086 652M1083 654L1084 655L1083 654M1081 655L1082 656L1081 655M1079 656L1080 657L1079 656M1076 658L1077 659L1076 658M1074 659L1075 660L1074 659M1071 661L1072 662L1071 661M1069 662L1070 663L1069 662M1067 663L1068 664L1067 663M1064 665L1065 666L1064 665M1062 666L1063 667L1062 666M1060 667L1061 668L1060 667M1057 669L1058 670L1057 669M1055 670L1056 671L1055 670M1050 673L1051 674L1050 673M1048 674L1049 675L1048 674M1045 676L1046 677L1045 676M1043 677L1044 678L1043 677M1041 678L1042 679L1041 678M1038 680L1039 681L1038 680M1036 681L1037 682L1036 681M1034 682L1035 683L1034 682M1031 684L1032 685L1031 684M1029 685L1030 686L1029 685M1024 688L1025 689L1024 688M1022 689L1023 690L1022 689M1019 691L1020 692L1019 691M1017 692L1018 693L1017 692M1015 693L1016 694L1015 693M1012 695L1013 696L1012 695M1010 696L1011 697L1010 696M1008 697L1009 698L1008 697M1005 699L1006 700L1005 699M1003 700L1004 701L1003 700M1000 702L1001 703L1000 702M998 703L999 704L998 703M996 704L997 705L996 704M993 706L994 707L993 706M991 707L992 708L991 707M989 708L990 709L989 708M986 710L987 711L986 710M984 711L985 712L984 711M982 712L983 713L982 712M979 714L980 715L979 714M977 715L978 716L977 715M974 717L975 718L974 717M972 718L973 719L972 718M970 719L971 720L970 719M967 721L968 722L967 721M965 722L966 723L965 722M963 723L964 724L963 723M960 725L961 726L960 725M958 726L959 727L958 726M953 729L954 730L953 729M951 730L952 731L951 730M948 732L949 733L948 732M946 733L947 734L946 733M944 734L945 735L944 734M941 736L942 737L941 736M939 737L940 738L939 737M937 738L938 739L937 738M934 740L935 741L934 740M932 741L933 742L932 741M927 744L928 745L927 744M925 745L926 746L925 745M922 747L923 748L922 747M920 748L921 749L920 748M918 749L919 750L918 749M915 751L916 752L915 751M913 752L914 753L913 752M911 753L912 754L911 753M908 755L909 756L908 755M906 756L907 757L906 756M903 758L904 759L903 758M901 759L902 760L901 759M899 760L900 761L899 760M896 762L897 763L896 762M894 763L895 764L894 763M892 764L893 765L892 764M889 766L890 767L889 766M887 767L888 768L887 767M885 768L886 769L885 768M882 770L883 771L882 770M880 771L881 772L880 771M877 773L878 774L877 773M875 774L876 775L875 774M873 775L874 776L873 775M870 777L871 778L870 777M868 778L869 779L868 778M866 779L867 780L866 779M863 781L864 782L863 781M861 782L862 783L861 782M856 785L857 786L856 785M854 786L855 787L854 786M851 788L852 789L851 788M849 789L850 790L849 789M847 790L848 791L847 790M844 792L845 793L844 792M842 793L843 794L842 793M840 794L841 795L840 794M837 796L838 797L837 796M835 797L836 798L835 797M830 800L831 801L830 800M828 801L829 802L828 801M825 803L826 804L825 803M823 804L824 805L823 804M821 805L822 806L821 805M818 807L819 808L818 807M816 808L817 809L816 808M814 809L815 810L814 809M811 811L812 812L811 811M809 812L810 813L809 812M806 814L807 815L806 814M804 815L805 816L804 815M802 816L803 817L802 816M799 818L800 819L799 818M797 819L798 820L797 819M795 820L796 821L795 820M792 822L793 823L792 822M790 823L791 824L790 823M785 826L786 827L785 826M783 827L784 828L783 827M780 829L781 830L780 829M778 830L779 831L778 830M776 831L777 832L776 831M773 833L774 834L773 833M771 834L772 835L771 834M769 835L770 836L769 835M766 837L767 838L766 837M764 838L765 839L764 838M759 841L760 842L759 841M757 842L758 843L757 842M754 844L755 845L754 844M752 845L753 846L752 845M750 846L751 847L750 846M747 848L748 849L747 848M745 849L746 850L745 849M743 850L744 851L743 850M740 852L741 853L740 852M738 853L739 854L738 853M735 855L736 856L735 855M733 856L734 857L733 856M731 857L732 858L731 857M728 859L729 860L728 859M726 860L727 861L726 860M724 861L725 862L724 861M721 863L722 864L721 863M719 864L720 865L719 864M717 865L718 866L717 865M714 867L715 868L714 867M712 868L713 869L712 868M709 870L710 871L709 870M707 871L708 872L707 871M705 872L706 873L705 872M702 874L703 875L702 874M700 875L701 876L700 875M698 876L699 877L698 876M695 878L696 879L695 878M693 879L694 880L693 879M688 882L689 883L688 882M686 883L687 884L686 883M683 885L684 886L683 885M681 886L682 887L681 886M679 887L680 888L679 887M676 889L677 890L676 889M674 890L675 891L674 890M672 891L673 892L672 891M669 893L670 894L669 893M667 894L668 895L667 894M662 897L663 898L662 897M660 898L661 899L660 898M657 900L658 901L657 900M655 901L656 902L655 901M653 902L654 903L653 902M650 904L651 905L650 904M648 905L649 906L648 905M646 906L647 907L646 906M643 908L644 909L643 908M641 909L642 910L641 909M638 911L639 912L638 911M636 912L637 913L636 912M634 913L635 914L634 913M631 915L632 916L631 915M629 916L630 917L629 916M627 917L628 918L627 917M624 919L625 920L624 919M622 920L623 921L622 920M620 921L621 922L620 921M617 923L618 924L617 923M615 924L616 925L615 924M612 926L613 927L612 926M610 927L611 928L610 927M608 928L609 929L608 928M605 930L606 931L605 930M603 931L604 932L603 931M601 932L602 933L601 932M598 934L599 935L598 934M596 935L597 936L596 935M591 938L592 939L591 938M589 939L590 940L589 939M586 941L587 942L586 941M584 942L585 943L584 942M582 943L583 944L582 943M579 945L580 946L579 945M577 946L578 947L577 946M575 947L576 948L575 947M572 949L573 950L572 949M570 950L571 951L570 950M565 953L566 954L565 953M563 954L564 955L563 954M560 956L561 957L560 956M558 957L559 958L558 957M556 958L557 959L556 958M553 960L554 961L553 960M551 961L552 962L551 961M549 962L550 963L549 962M546 964L547 965L546 964M544 965L545 966L544 965M541 967L542 968L541 967M539 968L540 969L539 968M537 969L538 970L537 969M534 971L535 972L534 971M532 972L533 973L532 972M530 973L531 974L530 973M527 975L528 976L527 975M525 976L526 977L525 976M523 977L524 978L523 977M520 979L521 980L520 979M518 980L519 981L518 980M515 982L516 983L515 982M513 983L514 984L513 983M511 984L512 985L511 984M508 986L509 987L508 986M506 987L507 988L506 987M504 988L505 989L504 988M501 990L502 991L501 990M499 991L500 992L499 991M494 994L495 995L494 994M492 995L493 996L492 995M489 997L490 998L489 997M487 998L488 999L487 998M485 999L486 1000L485 999M482 1001L483 1002L482 1001M480 1002L481 1003L480 1002M478 1003L479 1004L478 1003M475 1005L476 1006L475 1005M473 1006L474 1007L473 1006M468 1009L469 1010L468 1009M466 1010L467 1011L466 1010M463 1012L464 1013L463 1012M461 1013L462 1014L461 1013M459 1014L460 1015L459 1014M456 1016L457 1017L456 1016M454 1017L455 1018L454 1017M452 1018L453 1019L452 1018M449 1020L450 1021L449 1020M447 1021L448 1022L447 1021M444 1023L445 1024L444 1023M442 1024L443 1025L442 1024M440 1025L441 1026L440 1025M437 1027L438 1028L437 1027M435 1028L436 1029L435 1028M433 1029L434 1030L433 1029M430 1031L431 1032L430 1031M428 1032L429 1033L428 1032M423 1035L424 1036L423 1035M421 1036L422 1037L421 1036z"/>
<path style="fill:#fdd119; stroke:none;" d="M92 1038L84 1071L79.436 1085.4L66 1088.16L31 1093L60 1111.2L71.9576 1119.38L70.8002 1133L64 1169L91 1146.27L103 1137.56L117 1144L147 1160L133.719 1128L128.932 1114.17L138 1104L164 1079C152.819 1079.01 141.085 1080.12 130 1081.58C126.043 1082.1 117.745 1083.87 114.39 1081.36C102.647 1072.55 101.4 1049.34 92 1038z"/>
<path style="fill:#a1b6df; stroke:none;" d="M418 1038L419 1039L418 1038M416 1039L417 1040L416 1039M414 1040L415 1041L414 1040M411 1042L412 1043L411 1042M409 1043L410 1044L409 1043M407 1044L408 1045L407 1044M404 1046L405 1047L404 1046M402 1047L403 1048L402 1047M397 1050L398 1051L397 1050M395 1051L396 1052L395 1051M392 1053L393 1054L392 1053M390 1054L391 1055L390 1054M388 1055L389 1056L388 1055M385 1057L386 1058L385 1057M383 1058L384 1059L383 1058M381 1059L382 1060L381 1059M378 1061L379 1062L378 1061M376 1062L377 1063L376 1062M373 1064L374 1065L373 1064M371 1065L372 1066L371 1065M369 1066L370 1067L369 1066M366 1068L367 1069L366 1068M364 1069L365 1070L364 1069M362 1070L363 1071L362 1070M359 1072L360 1073L359 1072M357 1073L358 1074L357 1073M355 1074L356 1075L355 1074M352 1076L353 1077L352 1076M350 1077L351 1078L350 1077M347 1079L348 1080L347 1079M345 1080L346 1081L345 1080M343 1081L344 1082L343 1081M340 1083L341 1084L340 1083M338 1084L339 1085L338 1084M336 1085L337 1086L336 1085M333 1087L334 1088L333 1087M331 1088L332 1089L331 1088M326 1091L327 1092L326 1091M324 1092L325 1093L324 1092M321 1094L322 1095L321 1094M319 1095L320 1096L319 1095M317 1096L318 1097L317 1096M314 1098L315 1099L314 1098M312 1099L313 1100L312 1099M310 1100L311 1101L310 1100M307 1102L308 1103L307 1102M305 1103L306 1104L305 1103M300 1106L301 1107L300 1106M298 1107L299 1108L298 1107M295 1109L296 1110L295 1109M293 1110L294 1111L293 1110M291 1111L292 1112L291 1111M288 1113L289 1114L288 1113M286 1114L287 1115L286 1114M284 1115L285 1116L284 1115M281 1117L282 1118L281 1117M279 1118L280 1119L279 1118M276 1120L277 1121L276 1120M274 1121L275 1122L274 1121M272 1122L273 1123L272 1122M269 1124L270 1125L269 1124M267 1125L268 1126L267 1125M265 1126L266 1127L265 1126M262 1128L263 1129L262 1128M260 1129L261 1130L260 1129M258 1130L259 1131L258 1130M255 1132L256 1133L255 1132M253 1133L254 1134L253 1133M250 1135L251 1136L250 1135M248 1136L249 1137L248 1136M246 1137L247 1138L246 1137M243 1139L244 1140L243 1139M241 1140L242 1141L241 1140M239 1141L240 1142L239 1141M236 1143L237 1144L236 1143M234 1144L235 1145L234 1144M229 1147L230 1148L229 1147M227 1148L228 1149L227 1148M224 1150L225 1151L224 1150M222 1151L223 1152L222 1151M220 1152L221 1153L220 1152M217 1154L218 1155L217 1154M215 1155L216 1156L215 1155M213 1156L214 1157L213 1156M210 1158L211 1159L210 1158M208 1159L209 1160L208 1159M203 1162L204 1163L203 1162M201 1163L202 1164L201 1163M198 1165L199 1166L198 1165M196 1166L197 1167L196 1166M194 1167L195 1168L194 1167M191 1169L192 1170L191 1169M189 1170L190 1171L189 1170M187 1171L188 1172L187 1171M184 1173L185 1174L184 1173M182 1174L183 1175L182 1174M179 1176L180 1177L179 1176M177 1177L178 1178L177 1177M175 1178L176 1179L175 1178M172 1180L173 1181L172 1180M170 1181L171 1182L170 1181M168 1182L169 1183L168 1182M165 1184L166 1185L165 1184M163 1185L164 1186L163 1185M158 1188L159 1189L158 1188M156 1189L157 1190L156 1189M153 1191L154 1192L153 1191M151 1192L152 1193L151 1192M149 1193L150 1194L149 1193M146 1195L147 1196L146 1195M144 1196L145 1197L144 1196M142 1197L143 1198L142 1197M139 1199L140 1200L139 1199M137 1200L138 1201L137 1200M132 1203L133 1204L132 1203M130 1204L131 1205L130 1204M127 1206L128 1207L127 1206M125 1207L126 1208L125 1207M123 1208L124 1209L123 1208M120 1210L121 1211L120 1210M118 1211L119 1212L118 1211M116 1212L117 1213L116 1212M113 1214L114 1215L113 1214M111 1215L112 1216L111 1215M108 1217L109 1218L108 1217M106 1218L107 1219L106 1218M104 1219L105 1220L104 1219M101 1221L102 1222L101 1221M99 1222L100 1223L99 1222M97 1223L98 1224L97 1223M94 1225L95 1226L94 1225M92 1226L93 1227L92 1226M90 1227L91 1228L90 1227M87 1229L88 1230L87 1229M85 1230L86 1231L85 1230M82 1232L83 1233L82 1232M80 1233L81 1234L80 1233M78 1234L79 1235L78 1234M75 1236L76 1237L75 1236M73 1237L74 1238L73 1237M71 1238L72 1239L71 1238M68 1240L69 1241L68 1240M66 1241L67 1242L66 1241M61 1244L62 1245L61 1244M59 1245L60 1246L59 1245M56 1247L57 1248L56 1247M54 1248L55 1249L54 1248M52 1249L53 1250L52 1249M49 1251L50 1252L49 1251M47 1252L48 1253L47 1252M45 1253L46 1254L45 1253M42 1255L43 1256L42 1255M40 1256L41 1257L40 1256M35 1259L36 1260L35 1259M33 1260L34 1261L33 1260M30 1262L31 1263L30 1262M28 1263L29 1264L28 1263M26 1264L27 1265L26 1264M23 1266L24 1267L23 1266M21 1267L22 1268L21 1267M19 1268L20 1269L19 1268M16 1270L17 1271L16 1270M14 1271L15 1272L14 1271M11 1273L12 1274L11 1273M9 1274L10 1275L9 1274M7 1275L8 1276L7 1275M4 1277L5 1278L4 1277M2 1278L3 1279L2 1278z"/>
</svg>
