<?xml version="1.0" standalone="yes"?>
<svg xmlns="http://www.w3.org/2000/svg" width="640" height="427">
<path style="fill:#cf1127; stroke:none;" d="M0 0L0 142L640 142L640 0L0 0z"/>
<path style="fill:#a9a620; stroke:none;" d="M0 142L0 143L640 143L622 142L585 142L454 142L0 142z"/>
<path style="fill:#fdd017; stroke:none;" d="M0 143L0 284L274 284L291 230L245 196L286 196L301.49 194.972L307 182L319 143L0 143M321 143L333 182L338.51 194.972L354 196L395 196L349 230L366 284L640 284L640 143L321 143z"/>
<path style="fill:#615109; stroke:none;" d="M319 144L319 146L321 144L319 144z"/>
<path style="fill:#01643b; stroke:none;" d="M320 145L308.424 179L302.298 195.397L287 197L247 197L247 198L279 221L290.454 231.04L286.667 246L275 283L307 260.29L320 252.406L334 260.884L365 283L353.333 246L349.546 231.09L361 221L393 198L393 197L353 197L337.702 195.397L331.975 180L320 145z"/>
<path style="fill:#a9a620; stroke:none;" d="M318 146L319 147L318 146M321 146L322 147L321 146z"/>
<path style="fill:#615109; stroke:none;" d="M318.333 147.667L318.667 148.333L318.333 147.667M321.333 147.667L321.667 148.333L321.333 147.667z"/>
<path style="fill:#a9a620; stroke:none;" d="M317 149L318 150L317 149M322 149L323 150L322 149z"/>
<path style="fill:#615109; stroke:none;" d="M317.333 150.667L317.667 151.333L317.333 150.667M322.333 150.667L322.667 151.333L322.333 150.667z"/>
<path style="fill:#a9a620; stroke:none;" d="M316 152L317 153L316 152M323 152L324 153L323 152z"/>
<path style="fill:#615109; stroke:none;" d="M316.333 153.667L316.667 154.333L316.333 153.667M323.333 153.667L323.667 154.333L323.333 153.667z"/>
<path style="fill:#a9a620; stroke:none;" d="M315 155L316 156L315 155M324 155L325 156L324 155z"/>
<path style="fill:#615109; stroke:none;" d="M315.333 156.667L315.667 157.333L315.333 156.667M324.333 156.667L324.667 157.333L324.333 156.667z"/>
<path style="fill:#a9a620; stroke:none;" d="M314 158L315 159L314 158M325 158L326 159L325 158z"/>
<path style="fill:#615109; stroke:none;" d="M314.333 159.667L314.667 160.333L314.333 159.667M325.333 159.667L325.667 160.333L325.333 159.667z"/>
<path style="fill:#a9a620; stroke:none;" d="M313 161L314 162L313 161M326 161L327 162L326 161z"/>
<path style="fill:#615109; stroke:none;" d="M313.333 162.667L313.667 163.333L313.333 162.667M326.333 162.667L326.667 163.333L326.333 162.667z"/>
<path style="fill:#a9a620; stroke:none;" d="M312 164L313 165L312 164M327 164L328 165L327 164z"/>
<path style="fill:#615109; stroke:none;" d="M312.333 165.667L312.667 166.333L312.333 165.667M327.333 165.667L327.667 166.333L327.333 165.667z"/>
<path style="fill:#a9a620; stroke:none;" d="M311 167L312 168L311 167M328 167L329 168L328 167z"/>
<path style="fill:#615109; stroke:none;" d="M311.333 168.667L311.667 169.333L311.333 168.667M328.333 168.667L328.667 169.333L328.333 168.667z"/>
<path style="fill:#a9a620; stroke:none;" d="M310 170L311 171L310 170M329 170L330 171L329 170z"/>
<path style="fill:#615109; stroke:none;" d="M310.333 171.667L310.667 172.333L310.333 171.667M329.333 171.667L329.667 172.333L329.333 171.667M309.333 174.667L309.667 175.333L309.333 174.667M330.333 174.667L330.667 175.333L330.333 174.667z"/>
<path style="fill:#a9a620; stroke:none;" d="M308 177L309 178L308 177M331 177L332 178L331 177z"/>
<path style="fill:#615109; stroke:none;" d="M308 178L309 179L308 178M331 178L332 179L331 178z"/>
<path style="fill:#a9a620; stroke:none;" d="M307 180L308 181L307 180M332 180L333 181L332 180z"/>
<path style="fill:#615109; stroke:none;" d="M307.333 181.667L307.667 182.333L307.333 181.667M332 181L333 182L332 181z"/>
<path style="fill:#a9a620; stroke:none;" d="M306 183L307 184L306 183M333 183L334 184L333 183z"/>
<path style="fill:#615109; stroke:none;" d="M306.333 184.667L306.667 185.333L306.333 184.667M333.333 184.667L333.667 185.333L333.333 184.667z"/>
<path style="fill:#a9a620; stroke:none;" d="M305 186L306 187L305 186M334 186L335 187L334 186z"/>
<path style="fill:#615109; stroke:none;" d="M305.333 187.667L305.667 188.333L305.333 187.667M334.333 187.667L334.667 188.333L334.333 187.667z"/>
<path style="fill:#a9a620; stroke:none;" d="M304 189L305 190L304 189M335 189L336 190L335 189z"/>
<path style="fill:#615109; stroke:none;" d="M304.333 190.667L304.667 191.333L304.333 190.667M335.333 190.667L335.667 191.333L335.333 190.667z"/>
<path style="fill:#a9a620; stroke:none;" d="M303 192L304 193L303 192M336 192L337 193L336 192z"/>
<path style="fill:#615109; stroke:none;" d="M303.333 193.667L303.667 194.333L303.333 193.667M336.333 193.667L336.667 194.333L336.333 193.667z"/>
<path style="fill:#a9a620; stroke:none;" d="M302 195C285.346 199.923 262.391 196 245 196L245 197C262.683 197 286.068 201.005 303 196L302 195M337 195L337 196C353.932 201.005 377.317 197 395 197L395 196C376.689 196 354.823 199.243 337 195z"/>
<path style="fill:#615109; stroke:none;" d="M302 196L303 197L302 196M337 196L338 197L337 196M246 197L247 198L246 197M393 197L394 198L393 197z"/>
<path style="fill:#a9a620; stroke:none;" d="M247 198L248 199L247 198z"/>
<path style="fill:#615109; stroke:none;" d="M248 198L249 199L248 198M391 198L390 200L391 198z"/>
<path style="fill:#a9a620; stroke:none;" d="M392 198L393 199L392 198z"/>
<path style="fill:#615109; stroke:none;" d="M249 199L250 200L249 199z"/>
<path style="fill:#a9a620; stroke:none;" d="M391 199L392 200L391 199z"/>
<path style="fill:#615109; stroke:none;" d="M250 200L251 201L250 200M389 200L390 201L389 200z"/>
<path style="fill:#a9a620; stroke:none;" d="M251 201L252 202L251 201z"/>
<path style="fill:#615109; stroke:none;" d="M252 201L253 202L252 201M387 201L388 202L387 201z"/>
<path style="fill:#a9a620; stroke:none;" d="M388 201L389 202L388 201z"/>
<path style="fill:#615109; stroke:none;" d="M253 202L254 203L253 202M386 202L387 203L386 202M254 203L255 204L254 203M385 203L386 204L385 203z"/>
<path style="fill:#a9a620; stroke:none;" d="M255 204L256 205L255 204z"/>
<path style="fill:#615109; stroke:none;" d="M256 204L257 205L256 204M383 204L384 205L383 204z"/>
<path style="fill:#a9a620; stroke:none;" d="M384 204L385 205L384 204z"/>
<path style="fill:#615109; stroke:none;" d="M257 205L258 206L257 205M382 205L383 206L382 205z"/>
<path style="fill:#a9a620; stroke:none;" d="M258 206L259 207L258 206z"/>
<path style="fill:#615109; stroke:none;" d="M259 206L260 207L259 206M380 206L379 208L380 206z"/>
<path style="fill:#a9a620; stroke:none;" d="M381 206L382 207L381 206z"/>
<path style="fill:#615109; stroke:none;" d="M260 207L261 208L260 207z"/>
<path style="fill:#a9a620; stroke:none;" d="M380 207L381 208L380 207z"/>
<path style="fill:#615109; stroke:none;" d="M261 208L262 209L261 208M378 208L379 209L378 208z"/>
<path style="fill:#a9a620; stroke:none;" d="M262 209L263 210L262 209z"/>
<path style="fill:#615109; stroke:none;" d="M263 209L264 210L263 209M376 209L377 210L376 209z"/>
<path style="fill:#a9a620; stroke:none;" d="M377 209L378 210L377 209z"/>
<path style="fill:#615109; stroke:none;" d="M264 210L265 211L264 210M375 210L376 211L375 210M265 211L266 212L265 211M374 211L375 212L374 211z"/>
<path style="fill:#a9a620; stroke:none;" d="M266 212L267 213L266 212z"/>
<path style="fill:#615109; stroke:none;" d="M267 212L268 213L267 212M372 212L373 213L372 212z"/>
<path style="fill:#a9a620; stroke:none;" d="M373 212L374 213L373 212z"/>
<path style="fill:#615109; stroke:none;" d="M268 213L269 214L268 213M371 213L372 214L371 213z"/>
<path style="fill:#a9a620; stroke:none;" d="M269 214L270 215L269 214z"/>
<path style="fill:#615109; stroke:none;" d="M270 214L271 215L270 214M369 214L368 216L369 214z"/>
<path style="fill:#a9a620; stroke:none;" d="M370 214L371 215L370 214z"/>
<path style="fill:#615109; stroke:none;" d="M271 215L272 216L271 215z"/>
<path style="fill:#a9a620; stroke:none;" d="M369 215L370 216L369 215z"/>
<path style="fill:#615109; stroke:none;" d="M272 216L273 217L272 216M367 216L368 217L367 216z"/>
<path style="fill:#a9a620; stroke:none;" d="M273 217L274 218L273 217z"/>
<path style="fill:#615109; stroke:none;" d="M274 217L275 218L274 217M365 217L366 218L365 217z"/>
<path style="fill:#a9a620; stroke:none;" d="M366 217L367 218L366 217z"/>
<path style="fill:#615109; stroke:none;" d="M275 218L276 219L275 218M364 218L365 219L364 218M276 219L277 220L276 219M363 219L364 220L363 219z"/>
<path style="fill:#a9a620; stroke:none;" d="M277 220L278 221L277 220z"/>
<path style="fill:#615109; stroke:none;" d="M278 220L279 221L278 220M361 220L362 221L361 220z"/>
<path style="fill:#a9a620; stroke:none;" d="M362 220L363 221L362 220z"/>
<path style="fill:#615109; stroke:none;" d="M279 221L280 222L279 221M360 221L361 222L360 221z"/>
<path style="fill:#a9a620; stroke:none;" d="M280 222L281 223L280 222z"/>
<path style="fill:#615109; stroke:none;" d="M281 222L282 223L281 222M358 222L357 224L358 222z"/>
<path style="fill:#a9a620; stroke:none;" d="M359 222L360 223L359 222z"/>
<path style="fill:#615109; stroke:none;" d="M282 223L283 224L282 223z"/>
<path style="fill:#a9a620; stroke:none;" d="M358 223L359 224L358 223z"/>
<path style="fill:#615109; stroke:none;" d="M283 224L284 225L283 224M356 224L357 225L356 224z"/>
<path style="fill:#a9a620; stroke:none;" d="M284 225L285 226L284 225z"/>
<path style="fill:#615109; stroke:none;" d="M285 225L286 226L285 225M354 225L355 226L354 225z"/>
<path style="fill:#a9a620; stroke:none;" d="M355 225L356 226L355 225z"/>
<path style="fill:#615109; stroke:none;" d="M286 226L287 227L286 226M353 226L354 227L353 226z"/>
<path style="fill:#a9a620; stroke:none;" d="M287 227L289 229L287 227z"/>
<path style="fill:#615109; stroke:none;" d="M288 227L289 228L288 227M352 227L353 228L352 227M289 228L290 229L289 228M350 228L351 229L350 228z"/>
<path style="fill:#a9a620; stroke:none;" d="M351 228L352 229L351 228z"/>
<path style="fill:#615109; stroke:none;" d="M290 229L291 230L290 229M349 229L350 230L349 229M291.333 230.667L291.667 231.333L291.333 230.667M348.333 230.667L348.667 231.333L348.333 230.667z"/>
<path style="fill:#a9a620; stroke:none;" d="M290 232L291 233L290 232M349 232L350 233L349 232z"/>
<path style="fill:#615109; stroke:none;" d="M290.333 233.667L290.667 234.333L290.333 233.667M349.333 233.667L349.667 234.333L349.333 233.667z"/>
<path style="fill:#a9a620; stroke:none;" d="M289 235L290 236L289 235M350 235L351 236L350 235z"/>
<path style="fill:#615109; stroke:none;" d="M289.333 236.667L289.667 237.333L289.333 236.667M350.333 236.667L350.667 237.333L350.333 236.667z"/>
<path style="fill:#a9a620; stroke:none;" d="M288 238L289 239L288 238M351 238L352 239L351 238z"/>
<path style="fill:#615109; stroke:none;" d="M288.333 239.667L288.667 240.333L288.333 239.667M351.333 239.667L351.667 240.333L351.333 239.667z"/>
<path style="fill:#a9a620; stroke:none;" d="M287 241L288 242L287 241M352 241L353 242L352 241z"/>
<path style="fill:#615109; stroke:none;" d="M287.333 242.667L287.667 243.333L287.333 242.667M352.333 242.667L352.667 243.333L352.333 242.667z"/>
<path style="fill:#a9a620; stroke:none;" d="M286 244L287 245L286 244M353 244L354 245L353 244z"/>
<path style="fill:#615109; stroke:none;" d="M286.333 245.667L286.667 246.333L286.333 245.667M353.333 245.667L353.667 246.333L353.333 245.667z"/>
<path style="fill:#a9a620; stroke:none;" d="M285 247L286 248L285 247M354 247L355 248L354 247z"/>
<path style="fill:#615109; stroke:none;" d="M285.333 248.667L285.667 249.333L285.333 248.667M354.333 248.667L354.667 249.333L354.333 248.667M284.333 251.667L284.667 252.333L284.333 251.667M319.667 251.333L320.333 251.667L319.667 251.333M355.333 251.667L355.667 252.333L355.333 251.667M317 252L316 254L317 252z"/>
<path style="fill:#a9a620; stroke:none;" d="M318 252L319 253L318 252z"/>
<path style="fill:#fdd017; stroke:none;" d="M276 283L276 284L364 284L332 259.849L319 252.952L305 262.116L276 283z"/>
<path style="fill:#a9a620; stroke:none;" d="M321 252L322 253L321 252z"/>
<path style="fill:#615109; stroke:none;" d="M322 252L323 253L322 252M323 253L324 254L323 253z"/>
<path style="fill:#a9a620; stroke:none;" d="M283 254L284 255L283 254z"/>
<path style="fill:#615109; stroke:none;" d="M314 254L313 256L314 254z"/>
<path style="fill:#a9a620; stroke:none;" d="M315 254L316 255L315 254M324 254L325 255L324 254z"/>
<path style="fill:#615109; stroke:none;" d="M325 254L326 255L325 254z"/>
<path style="fill:#a9a620; stroke:none;" d="M356 254L357 255L356 254z"/>
<path style="fill:#615109; stroke:none;" d="M283 255L284 256L283 255z"/>
<path style="fill:#a9a620; stroke:none;" d="M314 255L315 256L314 255z"/>
<path style="fill:#615109; stroke:none;" d="M326 255L327 256L326 255M356 255L357 256L356 255M312 256L313 257L312 256M327 256L328 257L327 256z"/>
<path style="fill:#a9a620; stroke:none;" d="M282 257L283 258L282 257z"/>
<path style="fill:#615109; stroke:none;" d="M310 257L311 258L310 257z"/>
<path style="fill:#a9a620; stroke:none;" d="M311 257L312 258L311 257M328 257L329 258L328 257z"/>
<path style="fill:#615109; stroke:none;" d="M329 257L330 258L329 257z"/>
<path style="fill:#a9a620; stroke:none;" d="M357 257L358 258L357 257z"/>
<path style="fill:#615109; stroke:none;" d="M282.333 258.667L282.667 259.333L282.333 258.667M309 258L310 259L309 258M330 258L331 259L330 258M357 258L358 259L357 258M308 259L309 260L308 259z"/>
<path style="fill:#a9a620; stroke:none;" d="M331 259L333 261L331 259z"/>
<path style="fill:#615109; stroke:none;" d="M332 259L333 260L332 259z"/>
<path style="fill:#a9a620; stroke:none;" d="M281 260L282 261L281 260z"/>
<path style="fill:#615109; stroke:none;" d="M306 260L307 261L306 260z"/>
<path style="fill:#a9a620; stroke:none;" d="M307 260L308 261L307 260z"/>
<path style="fill:#615109; stroke:none;" d="M333 260L334 261L333 260z"/>
<path style="fill:#a9a620; stroke:none;" d="M358 260L359 261L358 260z"/>
<path style="fill:#615109; stroke:none;" d="M281.333 261.667L281.667 262.333L281.333 261.667M305 261L306 262L305 261M334 261L335 262L334 261M358.333 261.667L358.667 262.333L358.333 261.667M303 262L302 264L303 262z"/>
<path style="fill:#a9a620; stroke:none;" d="M304 262L305 263L304 262M335 262L336 263L335 262z"/>
<path style="fill:#615109; stroke:none;" d="M336 262L337 263L336 262z"/>
<path style="fill:#a9a620; stroke:none;" d="M280 263L281 264L280 263M303 263L304 264L303 263z"/>
<path style="fill:#615109; stroke:none;" d="M337 263L338 264L337 263z"/>
<path style="fill:#a9a620; stroke:none;" d="M359 263L360 264L359 263z"/>
<path style="fill:#615109; stroke:none;" d="M280.333 264.667L280.667 265.333L280.333 264.667M301 264L302 265L301 264M338 264L339 265L338 264M359.333 264.667L359.667 265.333L359.333 264.667M299 265L300 266L299 265z"/>
<path style="fill:#a9a620; stroke:none;" d="M300 265L301 266L300 265M339 265L340 266L339 265z"/>
<path style="fill:#615109; stroke:none;" d="M340 265L341 266L340 265z"/>
<path style="fill:#a9a620; stroke:none;" d="M279 266L280 267L279 266z"/>
<path style="fill:#615109; stroke:none;" d="M298 266L299 267L298 266M341 266L342 267L341 266z"/>
<path style="fill:#a9a620; stroke:none;" d="M360 266L361 267L360 266z"/>
<path style="fill:#615109; stroke:none;" d="M279.333 267.667L279.667 268.333L279.333 267.667M297 267L298 268L297 267z"/>
<path style="fill:#a9a620; stroke:none;" d="M342 267L344 269L342 267z"/>
<path style="fill:#615109; stroke:none;" d="M343 267L344 268L343 267M360.333 267.667L360.667 268.333L360.333 267.667M295 268L296 269L295 268z"/>
<path style="fill:#a9a620; stroke:none;" d="M296 268L297 269L296 268z"/>
<path style="fill:#615109; stroke:none;" d="M344 268L345 269L344 268z"/>
<path style="fill:#a9a620; stroke:none;" d="M278 269L279 270L278 269z"/>
<path style="fill:#615109; stroke:none;" d="M294 269L295 270L294 269M345 269L346 270L345 269z"/>
<path style="fill:#a9a620; stroke:none;" d="M361 269L362 270L361 269z"/>
<path style="fill:#615109; stroke:none;" d="M278.333 270.667L278.667 271.333L278.333 270.667M292 270L291 272L292 270z"/>
<path style="fill:#a9a620; stroke:none;" d="M293 270L294 271L293 270M346 270L347 271L346 270z"/>
<path style="fill:#615109; stroke:none;" d="M347 270L348 271L347 270M361.333 270.667L361.667 271.333L361.333 270.667z"/>
<path style="fill:#a9a620; stroke:none;" d="M292 271L293 272L292 271z"/>
<path style="fill:#615109; stroke:none;" d="M348 271L349 272L348 271z"/>
<path style="fill:#a9a620; stroke:none;" d="M277 272L278 273L277 272z"/>
<path style="fill:#615109; stroke:none;" d="M290 272L291 273L290 272M349 272L350 273L349 272z"/>
<path style="fill:#a9a620; stroke:none;" d="M362 272L363 273L362 272z"/>
<path style="fill:#615109; stroke:none;" d="M277.333 273.667L277.667 274.333L277.333 273.667M288 273L289 274L288 273z"/>
<path style="fill:#a9a620; stroke:none;" d="M289 273L290 274L289 273M350 273L351 274L350 273z"/>
<path style="fill:#615109; stroke:none;" d="M351 273L352 274L351 273M362.333 273.667L362.667 274.333L362.333 273.667M287 274L288 275L287 274M352 274L353 275L352 274z"/>
<path style="fill:#a9a620; stroke:none;" d="M276 275L277 276L276 275z"/>
<path style="fill:#615109; stroke:none;" d="M286 275L287 276L286 275z"/>
<path style="fill:#a9a620; stroke:none;" d="M353 275L355 277L353 275z"/>
<path style="fill:#615109; stroke:none;" d="M354 275L355 276L354 275z"/>
<path style="fill:#a9a620; stroke:none;" d="M363 275L364 276L363 275z"/>
<path style="fill:#615109; stroke:none;" d="M276.333 276.667L276.667 277.333L276.333 276.667M284 276L285 277L284 276z"/>
<path style="fill:#a9a620; stroke:none;" d="M285 276L286 277L285 276z"/>
<path style="fill:#615109; stroke:none;" d="M355 276L356 277L355 276M363.333 276.667L363.667 277.333L363.333 276.667M283 277L284 278L283 277M356 277L357 278L356 277z"/>
<path style="fill:#a9a620; stroke:none;" d="M275 278L276 279L275 278z"/>
<path style="fill:#615109; stroke:none;" d="M281 278L280 280L281 278z"/>
<path style="fill:#a9a620; stroke:none;" d="M282 278L283 279L282 278M357 278L358 279L357 278z"/>
<path style="fill:#615109; stroke:none;" d="M358 278L359 279L358 278z"/>
<path style="fill:#a9a620; stroke:none;" d="M364 278L365 279L364 278z"/>
<path style="fill:#615109; stroke:none;" d="M275.333 279.667L275.667 280.333L275.333 279.667z"/>
<path style="fill:#a9a620; stroke:none;" d="M281 279L282 280L281 279z"/>
<path style="fill:#615109; stroke:none;" d="M359 279L360 280L359 279M364.333 279.667L364.667 280.333L364.333 279.667M279 280L280 281L279 280M360 280L361 281L360 280z"/>
<path style="fill:#a9a620; stroke:none;" d="M274 281L275 282L274 281z"/>
<path style="fill:#615109; stroke:none;" d="M277 281L278 282L277 281z"/>
<path style="fill:#a9a620; stroke:none;" d="M278 281L279 282L278 281M361 281L362 282L361 281z"/>
<path style="fill:#615109; stroke:none;" d="M362 281L363 282L362 281z"/>
<path style="fill:#a9a620; stroke:none;" d="M365 281L366 282L365 281z"/>
<path style="fill:#615109; stroke:none;" d="M274 282L274 284L276 284L274 282M276 282L277 283L276 282M363 282L364 283L363 282M365.333 282.667L365.667 283.333L365.333 282.667z"/>
<path style="fill:#a9a620; stroke:none;" d="M0 284L0 285L640 285L622 284L585 284L454 284L0 284z"/>
<path style="fill:#01643b; stroke:none;" d="M0 285L0 427L640 427L640 285L0 285z"/>
</svg>
