<?xml version="1.0" standalone="yes"?>
<svg xmlns="http://www.w3.org/2000/svg" width="550" height="344">
<path style="fill:#4997d0; stroke:none;" d="M0 0L0 344L183 344L183 0L0 0z"/>
<path style="fill:#fcfdfb; stroke:none;" d="M183 0L183 344L367 344L367 0L183 0z"/>
<path style="fill:#4997d0; stroke:none;" d="M367 0L367 344L550 344L550 0L367 0z"/>
<path style="fill:#bdb36b; stroke:none;" d="M271 121L271 122L277 122L271 121z"/>
<path style="fill:#617c47; stroke:none;" d="M271 122C272.202 133.363 279.987 134.442 287 141L290 140L293 143L288 151L289 151L295 145C299.913 158.52 301.643 165.17 296 179L298 178L298 179L297 185L294 183C296.653 190.094 291.076 194.486 289 201L290 202L292 202C305.854 179.445 310.671 156.426 289.996 136.015C285.883 131.954 281.533 127.866 276 126L277 122L271 122z"/>
<path style="fill:#bdb36b; stroke:none;" d="M239.667 123.333L240.333 123.667L239.667 123.333z"/>
<path style="fill:#564726; stroke:none;" d="M273 123L274 124L273 123z"/>
<path style="fill:#617c47; stroke:none;" d="M234 137L245 128L237 131L240 124C234.912 126.67 234.672 131.711 234 137z"/>
<path style="fill:#bdb36b; stroke:none;" d="M271.333 124.667L271.667 125.333L271.333 124.667M276.333 124.667L276.667 125.333L276.333 124.667z"/>
<path style="fill:#617c47; stroke:none;" d="M312 124L314 126C313.745 130.397 315.11 133.787 319 136L316 130L318 131L318 130L315 129L312 124z"/>
<path style="fill:#bdb36b; stroke:none;" d="M232 126L232 127L235 128L236 128L235 125L232 126M239.333 125.667L239.667 126.333L239.333 125.667z"/>
<path style="fill:#617c47; stroke:none;" d="M233 126L231 136L232 136L233 126z"/>
<path style="fill:#fcfdfb; stroke:none;" d="M234 126L234 129L235 129L234 126z"/>
<path style="fill:#bdb36b; stroke:none;" d="M270.333 126.667L270.667 127.333L270.333 126.667M278 126L279 127L278 126M312.333 126.667L312.667 127.333L312.333 126.667z"/>
<path style="fill:#564726; stroke:none;" d="M313 126L314 127L313 126z"/>
<path style="fill:#bdb36b; stroke:none;" d="M320 126L321 127L320 126z"/>
<path style="fill:#617c47; stroke:none;" d="M228 127L228 141L232 139L232 138L229 138L228 127z"/>
<path style="fill:#bdb36b; stroke:none;" d="M244.667 127.333L245.333 127.667L244.667 127.333z"/>
<path style="fill:#564726; stroke:none;" d="M271 127C270.536 132.844 273.649 135.405 279 137L271 127M314 127L315 128L314 127z"/>
<path style="fill:#617c47; stroke:none;" d="M320 127L320 138L322 137L322 144L323 144L322 134L321 134L320 127z"/>
<path style="fill:#bdb36b; stroke:none;" d="M227 128L228 129L227 128M231 128L232 129L231 128M238 128L237 131C239.158 130.022 239.501 129.812 238 128M241.667 128.333L242.333 128.667L241.667 128.333z"/>
<path style="fill:#617c47; stroke:none;" d="M270 128L271 129L270 128z"/>
<path style="fill:#bdb36b; stroke:none;" d="M281 128L282 129L281 128M313 128L311 130L311 131L315 132L313 128z"/>
<path style="fill:#564726; stroke:none;" d="M315 128L316 129L315 128z"/>
<path style="fill:#bdb36b; stroke:none;" d="M316 128L317 129L316 128M319 128L319 136L316 133L315 133L314 135L320 137L319 128M321.333 128.667L321.667 129.333L321.333 128.667M233 129L234 134L232 136L231 136L231 130L229 130L229 138L230 138L231 136L232 139L230 141L226 142L225 142L226 145L228 144L229 147L226 146C225.736 149.475 225.952 151.176 229 153C227.597 147.082 233.475 140.656 239 139L234 137L235 129L233 129M282 129L283 130L282 129z"/>
<path style="fill:#617c47; stroke:none;" d="M309 129L317 149L312 145L320 153L320 154L315 153C317.865 156.72 322.009 160.303 319 165L318 160L317 160C317.478 166.017 321.895 178.177 316 182L317 177L316 177L314 187L313 187L313 185L312 185L307 198L311 195C314.405 194.529 313.961 191.058 314 188L315 188L317 194L315 193L310 200L310 201L316 202L316 201L314 201L314 200L318 201L318 198L322 198L322 197L315 199L319 195L328 182L334 181L334 180L323 182L324 177L320 172L323 171L324 171L324 176L325 176L325 169L326 169C327.932 171.228 328.794 169.243 329 167L331 167L332 163L329 164L328 153L331 153L330 150L332 148L328 151L328 144L329 144L329 146L330 146L329 141L323 152L321 157L323 154L319 149L323 150L324 146L318 144L321 143L321 142L317 144L316 141L318 141L313 135L309 129z"/>
<path style="fill:#bdb36b; stroke:none;" d="M317 129L318 130L317 129M243 130L244 131L243 130z"/>
<path style="fill:#617c47; stroke:none;" d="M270 130L271 131L270 130z"/>
<path style="fill:#bdb36b; stroke:none;" d="M283 130L284 131L283 130z"/>
<path style="fill:#564726; stroke:none;" d="M316 130L318 133L316 130z"/>
<path style="fill:#bdb36b; stroke:none;" d="M226 131L226 139L227 139L226 131z"/>
<path style="fill:#564726; stroke:none;" d="M232 131L233 132L232 131z"/>
<path style="fill:#bdb36b; stroke:none;" d="M236 131L237 132L236 131M242 131L247 137L242 131M270 131L271 132L270 131M309 131L310 132L309 131z"/>
<path style="fill:#fcfdfb; stroke:none;" d="M313 131L315 134L313 131z"/>
<path style="fill:#564726; stroke:none;" d="M321 131L321 134L322 134L321 131z"/>
<path style="fill:#bdb36b; stroke:none;" d="M322 131L323 132L322 131z"/>
<path style="fill:#564726; stroke:none;" d="M228 132L229 133L228 132z"/>
<path style="fill:#fcfdfb; stroke:none;" d="M233.333 132.667L233.667 133.333L233.333 132.667z"/>
<path style="fill:#bdb36b; stroke:none;" d="M286 132L287 133L286 132M323 132L324 133L323 132z"/>
<path style="fill:#564726; stroke:none;" d="M239 133L240 134L239 133z"/>
<path style="fill:#bdb36b; stroke:none;" d="M240 133L241 134L240 133M271 133L272 134L271 133M287 133L288 134L287 133z"/>
<path style="fill:#564726; stroke:none;" d="M312 133L313 134L312 133z"/>
<path style="fill:#bdb36b; stroke:none;" d="M239 134L240 135L239 134M272 134L273 135L272 134M288 134L289 135L288 134M300 141L299 138L295 142L300 143L301 143L311 135L300 141z"/>
<path style="fill:#564726; stroke:none;" d="M313 134L314 135L313 134z"/>
<path style="fill:#fcfdfb; stroke:none;" d="M315 134L316 135L315 134z"/>
<path style="fill:#bdb36b; stroke:none;" d="M324.333 134.667L324.667 135.333L324.333 134.667M221 135L221 144L222 144L223 135L221 135M238 135L239 136L238 135M274 135L275 136L274 135M289 135L290 136L289 135z"/>
<path style="fill:#fcfdfb; stroke:none;" d="M301 143L300 143L296 142C301.43 150.989 305.421 159.194 304.961 170C304.596 178.574 299.372 185.936 304 194L305 194L308 191L308 195L309 195L316 176L319 179L317 159L318 159L319 162L320 162L315 153L317 153L312 145L316 146L311 135L301 143z"/>
<path style="fill:#564726; stroke:none;" d="M314 135L315 136L314 135M321 135L322 136L321 135M323 135L323 142L324 142L323 135z"/>
<path style="fill:#617c47; stroke:none;" d="M222 136C222.003 140.914 221.511 146.022 226 149L224 144L222 136z"/>
<path style="fill:#fcfdfb; stroke:none;" d="M230.333 136.667L230.667 137.333L230.333 136.667z"/>
<path style="fill:#bdb36b; stroke:none;" d="M276 136L277 137L276 136M290 136L291 137L290 136M311 136L312 137L311 136z"/>
<path style="fill:#617c47; stroke:none;" d="M324 136L324 141L325 141L324 136z"/>
<path style="fill:#bdb36b; stroke:none;" d="M223 137L224 138L223 137z"/>
<path style="fill:#fcfdfb; stroke:none;" d="M236 137L233 141L230 144L236 137z"/>
<path style="fill:#bdb36b; stroke:none;" d="M247 137L247 139L249 139L247 137M252 137L249 140L252 145L253 145L254 142L258 143L260 139L252 137M278.667 137.333L279.333 137.667L278.667 137.333M291 137L292 138L291 137M312 137L313 138L312 137z"/>
<path style="fill:#fcfdfb; stroke:none;" d="M317 137L318 138L317 137z"/>
<path style="fill:#617c47; stroke:none;" d="M318 137L319 138L318 137z"/>
<path style="fill:#fcfdfb; stroke:none;" d="M319 137L317 142L319 139L320 139L321 143L322 143L319 137z"/>
<path style="fill:#bdb36b; stroke:none;" d="M321 137L321 141L322 141L321 137z"/>
<path style="fill:#564726; stroke:none;" d="M228 138L229 139L228 138z"/>
<path style="fill:#617c47; stroke:none;" d="M237 138L227 150L230 149L229 153L233 152L233 149L235 147L240 143L233 145L237 138z"/>
<path style="fill:#bdb36b; stroke:none;" d="M280 138L280 139L285 140L285 139L280 138M292 138L293 139L292 138M313 138L313 141L314 141L313 138M317.667 138.333L318.333 138.667L317.667 138.333z"/>
<path style="fill:#564726; stroke:none;" d="M223 139L224 140L223 139z"/>
<path style="fill:#bdb36b; stroke:none;" d="M224.333 139.667L224.667 140.333L224.333 139.667M286 139C278.555 146.821 264.501 138.846 257 147C266.002 145.862 284.634 148.141 290 140L286 139M293 139L294 140L293 139M319 139L321 142L319 139z"/>
<path style="fill:#617c47; stroke:none;" d="M329 139L330 140L329 139z"/>
<path style="fill:#bdb36b; stroke:none;" d="M227 140L228 141L227 140z"/>
<path style="fill:#fcfdfb; stroke:none;" d="M229 140L230 141L229 140z"/>
<path style="fill:#617c47; stroke:none;" d="M231.667 140.333L232.333 140.667L231.667 140.333z"/>
<path style="fill:#bdb36b; stroke:none;" d="M237 140L238 141L237 140z"/>
<path style="fill:#fcfdfb; stroke:none;" d="M252 140L253 141L252 140z"/>
<path style="fill:#bdb36b; stroke:none;" d="M328 140L329 141L328 140z"/>
<path style="fill:#564726; stroke:none;" d="M329.333 140.667L329.667 141.333L329.333 140.667M235 141L233 145L237 141L235 141z"/>
<path style="fill:#bdb36b; stroke:none;" d="M260.333 141.667L260.667 142.333L260.333 141.667M316 141L319 143L319 142L316 141M324 141L325 142L324 141z"/>
<path style="fill:#564726; stroke:none;" d="M224.333 142.667L224.667 143.333L224.333 142.667z"/>
<path style="fill:#617c47; stroke:none;" d="M236 142L237 143L236 142z"/>
<path style="fill:#bdb36b; stroke:none;" d="M290 142L291 143L290 142M314 142L315 143L314 142z"/>
<path style="fill:#564726; stroke:none;" d="M316 142L317 143L316 142z"/>
<path style="fill:#bdb36b; stroke:none;" d="M327 142L328 143L327 142M238 143L239 144L238 143M292.333 143.667L292.667 144.333L292.333 143.667M296 143L297 144L296 143z"/>
<path style="fill:#564726; stroke:none;" d="M317 143L318 144L317 143z"/>
<path style="fill:#bdb36b; stroke:none;" d="M319 143L320 146L321 146L322 143L319 143M323 143L324 144L323 143z"/>
<path style="fill:#564726; stroke:none;" d="M329 143L330 144L329 143z"/>
<path style="fill:#617c47; stroke:none;" d="M227 144L228 147L229 147L227 144z"/>
<path style="fill:#bdb36b; stroke:none;" d="M236 144L237 145L236 144M239 144L240 145L239 144M297 144L298 145L297 144M315 144L316 145L315 144z"/>
<path style="fill:#564726; stroke:none;" d="M318 144L319 145L318 144z"/>
<path style="fill:#fcfdfb; stroke:none;" d="M320 144L321 145L320 144z"/>
<path style="fill:#bdb36b; stroke:none;" d="M326 144L327 145L326 144z"/>
<path style="fill:#564726; stroke:none;" d="M328 144L328 147L329 147L328 144z"/>
<path style="fill:#bdb36b; stroke:none;" d="M222.333 145.667L222.667 146.333L222.333 145.667z"/>
<path style="fill:#fcfdfb; stroke:none;" d="M226 145L228 147L228 145L226 145z"/>
<path style="fill:#564726; stroke:none;" d="M232 145L230 149L232 145z"/>
<path style="fill:#bdb36b; stroke:none;" d="M291 145L292 146L291 145M294 145L295 146L294 145M298 145L299 146L298 145M313 145L314 146L313 145M322.667 145.333L323.333 145.667L322.667 145.333z"/>
<path style="fill:#564726; stroke:none;" d="M236 146L237 147L236 146z"/>
<path style="fill:#bdb36b; stroke:none;" d="M290 146L291 147L290 146M293 146L294 147L293 146M312 146L313 147L312 146M315 146L318 148L315 146M321.333 146.667L321.667 147.333L321.333 146.667M325.333 146.667L325.667 147.333L325.333 146.667M329 146L330 147L329 146M220 147L223 150L220 147M223 147L224 148L223 147z"/>
<path style="fill:#564726; stroke:none;" d="M235 147L233 149L233 150L235 147z"/>
<path style="fill:#bdb36b; stroke:none;" d="M237 147L238 148L237 147M289 147L290 148L289 147z"/>
<path style="fill:#564726; stroke:none;" d="M291 147L292 148L291 147z"/>
<path style="fill:#bdb36b; stroke:none;" d="M292 147L293 148L292 147M299 147L300 148L299 147z"/>
<path style="fill:#564726; stroke:none;" d="M327.333 147.667L327.667 148.333L327.333 147.667z"/>
<path style="fill:#bdb36b; stroke:none;" d="M332.333 147.667L332.667 148.333L332.333 147.667z"/>
<path style="fill:#617c47; stroke:none;" d="M220 148L222 163L219 162L217 158C217.5 163.693 219.087 169.249 225 171L225 175L226 175L227 173L228 177L224 179L224 180L227 179L227 182L226 182L223 182L221 181L220 178L219 178L216 181L216 182C219.569 183.127 227.401 189.945 228 185L229 185L235 198L227 195L235 202L235 198L237 199L236 196L239 198L241 197L240 191L241 196L238 195L237 185L233 185L233 184L234 178L231 181L230 181L230 175L232 175L232 171L228 172L229 168L230 170L231 170L230 166L232 161C228.305 161 230.393 157.562 231 155L236 152L223 154L220 148z"/>
<path style="fill:#bdb36b; stroke:none;" d="M236 148L237 149L236 148M288 148L289 149L288 148z"/>
<path style="fill:#564726; stroke:none;" d="M290 148L291 149L290 148z"/>
<path style="fill:#bdb36b; stroke:none;" d="M296 148L297 149L296 148M313 148L314 149L313 148z"/>
<path style="fill:#564726; stroke:none;" d="M316 148L317 149L316 148z"/>
<path style="fill:#bdb36b; stroke:none;" d="M318 148L319 149L318 148z"/>
<path style="fill:#fcfdfb; stroke:none;" d="M228.333 149.667L228.667 150.333L228.333 149.667z"/>
<path style="fill:#bdb36b; stroke:none;" d="M229 149L230 150L229 149M235 149L236 150L235 149M287.333 149.667L287.667 150.333L287.333 149.667M290 149L291 150L290 149M300 149L301 150L300 149M314 149L315 150L314 149z"/>
<path style="fill:#564726; stroke:none;" d="M317 149L318 150L317 149z"/>
<path style="fill:#bdb36b; stroke:none;" d="M319 149L323 155L321 154L321 155L323 156L325 153L322 152L322 151L325 149L322 151L321 151L319 149z"/>
<path style="fill:#fcfdfb; stroke:none;" d="M320 149L322 151L322 149L320 149z"/>
<path style="fill:#bdb36b; stroke:none;" d="M328 149L328 151L330 149L328 149M220 150L220 153L221 153L220 150z"/>
<path style="fill:#564726; stroke:none;" d="M231.667 150.333L232.333 150.667L231.667 150.333z"/>
<path style="fill:#bdb36b; stroke:none;" d="M234 150L235 151L234 150M289 150L290 151L289 150M297 150L298 151L297 150M301.333 150.667L301.667 151.333L301.333 150.667M315 150L316 151L315 150z"/>
<path style="fill:#564726; stroke:none;" d="M326 150L325 152L326 150M330.333 150.667L330.667 151.333L330.333 150.667z"/>
<path style="fill:#bdb36b; stroke:none;" d="M223 151L224 152L223 151z"/>
<path style="fill:#564726; stroke:none;" d="M230 151L231 152L230 151z"/>
<path style="fill:#bdb36b; stroke:none;" d="M233 151L230 154L233 151M265 155L264 155L263 152L262 152L263 156L278 155L277 151C273.046 151.748 265.946 150.587 265 155M282 153L279 152C279.829 155.867 282.813 155.165 286 154L282 153M288 151L289 152L288 151z"/>
<path style="fill:#fcfdfb; stroke:none;" d="M322 151L323 152L322 151z"/>
<path style="fill:#617c47; stroke:none;" d="M326 151L327 152L326 151z"/>
<path style="fill:#bdb36b; stroke:none;" d="M327 151L328 152L327 151M331 151L332 152L331 151z"/>
<path style="fill:#617c47; stroke:none;" d="M226.333 152.667L226.667 153.333L226.333 152.667z"/>
<path style="fill:#fcfdfb; stroke:none;" d="M283 152L284 153L283 152z"/>
<path style="fill:#bdb36b; stroke:none;" d="M298 152L299 153L298 152M317 152L320 154L320 153L317 152M326 152L327 153L326 152z"/>
<path style="fill:#564726; stroke:none;" d="M329 152L328 154L330 154L329 152M223 153L224 154L223 153z"/>
<path style="fill:#bdb36b; stroke:none;" d="M224 153L225 154L224 153z"/>
<path style="fill:#fcfdfb; stroke:none;" d="M227 155L230 154L227 155M272 153L273 154L272 153M275 153L276 154L275 153z"/>
<path style="fill:#bdb36b; stroke:none;" d="M302 153L303 154L302 153M221 154L222 155L221 154M225 154L227 156L227 154L225 154M228 154L229 155L228 154z"/>
<path style="fill:#564726; stroke:none;" d="M232 154L233 155L232 154z"/>
<path style="fill:#fcfdfb; stroke:none;" d="M322 154L323 155L322 154z"/>
<path style="fill:#bdb36b; stroke:none;" d="M325 154L326 155L325 154z"/>
<path style="fill:#564726; stroke:none;" d="M327 154L328 155L327 154z"/>
<path style="fill:#bdb36b; stroke:none;" d="M329 154L330 155L329 154z"/>
<path style="fill:#564726; stroke:none;" d="M224 155L224 160L225 160L224 155M231 155L232 156L231 155z"/>
<path style="fill:#bdb36b; stroke:none;" d="M299.333 155.667L299.667 156.333L299.333 155.667z"/>
<path style="fill:#fcfdfb; stroke:none;" d="M323 155L324 156L323 155z"/>
<path style="fill:#564726; stroke:none;" d="M326 155L327 156L326 155z"/>
<path style="fill:#bdb36b; stroke:none;" d="M222.333 156.667L222.667 157.333L222.333 156.667M231 156L232 157L231 156M303.333 156.667L303.667 157.333L303.333 156.667M318 156L319 157L318 156z"/>
<path style="fill:#564726; stroke:none;" d="M321.667 156.333L322.333 156.667L321.667 156.333z"/>
<path style="fill:#bdb36b; stroke:none;" d="M230 157L230 162L231 162L230 157M319.333 157.667L319.667 158.333L319.333 157.667z"/>
<path style="fill:#fcfdfb; stroke:none;" d="M325 157L325 160L326 160L325 157z"/>
<path style="fill:#bdb36b; stroke:none;" d="M326.333 157.667L326.667 158.333L326.333 157.667M216 158L217 159L216 158M226 158L226 161L227 161L228 158L226 158z"/>
<path style="fill:#564726; stroke:none;" d="M229.333 158.667L229.667 159.333L229.333 158.667z"/>
<path style="fill:#bdb36b; stroke:none;" d="M269 158L270 162L275 161L272 158L273 161L269 158M275 158L276 162L282 161L275 158M323 158L324 159L323 158z"/>
<path style="fill:#fcfdfb; stroke:none;" d="M226 159L227 160L226 159z"/>
<path style="fill:#bdb36b; stroke:none;" d="M300 159L300 166L301 166L300 159M317 159L318 160L317 159z"/>
<path style="fill:#fcfdfb; stroke:none;" d="M323 159L324 160L323 159z"/>
<path style="fill:#bdb36b; stroke:none;" d="M329 159L330 160L329 159z"/>
<path style="fill:#564726; stroke:none;" d="M228.333 160.667L228.667 161.333L228.333 160.667z"/>
<path style="fill:#bdb36b; stroke:none;" d="M323 160L323 161L326 162L323 160M332 160L332 163L333 163L332 160z"/>
<path style="fill:#564726; stroke:none;" d="M219 161L220 162L219 161z"/>
<path style="fill:#bdb36b; stroke:none;" d="M220 161L221 162L220 161z"/>
<path style="fill:#564726; stroke:none;" d="M225 161L226 162L225 161z"/>
<path style="fill:#bdb36b; stroke:none;" d="M304 161L304 165L305 165L304 161M320 161L320 165L321 165L320 161z"/>
<path style="fill:#617c47; stroke:none;" d="M331 161L332 162L331 161z"/>
<path style="fill:#bdb36b; stroke:none;" d="M217 162L218 163L217 162M221 162L222 163L221 162z"/>
<path style="fill:#564726; stroke:none;" d="M231 162L232 163L231 162M327.333 162.667L327.667 163.333L327.333 162.667z"/>
<path style="fill:#bdb36b; stroke:none;" d="M330 162L331 163L330 162z"/>
<path style="fill:#564726; stroke:none;" d="M331 162L332 163L331 162M220 163L222 165L220 163M228 163L227 167L228 167L228 163z"/>
<path style="fill:#bdb36b; stroke:none;" d="M329 163L330 164L329 163M264 165C265.677 169.168 269.337 169.769 272 166L273 166C276.191 170.426 287.913 167.562 293 168L292 164L283 166C280.676 161.724 268.404 165 264 165M317 164L317 167L318 167L317 164z"/>
<path style="fill:#564726; stroke:none;" d="M319 164L320 165L319 164z"/>
<path style="fill:#bdb36b; stroke:none;" d="M218 165L219 166L218 165z"/>
<path style="fill:#fcfdfb; stroke:none;" d="M279.333 165.667L279.667 166.333L279.333 165.667z"/>
<path style="fill:#bdb36b; stroke:none;" d="M321 165L323 168L321 165z"/>
<path style="fill:#564726; stroke:none;" d="M326 165L327 166L326 165M330 165L331 166L330 165z"/>
<path style="fill:#bdb36b; stroke:none;" d="M331 165L332 166L331 165z"/>
<path style="fill:#564726; stroke:none;" d="M230.333 166.667L230.667 167.333L230.333 166.667z"/>
<path style="fill:#bdb36b; stroke:none;" d="M231.333 166.667L231.667 167.333L231.333 166.667z"/>
<path style="fill:#fcfdfb; stroke:none;" d="M274 166L275 167L274 166z"/>
<path style="fill:#bdb36b; stroke:none;" d="M219 167L220 168L219 167M248 167L248 168L258 173L257 178L260 178L260 175L262 176C260.258 170.684 252.956 168.69 248 167z"/>
<path style="fill:#564726; stroke:none;" d="M325.667 167.333L326.333 167.667L325.667 167.333M329 167L330 168L329 167z"/>
<path style="fill:#bdb36b; stroke:none;" d="M330 167L331 168L330 167M215 168L216 172L217 172L215 168z"/>
<path style="fill:#564726; stroke:none;" d="M223 168L224 169L223 168z"/>
<path style="fill:#bdb36b; stroke:none;" d="M226.333 168.667L226.667 169.333L226.333 168.667z"/>
<path style="fill:#564726; stroke:none;" d="M229 168L228 172L229 172L229 168M321 168L322 169L321 168z"/>
<path style="fill:#fcfdfb; stroke:none;" d="M322.667 168.333L323.333 168.667L322.667 168.333z"/>
<path style="fill:#564726; stroke:none;" d="M328 168L327 170L328 168z"/>
<path style="fill:#617c47; stroke:none;" d="M216 169C217.601 173.666 220.152 176.019 225 177L216 169z"/>
<path style="fill:#bdb36b; stroke:none;" d="M232 169L230 172L232 173L233 173L232 169M299 169L300 170L299 169M318.333 169.667L318.667 170.333L318.333 169.667M322.667 169.333L323.333 169.667L322.667 169.333M325 169L326 177L325 177L322 173L322 178L329 174L326 175L325 169M329 169L330 170L329 169M218 170L219 171L218 170z"/>
<path style="fill:#564726; stroke:none;" d="M225.667 170.333L226.333 170.667L225.667 170.333z"/>
<path style="fill:#bdb36b; stroke:none;" d="M272 171L279 174L278 170L272 171M280 170L281 174C284.749 173.556 287.623 174.009 289 170L280 170M295 173L298 174L299 174L299 170L295 173M328 170L329 171L328 170M334 170L335 171L334 170M223.667 171.333L224.333 171.667L223.667 171.333z"/>
<path style="fill:#fcfdfb; stroke:none;" d="M287 171L288 172L287 171z"/>
<path style="fill:#bdb36b; stroke:none;" d="M304 171L304 175L305 175L304 171M319 171L320 172L319 171M323 171L324 172L323 171z"/>
<path style="fill:#617c47; stroke:none;" d="M325 179L329 179L333 175L334 174L335 172C330.57 171.636 327.413 175.648 325 179z"/>
<path style="fill:#564726; stroke:none;" d="M219 172L220 173L219 172z"/>
<path style="fill:#bdb36b; stroke:none;" d="M229 172L228 174L230 174L229 172z"/>
<path style="fill:#564726; stroke:none;" d="M231.333 172.667L231.667 173.333L231.333 172.667z"/>
<path style="fill:#bdb36b; stroke:none;" d="M263 172L264 173L263 172z"/>
<path style="fill:#fcfdfb; stroke:none;" d="M274 172L275 173L274 172z"/>
<path style="fill:#bdb36b; stroke:none;" d="M320.333 172.667L320.667 173.333L320.333 172.667z"/>
<path style="fill:#fcfdfb; stroke:none;" d="M323 172L324 173L323 172z"/>
<path style="fill:#bdb36b; stroke:none;" d="M331 172L332 173L331 172z"/>
<path style="fill:#564726; stroke:none;" d="M333 172L334 173L333 172z"/>
<path style="fill:#bdb36b; stroke:none;" d="M334 172L335 173L334 172M217 173L218 174L217 173M222 173L223 174L222 173z"/>
<path style="fill:#564726; stroke:none;" d="M226 173L227 174L226 173z"/>
<path style="fill:#bdb36b; stroke:none;" d="M318 173L318 176L319 176L318 173z"/>
<path style="fill:#fcfdfb; stroke:none;" d="M321 173L322 174L321 173z"/>
<path style="fill:#564726; stroke:none;" d="M332 173L333 174L332 173z"/>
<path style="fill:#bdb36b; stroke:none;" d="M218 174L219 175L218 174M223 174L224 175L223 174M226 174L225 175L228 177L226 174z"/>
<path style="fill:#fcfdfb; stroke:none;" d="M227.333 174.667L227.667 175.333L227.333 174.667M322 174L322 177L323 177L322 174z"/>
<path style="fill:#617c47; stroke:none;" d="M326 174L327 175L326 174z"/>
<path style="fill:#564726; stroke:none;" d="M331 174L329 177L331 174z"/>
<path style="fill:#bdb36b; stroke:none;" d="M219 175L220 176L219 175z"/>
<path style="fill:#564726; stroke:none;" d="M230 175L231 176L230 175z"/>
<path style="fill:#bdb36b; stroke:none;" d="M231 175L232 176L231 175M263 179L261 178L243 194L245 192L246 192L248 194L248 195L246 201L247 201L252 194L255 187C251.539 177.664 269.891 184.529 273 188C266.556 191.004 262.949 197.665 256.88 201.09C252.22 203.719 248.876 201.399 247 208L246 208L245 206L243 209C245.782 208.804 247.641 208.979 248 212L256 207L258 208L259 207L259 202L261 203C263.601 199.308 270.622 189.641 275.999 191.192C280.325 192.44 283.48 198.308 287 201L287 202L285 204L289 202L279 213L287 208L290 204L289 208L294 209L295 214L291 216L301 214L300 211L308 211L308 210L298 211L298 206L297 206L298 209L295 207L295 206L297 204L293 205L295 201L290 202L289 201L290 198L277 188L277 187C284.995 181.561 288.464 179.335 297 185L297 181L295 183L298 178L293 181L295 175C287.845 175.178 267.59 173.748 263 179M297 175L298 176L297 175z"/>
<path style="fill:#fcfdfb; stroke:none;" d="M325.333 175.667L325.667 176.333L325.333 175.667z"/>
<path style="fill:#bdb36b; stroke:none;" d="M332 175L333 176L332 175M221 176L222 177L221 176z"/>
<path style="fill:#fcfdfb; stroke:none;" d="M225 176L226 177L225 176z"/>
<path style="fill:#564726; stroke:none;" d="M229 176L230 177L229 176z"/>
<path style="fill:#bdb36b; stroke:none;" d="M298 176L299 177L298 176M316 176L317 177L316 176M331 176L332 177L331 176M225.333 177.667L225.667 178.333L225.333 177.667M232.667 177.333L233.333 177.667L232.667 177.333M296 177L297 178L296 177M315.333 177.667L315.667 178.333L315.333 177.667z"/>
<path style="fill:#564726; stroke:none;" d="M328 177L329 178L328 177z"/>
<path style="fill:#bdb36b; stroke:none;" d="M330 177L331 178L330 177M220 178L221 179L220 178M231.333 178.667L231.667 179.333L231.333 178.667M303.333 178.667L303.667 179.333L303.333 178.667z"/>
<path style="fill:#fcfdfb; stroke:none;" d="M324 178L325 179L324 178z"/>
<path style="fill:#564726; stroke:none;" d="M326.667 178.333L327.333 178.667L326.667 178.333z"/>
<path style="fill:#bdb36b; stroke:none;" d="M219 179L220 180L219 179M221 179L222 180L221 179M226 179L226 182L227 182L226 179M228.333 179.667L228.667 180.333L228.333 179.667z"/>
<path style="fill:#564726; stroke:none;" d="M230.333 179.667L230.667 180.333L230.333 179.667z"/>
<path style="fill:#bdb36b; stroke:none;" d="M317 179L317 182L319 182L319 179L317 179z"/>
<path style="fill:#564726; stroke:none;" d="M321 179L322 180L321 179z"/>
<path style="fill:#bdb36b; stroke:none;" d="M323 182L324 182L325 182L324 180L328 180L323 182z"/>
<path style="fill:#fcfdfb; stroke:none;" d="M328 179L329 180L328 179z"/>
<path style="fill:#bdb36b; stroke:none;" d="M329 179L330 180L329 179M215 182L218 181L215 182z"/>
<path style="fill:#564726; stroke:none;" d="M221 180L222 181L221 180z"/>
<path style="fill:#bdb36b; stroke:none;" d="M223.667 180.333L224.333 180.667L223.667 180.333z"/>
<path style="fill:#fcfdfb; stroke:none;" d="M225 180L226 181L225 180z"/>
<path style="fill:#bdb36b; stroke:none;" d="M234 180L235 181L234 180z"/>
<path style="fill:#617c47; stroke:none;" d="M289 180L290 183L291 183L290 181L293 182L289 180M295 180L294 182L295 180z"/>
<path style="fill:#fcfdfb; stroke:none;" d="M296 180L297 181L296 180z"/>
<path style="fill:#bdb36b; stroke:none;" d="M298.333 180.667L298.667 181.333L298.333 180.667M314 180L314 183L315 183L314 180z"/>
<path style="fill:#fcfdfb; stroke:none;" d="M324.667 180.333L325.333 180.667L324.667 180.333z"/>
<path style="fill:#bdb36b; stroke:none;" d="M334 180L335 181L334 180z"/>
<path style="fill:#564726; stroke:none;" d="M218.667 181.333L219.333 181.667L218.667 181.333M223 181L224 182L223 181z"/>
<path style="fill:#617c47; stroke:none;" d="M256 181L257 182L256 181z"/>
<path style="fill:#fcfdfb; stroke:none;" d="M272 182C274.828 184.632 276.914 184.259 279 181L272 182M277 187L277 188L288 199C299.951 188.83 288.825 175.822 277 187z"/>
<path style="fill:#564726; stroke:none;" d="M290 181L295 187L296 186L290 181z"/>
<path style="fill:#fcfdfb; stroke:none;" d="M295.333 181.667L295.667 182.333L295.333 181.667z"/>
<path style="fill:#564726; stroke:none;" d="M316 181L317 182L316 181z"/>
<path style="fill:#bdb36b; stroke:none;" d="M333 181L334 182L333 181M217 182L218 183L217 182z"/>
<path style="fill:#564726; stroke:none;" d="M224 182L224 183L226 185L227 185L224 182M230 182L231 185L232 185L232 182L230 182M233 182L234 183L233 182z"/>
<path style="fill:#617c47; stroke:none;" d="M254 182L253 184L254 182z"/>
<path style="fill:#564726; stroke:none;" d="M253 185L254 186L258 182L253 185z"/>
<path style="fill:#fcfdfb; stroke:none;" d="M252 194L248 195L250 202L256 203L255 198C262.056 200.851 267.661 191.757 273 188C267.084 178.694 250.99 181.949 252 194z"/>
<path style="fill:#bdb36b; stroke:none;" d="M302 182L303 183L302 182z"/>
<path style="fill:#564726; stroke:none;" d="M328 182L327 184L328 182z"/>
<path style="fill:#bdb36b; stroke:none;" d="M331 182L332 183L331 182M220 183L221 184L220 183z"/>
<path style="fill:#617c47; stroke:none;" d="M257 183L258 184L257 183z"/>
<path style="fill:#564726; stroke:none;" d="M321 183L320 186L321 186L321 183z"/>
<path style="fill:#bdb36b; stroke:none;" d="M328 183L329 184L328 183M222 184L223 185L222 184z"/>
<path style="fill:#564726; stroke:none;" d="M233.667 184.333L234.333 184.667L233.667 184.333z"/>
<path style="fill:#bdb36b; stroke:none;" d="M235.667 184.333L236.333 184.667L235.667 184.333M256 184L257 185L256 184M291 184L292 185L291 184M301.333 184.667L301.667 185.333L301.333 184.667M312 184L313 187L314 187L314 184L312 184z"/>
<path style="fill:#617c47; stroke:none;" d="M321.333 184.667L321.667 185.333L321.333 184.667z"/>
<path style="fill:#bdb36b; stroke:none;" d="M322 184L322 186L324 184L322 184z"/>
<path style="fill:#564726; stroke:none;" d="M325.667 184.333L326.333 184.667L325.667 184.333z"/>
<path style="fill:#bdb36b; stroke:none;" d="M223 185L224 186L223 185M228 185L230 188L228 185z"/>
<path style="fill:#617c47; stroke:none;" d="M253 185L254 186L253 185M255 185L256 186L255 185z"/>
<path style="fill:#bdb36b; stroke:none;" d="M292 185L293 186L292 185M318 185L319 186L318 185M224 186L225 187L224 186M231 186L232 187L231 186z"/>
<path style="fill:#564726; stroke:none;" d="M233 186L234 187L233 186M236 186L237 187L236 186z"/>
<path style="fill:#bdb36b; stroke:none;" d="M237 186L238 187L237 186z"/>
<path style="fill:#617c47; stroke:none;" d="M293 186L294 187L293 186z"/>
<path style="fill:#bdb36b; stroke:none;" d="M311.333 186.667L311.667 187.333L311.333 186.667z"/>
<path style="fill:#fcfdfb; stroke:none;" d="M318 186L318 189L319 189L318 186z"/>
<path style="fill:#bdb36b; stroke:none;" d="M321 186L322 187L321 186z"/>
<path style="fill:#564726; stroke:none;" d="M324 186L323 188L324 186z"/>
<path style="fill:#bdb36b; stroke:none;" d="M226 187L227 188L226 187z"/>
<path style="fill:#fcfdfb; stroke:none;" d="M231 187L232 188L231 187z"/>
<path style="fill:#bdb36b; stroke:none;" d="M235 187L232 189L235 196L236 196L234 191L234 190L235 187z"/>
<path style="fill:#617c47; stroke:none;" d="M275 187L276 188L275 187z"/>
<path style="fill:#bdb36b; stroke:none;" d="M294.667 187.333L295.333 187.667L294.667 187.333M300 187L296 195L301 199L302 199L302 193L306 194L306 193L300 187M319 187L320 188L319 187M325 187L326 188L325 187M218 188L220 190L218 188z"/>
<path style="fill:#617c47; stroke:none;" d="M219 188L219 189L231 193L219 188z"/>
<path style="fill:#bdb36b; stroke:none;" d="M223.667 188.333L224.333 188.667L223.667 188.333M231 188L232 189L231 188z"/>
<path style="fill:#564726; stroke:none;" d="M233 188L234 189L233 188z"/>
<path style="fill:#bdb36b; stroke:none;" d="M314.333 188.667L314.667 189.333L314.333 188.667z"/>
<path style="fill:#564726; stroke:none;" d="M321.667 188.333L322.333 188.667L321.667 188.333z"/>
<path style="fill:#bdb36b; stroke:none;" d="M227 189L228 190L227 189M230 189C229.634 191.938 229.874 193.504 233 194L230 189z"/>
<path style="fill:#617c47; stroke:none;" d="M233 189L234 190L233 189z"/>
<path style="fill:#fcfdfb; stroke:none;" d="M265 214L262 213L262 214C273.345 218.248 280.186 210.366 287 202C284.523 198.256 280.638 191.559 275.999 190.342C271.41 189.137 262.616 197.803 261.878 202C261.236 205.654 264.607 210.181 265 214z"/>
<path style="fill:#bdb36b; stroke:none;" d="M318 189L319 190L318 189M329 189L329 190L333 191L329 189M221 190L222 191L221 190z"/>
<path style="fill:#fcfdfb; stroke:none;" d="M234 190L235 191L234 190z"/>
<path style="fill:#617c47; stroke:none;" d="M235 190L236 191L235 190z"/>
<path style="fill:#564726; stroke:none;" d="M236 190L237 191L236 190z"/>
<path style="fill:#bdb36b; stroke:none;" d="M238 190L238 193L239 193L238 190M240 190L241 191L240 190M294 190L295 191L294 190M310.333 190.667L310.667 191.333L310.333 190.667z"/>
<path style="fill:#fcfdfb; stroke:none;" d="M314 190L317 193L314 190z"/>
<path style="fill:#bdb36b; stroke:none;" d="M317 190L318 191L317 190M319 190L320 191L319 190M324.667 190.333L325.333 190.667L324.667 190.333z"/>
<path style="fill:#617c47; stroke:none;" d="M320 194L329 193L332 191C327.91 189.332 322.572 190.313 320 194z"/>
<path style="fill:#bdb36b; stroke:none;" d="M223 191L224 192L223 191z"/>
<path style="fill:#564726; stroke:none;" d="M237 191L238 192L237 191z"/>
<path style="fill:#bdb36b; stroke:none;" d="M241 191L242 192L241 191M307 191L307 197L308 197L307 191M321 191L322 192L321 191z"/>
<path style="fill:#564726; stroke:none;" d="M328.667 191.333L329.333 191.667L328.667 191.333z"/>
<path style="fill:#bdb36b; stroke:none;" d="M330 191L331 192L330 191M227 192L228 193L227 192z"/>
<path style="fill:#564726; stroke:none;" d="M245 192L239 196L235 199C233.931 208.143 229.816 212.226 243 212L243 211L234 210L234 209L243 207C242.47 204.351 242.572 203.393 245 204L245 192z"/>
<path style="fill:#fcfdfb; stroke:none;" d="M250 192L249 194L251 194L250 192z"/>
<path style="fill:#bdb36b; stroke:none;" d="M293 192L294 193L293 192z"/>
<path style="fill:#617c47; stroke:none;" d="M306 192L305 196L306 196L306 192z"/>
<path style="fill:#bdb36b; stroke:none;" d="M314 192L314 197L315 197L316 192L314 192M318 192L319 195L317 194L318 197L315 199L321 195L323 197L325 194L318 192z"/>
<path style="fill:#564726; stroke:none;" d="M322 193L322 194L328 193L322 193z"/>
<path style="fill:#bdb36b; stroke:none;" d="M329 192L330 193L329 192z"/>
<path style="fill:#fcfdfb; stroke:none;" d="M234 193L235 194L234 193z"/>
<path style="fill:#bdb36b; stroke:none;" d="M240 193L241 196L240 193M292 193L293 194L292 193z"/>
<path style="fill:#fcfdfb; stroke:none;" d="M298.333 193.667L298.667 194.333L298.333 193.667z"/>
<path style="fill:#617c47; stroke:none;" d="M302 193L301 195L302 193z"/>
<path style="fill:#bdb36b; stroke:none;" d="M309 193L310 194L309 193M316 193L317 194L316 193z"/>
<path style="fill:#fcfdfb; stroke:none;" d="M318 193L319 194L318 193z"/>
<path style="fill:#617c47; stroke:none;" d="M324.667 193.333L325.333 193.667L324.667 193.333z"/>
<path style="fill:#bdb36b; stroke:none;" d="M326.667 193.333L327.333 193.667L326.667 193.333z"/>
<path style="fill:#564726; stroke:none;" d="M238 194L239 195L238 194z"/>
<path style="fill:#617c47; stroke:none;" d="M247 194L248 195L247 194z"/>
<path style="fill:#564726; stroke:none;" d="M301 195L301 206L302 206L303 203L304 203C305.628 208.365 308.401 210.623 314 211L314 212L311 215L316 207L319 206L319 205C317.003 205.176 311.985 204.831 314 202L314 201L310 201L307 195L301 195z"/>
<path style="fill:#fcfdfb; stroke:none;" d="M314.333 194.667L314.667 195.333L314.333 194.667z"/>
<path style="fill:#bdb36b; stroke:none;" d="M228.667 195.333L229.333 195.667L228.667 195.333M233 195L234 196L233 195M291 195L292 196L291 195z"/>
<path style="fill:#fcfdfb; stroke:none;" d="M296 195L293 202L297 199L301 200L301 196L296 195M311 195L311 200L312 200L314 198L311 195M320 195L321 196L320 195z"/>
<path style="fill:#617c47; stroke:none;" d="M322 195L323 196L322 195z"/>
<path style="fill:#bdb36b; stroke:none;" d="M227 196L228 197L227 196M231 196L232 197L231 196M234 196L233 198L234 196M236 196L238 199L238 196L236 196z"/>
<path style="fill:#617c47; stroke:none;" d="M247 196L248 197L247 196z"/>
<path style="fill:#bdb36b; stroke:none;" d="M295 196L296 197L295 196z"/>
<path style="fill:#fcfdfb; stroke:none;" d="M316.667 196.333L317.333 196.667L316.667 196.333z"/>
<path style="fill:#564726; stroke:none;" d="M321 196L322 197L321 196z"/>
<path style="fill:#bdb36b; stroke:none;" d="M228 197L229 198L228 197z"/>
<path style="fill:#fcfdfb; stroke:none;" d="M234 197L235 198L234 197z"/>
<path style="fill:#564726; stroke:none;" d="M247.333 197.667L247.667 198.333L247.333 197.667z"/>
<path style="fill:#bdb36b; stroke:none;" d="M248 197L249 198L248 197M294 197L295 198L294 197M312.333 197.667L312.667 198.333L312.333 197.667z"/>
<path style="fill:#564726; stroke:none;" d="M320 197L318 198L318 199L320 197z"/>
<path style="fill:#bdb36b; stroke:none;" d="M229 198L230 199L229 198M235 198L236 199L235 198z"/>
<path style="fill:#617c47; stroke:none;" d="M245 198L245 204C242.563 203.972 242.697 204.556 243 207L234 209L234 210L243 211L243 212L239 212L239 213L245 213L244 210L247 211L247 213L244 214L244 215L249 215L249 216L242 221L249 220L249 219L247 218L252 217L252 218L250 222L247 222L247 223L254 222L255 221L256 221L258 218L257 220L258 220L259 216C256.05 216.983 255.378 217.487 256 215L252 217L256 211L259 212L257 215L266 216L266 215L260 212L264 214L264 208L259 204L262 205L259 202L259 207L256 207L255 212L248 212C247.63 209.017 245.916 209.137 243 209L249 202L247 205C249.326 202.581 249.66 200.981 248 198L248 201L245 198z"/>
<path style="fill:#bdb36b; stroke:none;" d="M255 198L255 201L256 201L255 198M310.333 198.667L310.667 199.333L310.333 198.667M320 198L321 199L320 198M230 199L231 200L230 199M249.333 199.667L249.667 200.333L249.333 199.667z"/>
<path style="fill:#617c47; stroke:none;" d="M256 199L258 202L256 199z"/>
<path style="fill:#bdb36b; stroke:none;" d="M293 199L294 200L293 199M296 199L296 203L299 201L299 206L300 206L301 200L296 199z"/>
<path style="fill:#617c47; stroke:none;" d="M301 199L298 210L298 211L306 209L304 203L303 203L302 206L301 206L301 199z"/>
<path style="fill:#564726; stroke:none;" d="M317 199L318 200L317 199z"/>
<path style="fill:#bdb36b; stroke:none;" d="M319 199L320 200L319 199M232 200L233 201L232 200z"/>
<path style="fill:#564726; stroke:none;" d="M247 200L248 201L247 200z"/>
<path style="fill:#617c47; stroke:none;" d="M295 200L296 201L295 200z"/>
<path style="fill:#564726; stroke:none;" d="M314 200L314 201L317 201L314 200z"/>
<path style="fill:#bdb36b; stroke:none;" d="M318 200L319 201L318 200M233 201L234 202L233 201z"/>
<path style="fill:#564726; stroke:none;" d="M295 201L296 202L295 201z"/>
<path style="fill:#617c47; stroke:none;" d="M298 201L293 205L294 205C295.4 202.2 296.45 204.2 296 206L298 201z"/>
<path style="fill:#bdb36b; stroke:none;" d="M316 201L317 202L316 201M234 202L235 203L234 202M246.333 202.667L246.667 203.333L246.333 202.667z"/>
<path style="fill:#564726; stroke:none;" d="M247 202L247 204L249 202L247 202z"/>
<path style="fill:#617c47; stroke:none;" d="M284 207L289 202L284 207z"/>
<path style="fill:#fcfdfb; stroke:none;" d="M292 202L293 203L292 202z"/>
<path style="fill:#564726; stroke:none;" d="M298 202L299 203L298 202z"/>
<path style="fill:#bdb36b; stroke:none;" d="M312 202L312 203L315 203L312 202z"/>
<path style="fill:#617c47; stroke:none;" d="M230 203L230 204L234 204L230 203z"/>
<path style="fill:#fcfdfb; stroke:none;" d="M251 203L253 206L251 203z"/>
<path style="fill:#564726; stroke:none;" d="M294 203L295 204L294 203z"/>
<path style="fill:#bdb36b; stroke:none;" d="M320 203L322 205L320 203z"/>
<path style="fill:#fcfdfb; stroke:none;" d="M246 204L247 207L246 204z"/>
<path style="fill:#617c47; stroke:none;" d="M249 204L249 210L250 210L251 204L249 204z"/>
<path style="fill:#564726; stroke:none;" d="M259 204L263 209L259 204z"/>
<path style="fill:#617c47; stroke:none;" d="M288 204L280 222L281 222L287 216L287 215L284 215L286 211L290 213L290 214L288 215L290 217L291 217L295 214L294 211L291 212L292 209L289 208L290 204L288 204M313 204L314 205L313 204z"/>
<path style="fill:#bdb36b; stroke:none;" d="M314.667 204.333L315.333 204.667L314.667 204.333z"/>
<path style="fill:#617c47; stroke:none;" d="M315 205L315 206L321 205L315 205z"/>
<path style="fill:#bdb36b; stroke:none;" d="M231 205L232 206L231 205M262 205L263 206L262 205z"/>
<path style="fill:#fcfdfb; stroke:none;" d="M298.333 205.667L298.667 206.333L298.333 205.667z"/>
<path style="fill:#564726; stroke:none;" d="M249 206L249 209L250 209L249 206z"/>
<path style="fill:#617c47; stroke:none;" d="M262 206L263 207L262 206z"/>
<path style="fill:#fcfdfb; stroke:none;" d="M286 206L287 207L286 206z"/>
<path style="fill:#564726; stroke:none;" d="M295.667 206.333L296.333 206.667L295.667 206.333z"/>
<path style="fill:#bdb36b; stroke:none;" d="M303 206L302 208L303 206M318 206L319 207L318 206M230 207L231 208L230 207z"/>
<path style="fill:#617c47; stroke:none;" d="M246 207L247 208L246 207z"/>
<path style="fill:#bdb36b; stroke:none;" d="M263 207L264 208L263 207z"/>
<path style="fill:#617c47; stroke:none;" d="M283 207L280 211L283 207z"/>
<path style="fill:#fcfdfb; stroke:none;" d="M285 207L274 218C279.517 216.716 285.626 213.602 285 207z"/>
<path style="fill:#617c47; stroke:none;" d="M296 207L297 208L296 207z"/>
<path style="fill:#fcfdfb; stroke:none;" d="M297.333 207.667L297.667 208.333L297.333 207.667z"/>
<path style="fill:#617c47; stroke:none;" d="M316 207L317 208L316 207z"/>
<path style="fill:#bdb36b; stroke:none;" d="M231 208L232 209L231 208z"/>
<path style="fill:#fcfdfb; stroke:none;" d="M245 208L246 209L245 208z"/>
<path style="fill:#564726; stroke:none;" d="M258 208L261 211L258 208z"/>
<path style="fill:#bdb36b; stroke:none;" d="M303.667 208.333L304.333 208.667L303.667 208.333z"/>
<path style="fill:#fcfdfb; stroke:none;" d="M253 211L256 209L253 211z"/>
<path style="fill:#564726; stroke:none;" d="M263 209L263 213L264 213L263 209z"/>
<path style="fill:#bdb36b; stroke:none;" d="M264 209L264 214L265 214L264 209M285 209L286 210L285 209z"/>
<path style="fill:#564726; stroke:none;" d="M289 209L288 212L289 209M292 209L291 212C293.158 211.022 293.501 210.812 292 209z"/>
<path style="fill:#617c47; stroke:none;" d="M293 209L294 210L293 209z"/>
<path style="fill:#564726; stroke:none;" d="M299 209L300 210L299 209z"/>
<path style="fill:#fcfdfb; stroke:none;" d="M302 209L302 210L306 210L302 209z"/>
<path style="fill:#617c47; stroke:none;" d="M307 209L308 210L307 209z"/>
<path style="fill:#bdb36b; stroke:none;" d="M232 210L233 211L232 210z"/>
<path style="fill:#564726; stroke:none;" d="M244 210L247 212L247 211L244 210M247 210L248 211L247 210z"/>
<path style="fill:#bdb36b; stroke:none;" d="M284 210L285 211L284 210z"/>
<path style="fill:#617c47; stroke:none;" d="M300 211L301 214L293 215L293 217L298 218L298 220L300 219L305 222L302 218L308 219L308 218L304 216L304 215L308 215L308 214L303 215C305.76 212.633 307.732 212.379 311 214L314 212L300 211z"/>
<path style="fill:#bdb36b; stroke:none;" d="M316 210L317 211L316 210M233 211L234 212L233 211M254 211L255 212L254 211M256 211L256 217L257 217L258 217L259 212L256 211z"/>
<path style="fill:#fcfdfb; stroke:none;" d="M257 211L258 212L257 211z"/>
<path style="fill:#617c47; stroke:none;" d="M273 215L273 216L280 211L273 215z"/>
<path style="fill:#bdb36b; stroke:none;" d="M286 211L284 215L286 211z"/>
<path style="fill:#617c47; stroke:none;" d="M315 211L314 213L315 211z"/>
<path style="fill:#bdb36b; stroke:none;" d="M234 212L235 213L234 212z"/>
<path style="fill:#617c47; stroke:none;" d="M236 212L237 213L236 212z"/>
<path style="fill:#bdb36b; stroke:none;" d="M237.667 212.333L238.333 212.667L237.667 212.333M245 212L245 214L247 212L245 212z"/>
<path style="fill:#564726; stroke:none;" d="M260 212L261 213L260 212z"/>
<path style="fill:#bdb36b; stroke:none;" d="M261.333 212.667L261.667 213.333L261.333 212.667M276 212L277 213L276 212M283 212L284 213L283 212z"/>
<path style="fill:#564726; stroke:none;" d="M301 212L302 213L301 212M303 213L303 214L310 214L310 212L303 213z"/>
<path style="fill:#bdb36b; stroke:none;" d="M315 212L316 213L315 212M235 213L236 214L235 213z"/>
<path style="fill:#564726; stroke:none;" d="M251 213L252 214L251 213M255 213L252 217L255 213z"/>
<path style="fill:#bdb36b; stroke:none;" d="M275 213L276 214L275 213z"/>
<path style="fill:#fcfdfb; stroke:none;" d="M286 215L289 213L286 215z"/>
<path style="fill:#bdb36b; stroke:none;" d="M289 213L290 214L289 213z"/>
<path style="fill:#617c47; stroke:none;" d="M313 213L314 214L313 213z"/>
<path style="fill:#bdb36b; stroke:none;" d="M243 214L244 215L243 214M258.667 214.333L259.333 214.667L258.667 214.333M262 214L263 215L262 214M274 214L275 215L274 214M276 214L277 215L276 214M282 214L283 215L282 214M303 214L304 215L303 214M308 214L308 215L311 215L308 214z"/>
<path style="fill:#617c47; stroke:none;" d="M312 214L313 215L312 214z"/>
<path style="fill:#bdb36b; stroke:none;" d="M248 215L249 216L248 215z"/>
<path style="fill:#fcfdfb; stroke:none;" d="M256 215L257 216L256 215z"/>
<path style="fill:#bdb36b; stroke:none;" d="M261 215L262 216L261 215M266 215L266 217L268 217L266 215M269 218L273 217L273 221L274 221L273 215L269 218M283 216L283 217L289 216L294 220L294 219L290 215L283 216z"/>
<path style="fill:#564726; stroke:none;" d="M296 215L297 216L296 215z"/>
<path style="fill:#bdb36b; stroke:none;" d="M304 215L305 216L304 215M246 216L247 217L246 216z"/>
<path style="fill:#fcfdfb; stroke:none;" d="M255 216L256 217L255 216z"/>
<path style="fill:#bdb36b; stroke:none;" d="M259.333 216.667L259.667 217.333L259.333 216.667z"/>
<path style="fill:#617c47; stroke:none;" d="M268 216L269 217L268 216z"/>
<path style="fill:#bdb36b; stroke:none;" d="M279 216L279 218L281 218L281 216L279 216z"/>
<path style="fill:#fcfdfb; stroke:none;" d="M287.667 216.333L288.333 216.667L287.667 216.333z"/>
<path style="fill:#bdb36b; stroke:none;" d="M305 216L306 217L305 216M244 217L245 218L244 217z"/>
<path style="fill:#564726; stroke:none;" d="M247 218L247 219L252 218L247 218z"/>
<path style="fill:#bdb36b; stroke:none;" d="M254 217L255 218L254 217z"/>
<path style="fill:#564726; stroke:none;" d="M258 217L259 218L258 217z"/>
<path style="fill:#617c47; stroke:none;" d="M270 217L270 218L273 218L270 217z"/>
<path style="fill:#bdb36b; stroke:none;" d="M276 217L278 221L279 221L276 217z"/>
<path style="fill:#617c47; stroke:none;" d="M278 217L279 218L278 217M286.667 217.333L287.333 217.667L286.667 217.333z"/>
<path style="fill:#bdb36b; stroke:none;" d="M294 217L295 218L294 217z"/>
<path style="fill:#564726; stroke:none;" d="M301 217L302 218L301 217z"/>
<path style="fill:#bdb36b; stroke:none;" d="M243 218L244 219L243 218z"/>
<path style="fill:#564726; stroke:none;" d="M256 218L256 220L258 218L256 218z"/>
<path style="fill:#617c47; stroke:none;" d="M273 219L273 220L277 220L273 219z"/>
<path style="fill:#bdb36b; stroke:none;" d="M282 218L283 219L282 218M286 218L287 219L286 218z"/>
<path style="fill:#564726; stroke:none;" d="M287 218L287 219L290 220L287 218z"/>
<path style="fill:#617c47; stroke:none;" d="M289 218L290 220L287 219L287 220L294 221L293 223L296 222L296 221L289 218z"/>
<path style="fill:#bdb36b; stroke:none;" d="M295 218L296 219L295 218z"/>
<path style="fill:#564726; stroke:none;" d="M297 218L298 219L297 218z"/>
<path style="fill:#bdb36b; stroke:none;" d="M302 218L304 220L304 218L302 218z"/>
<path style="fill:#564726; stroke:none;" d="M244 219L244 220L247 220L244 219z"/>
<path style="fill:#bdb36b; stroke:none;" d="M249 219L249 221L251 219L249 219z"/>
<path style="fill:#564726; stroke:none;" d="M254 219L253 221L255 221L254 219z"/>
<path style="fill:#bdb36b; stroke:none;" d="M275 219L276 220L275 219M280 219L281 220L280 219M297 219L298 220L297 219z"/>
<path style="fill:#564726; stroke:none;" d="M299 219L300 220L299 219z"/>
<path style="fill:#bdb36b; stroke:none;" d="M241 220L242 221L241 220M243 220L243 221L246 221L243 220M256 220L257 221L256 220z"/>
<path style="fill:#617c47; stroke:none;" d="M272 220L273 221L272 220M277 220L278 221L277 220z"/>
<path style="fill:#bdb36b; stroke:none;" d="M281 220L282 221L281 220z"/>
<path style="fill:#564726; stroke:none;" d="M291 220L292 221L291 220z"/>
<path style="fill:#bdb36b; stroke:none;" d="M295 220L296 221L295 220M299 220L300 221L299 220M304 220L305 221L304 220M247 221L248 222L247 221z"/>
<path style="fill:#564726; stroke:none;" d="M249 221L250 222L249 221z"/>
<path style="fill:#bdb36b; stroke:none;" d="M254 221L255 222L254 221M289 221L290 222L289 221z"/>
<path style="fill:#564726; stroke:none;" d="M292.667 221.333L293.333 221.667L292.667 221.333z"/>
<path style="fill:#bdb36b; stroke:none;" d="M296 221L297 222L296 221M301.667 221.333L302.333 221.667L301.667 221.333M246 222L247 223L246 222M250.667 222.333L251.333 222.667L250.667 222.333M279.667 222.333L280.333 222.667L279.667 222.333M291.667 222.333L292.333 222.667L291.667 222.333z"/>
<path style="fill:#564726; stroke:none;" d="M295.667 222.333L296.333 222.667L295.667 222.333z"/>
<path style="fill:#617c47; stroke:none;" d="M297 222L298 223L297 222z"/>
<path style="fill:#bdb36b; stroke:none;" d="M298 222L296 223L296 224L298 222z"/>
</svg>
