<?xml version="1.0" standalone="yes"?>
<svg xmlns="http://www.w3.org/2000/svg" width="550" height="275">
<path style="fill:#0173ce; stroke:none;" d="M0 0L0 91L550 91L550 0L0 0z"/>
<path style="fill:#629ecb; stroke:none;" d="M0 91L0 92L550 92C537.593 86.7937 515.515 91 502 91L390 91L0 91z"/>
<path style="fill:#feffff; stroke:none;" d="M0 92L0 183L550 183L550 92L0 92z"/>
<path style="fill:#a2cfed; stroke:none;" d="M198 98L200 100L198 98M351 98L350 101L351 101L351 98z"/>
<path style="fill:#5587ac; stroke:none;" d="M198 99L199 100L198 99M351 99L352 100L351 99z"/>
<path style="fill:#a2cfed; stroke:none;" d="M197 100L198 101L197 100z"/>
<path style="fill:#0173ce; stroke:none;" d="M198 100L196 109L187 109C191.235 114.347 192.539 116.161 191 123L198 118L199 118L206 123C204.515 116.401 206.045 114.687 209 109C201.896 108.769 201.719 104.964 198 100z"/>
<path style="fill:#629ecb; stroke:none;" d="M199 100L200 101L199 100z"/>
<path style="fill:#0173ce; stroke:none;" d="M351 100C349.092 106.512 346.939 108.918 340 109C344.16 114.269 345.367 116.26 344 123C350.513 119.855 352.417 120.533 359 123C357.461 116.161 358.765 114.347 363 109C355.439 108.911 354.651 105.764 351 100z"/>
<path style="fill:#a2cfed; stroke:none;" d="M352 100L353 101L352 100z"/>
<path style="fill:#629ecb; stroke:none;" d="M197 101L198 102L197 101z"/>
<path style="fill:#5587ac; stroke:none;" d="M199 101L200 102L199 101M350 101L351 102L350 101z"/>
<path style="fill:#629ecb; stroke:none;" d="M352 101L353 102L352 101z"/>
<path style="fill:#5587ac; stroke:none;" d="M197 102L198 103L197 102z"/>
<path style="fill:#a2cfed; stroke:none;" d="M200.333 102.667L200.667 103.333L200.333 102.667M349.333 102.667L349.667 103.333L349.333 102.667z"/>
<path style="fill:#5587ac; stroke:none;" d="M352 102L353 103L352 102z"/>
<path style="fill:#a2cfed; stroke:none;" d="M196 103L197 104L196 103M353 103L354 104L353 103z"/>
<path style="fill:#629ecb; stroke:none;" d="M196 104L197 105L196 104z"/>
<path style="fill:#5587ac; stroke:none;" d="M200 104L201 105L200 104M349.333 104.667L349.667 105.333L349.333 104.667z"/>
<path style="fill:#629ecb; stroke:none;" d="M353 104L354 105L353 104z"/>
<path style="fill:#5587ac; stroke:none;" d="M196 105L197 106L196 105z"/>
<path style="fill:#a2cfed; stroke:none;" d="M201.333 105.667L201.667 106.333L201.333 105.667M348.333 105.667L348.667 106.333L348.333 105.667z"/>
<path style="fill:#5587ac; stroke:none;" d="M353 105L354 106L353 105z"/>
<path style="fill:#a2cfed; stroke:none;" d="M195 106L196 107L195 106M354 106L355 107L354 106z"/>
<path style="fill:#629ecb; stroke:none;" d="M195 107L185 108L185 109L196 108L195 107M201 107L202 108L201 107M348 107L349 108L348 107M354 107L355 108L354 107z"/>
<path style="fill:#a2cfed; stroke:none;" d="M184 108L185 109L184 108z"/>
<path style="fill:#5587ac; stroke:none;" d="M195 108L196 109L195 108z"/>
<path style="fill:#629ecb; stroke:none;" d="M202 108L202 109L212 110L202 108z"/>
<path style="fill:#a2cfed; stroke:none;" d="M212 108L213 109L212 108M337 108L341 112L337 108z"/>
<path style="fill:#629ecb; stroke:none;" d="M338 108L338 109L348 109L338 108M355 108L355 109L365 109L355 108z"/>
<path style="fill:#a2cfed; stroke:none;" d="M365 108L366 109L365 108M185 109L186 110L185 109z"/>
<path style="fill:#5587ac; stroke:none;" d="M186 109L187 110L186 109M209.333 109.667L209.667 110.333L209.333 109.667z"/>
<path style="fill:#0173ce; stroke:none;" d="M210 109L211 110L210 109z"/>
<path style="fill:#5587ac; stroke:none;" d="M339 109L340 110L339 109M363 109L364 110L363 109z"/>
<path style="fill:#a2cfed; stroke:none;" d="M364 109L365 110L364 109z"/>
<path style="fill:#5587ac; stroke:none;" d="M187 110L188 111L187 110z"/>
<path style="fill:#a2cfed; stroke:none;" d="M210 110L211 111L210 110z"/>
<path style="fill:#5587ac; stroke:none;" d="M340 110L341 111L340 110z"/>
<path style="fill:#629ecb; stroke:none;" d="M362 110L363 111L362 110z"/>
<path style="fill:#a2cfed; stroke:none;" d="M363 110L364 111L363 110z"/>
<path style="fill:#629ecb; stroke:none;" d="M188 111L189 112L188 111M208 111L209 112L208 111M341 111L342 112L341 111M361 111L362 112L361 111z"/>
<path style="fill:#a2cfed; stroke:none;" d="M189 112L191 114L189 112z"/>
<path style="fill:#5587ac; stroke:none;" d="M190 112L191 113L190 112M206 112L205 114L206 112z"/>
<path style="fill:#a2cfed; stroke:none;" d="M207 112L208 113L207 112M342 112L344 114L342 112z"/>
<path style="fill:#5587ac; stroke:none;" d="M343 112L344 113L343 112M359 112L360 113L359 112z"/>
<path style="fill:#a2cfed; stroke:none;" d="M360 112L361 113L360 112z"/>
<path style="fill:#629ecb; stroke:none;" d="M191 113L192 114L191 113z"/>
<path style="fill:#a2cfed; stroke:none;" d="M206 113L207 114L206 113z"/>
<path style="fill:#5587ac; stroke:none;" d="M344 113L345 114L344 113z"/>
<path style="fill:#629ecb; stroke:none;" d="M358 113L359 114L358 113z"/>
<path style="fill:#a2cfed; stroke:none;" d="M359 113L360 114L359 113M192.333 114.667L192.667 115.333L192.333 114.667z"/>
<path style="fill:#629ecb; stroke:none;" d="M204 114L205 115L204 114z"/>
<path style="fill:#a2cfed; stroke:none;" d="M205 114L206 115L205 114z"/>
<path style="fill:#629ecb; stroke:none;" d="M345 114L346 115L345 114z"/>
<path style="fill:#a2cfed; stroke:none;" d="M357 114L357 117L358 117L357 114M204 115L205 116L204 115M345 115L346 116L345 115z"/>
<path style="fill:#629ecb; stroke:none;" d="M192 116L193 117L192 116M204 116L205 117L204 116M345 116L346 117L345 116z"/>
<path style="fill:#5587ac; stroke:none;" d="M192 117L193 118L192 117M204 117L205 118L204 117z"/>
<path style="fill:#a2cfed; stroke:none;" d="M344.333 117.667L344.667 118.333L344.333 117.667z"/>
<path style="fill:#5587ac; stroke:none;" d="M357 117L358 118L357 117z"/>
<path style="fill:#a2cfed; stroke:none;" d="M191.333 118.667L191.667 119.333L191.333 118.667z"/>
<path style="fill:#5587ac; stroke:none;" d="M198 118L199 119L198 118z"/>
<path style="fill:#a2cfed; stroke:none;" d="M205 118L206 119L205 118M358.333 118.667L358.667 119.333L358.333 118.667z"/>
<path style="fill:#629ecb; stroke:none;" d="M197 119L198 120L197 119z"/>
<path style="fill:#a2cfed; stroke:none;" d="M198 119L199 120L198 119z"/>
<path style="fill:#629ecb; stroke:none;" d="M199 119L200 120L199 119M205 119L206 120L205 119M344 119L345 120L344 119z"/>
<path style="fill:#5587ac; stroke:none;" d="M349 119L348 121L349 119z"/>
<path style="fill:#629ecb; stroke:none;" d="M350 119L351 120L350 119z"/>
<path style="fill:#a2cfed; stroke:none;" d="M351 119L352 120L351 119z"/>
<path style="fill:#629ecb; stroke:none;" d="M352 119L353 120L352 119M191 120L192 121L191 120z"/>
<path style="fill:#a2cfed; stroke:none;" d="M196 120L197 121L196 120M200 120L201 121L200 120z"/>
<path style="fill:#5587ac; stroke:none;" d="M201 120L202 121L201 120M205 120L206 121L205 120z"/>
<path style="fill:#a2cfed; stroke:none;" d="M206.333 120.667L206.667 121.333L206.333 120.667M343.333 120.667L343.667 121.333L343.333 120.667z"/>
<path style="fill:#5587ac; stroke:none;" d="M344 120L345 121L344 120z"/>
<path style="fill:#a2cfed; stroke:none;" d="M349 120L350 121L349 120M353 120L354 121L353 120z"/>
<path style="fill:#629ecb; stroke:none;" d="M358 120L359 121L358 120M194 121L195 122L194 121z"/>
<path style="fill:#a2cfed; stroke:none;" d="M195 121L196 122L195 121z"/>
<path style="fill:#629ecb; stroke:none;" d="M202 121L203 122L202 121M347 121L348 122L347 121z"/>
<path style="fill:#a2cfed; stroke:none;" d="M348 121L349 122L348 121M354 121L355 122L354 121z"/>
<path style="fill:#5587ac; stroke:none;" d="M355 121L356 122L355 121z"/>
<path style="fill:#a2cfed; stroke:none;" d="M359.333 121.667L359.667 122.333L359.333 121.667M190 122L191 123L190 122z"/>
<path style="fill:#5587ac; stroke:none;" d="M192 122L190 125L192 122z"/>
<path style="fill:#629ecb; stroke:none;" d="M193 122L194 123L193 122z"/>
<path style="fill:#a2cfed; stroke:none;" d="M203 122L205 124L203 122z"/>
<path style="fill:#5587ac; stroke:none;" d="M204 122L205 123L204 122z"/>
<path style="fill:#629ecb; stroke:none;" d="M206 122L207 123L206 122M343 122L344 123L343 122z"/>
<path style="fill:#5587ac; stroke:none;" d="M345 122L343 123L343 124L345 122z"/>
<path style="fill:#a2cfed; stroke:none;" d="M346 122L347 123L346 122z"/>
<path style="fill:#629ecb; stroke:none;" d="M356 122L357 123L356 122z"/>
<path style="fill:#a2cfed; stroke:none;" d="M192 123L193 124L192 123z"/>
<path style="fill:#5587ac; stroke:none;" d="M205.667 123.333L206.333 123.667L205.667 123.333z"/>
<path style="fill:#a2cfed; stroke:none;" d="M274.667 123.333L275.333 123.667L274.667 123.333M342.333 123.667L342.667 124.333L342.333 123.667M345 123L346 124L345 123M357 123L359 125L357 123z"/>
<path style="fill:#5587ac; stroke:none;" d="M358.667 123.333L359.333 123.667L358.667 123.333z"/>
<path style="fill:#a2cfed; stroke:none;" d="M189 124L190 125L189 124M191 124L192 125L191 124z"/>
<path style="fill:#629ecb; stroke:none;" d="M206 124L207 125L206 124z"/>
<path style="fill:#a2cfed; stroke:none;" d="M207 124L208 125L207 124z"/>
<path style="fill:#629ecb; stroke:none;" d="M274 124L275 125L274 124z"/>
<path style="fill:#5587ac; stroke:none;" d="M275 124L274 126L276 126L275 124z"/>
<path style="fill:#629ecb; stroke:none;" d="M343 124L344 125L343 124M359 124L360 125L359 124z"/>
<path style="fill:#a2cfed; stroke:none;" d="M273.333 125.667L273.667 126.333L273.333 125.667M276.333 125.667L276.667 126.333L276.333 125.667z"/>
<path style="fill:#0173ce; stroke:none;" d="M274 126C272.203 131.664 269.824 132.931 264 133C266.957 138.616 268.9 140.341 268 147C274.01 144.581 275.99 144.581 282 147C281.096 140.316 283.163 138.68 286 133C280.298 132.933 277.518 131.747 276 126L274 126z"/>
<path style="fill:#629ecb; stroke:none;" d="M273 127L274 128L273 127M276 127L277 128L276 127z"/>
<path style="fill:#a2cfed; stroke:none;" d="M272.333 128.667L272.667 129.333L272.333 128.667z"/>
<path style="fill:#5587ac; stroke:none;" d="M276 128L277 129L276 128z"/>
<path style="fill:#a2cfed; stroke:none;" d="M277.333 128.667L277.667 129.333L277.333 128.667z"/>
<path style="fill:#629ecb; stroke:none;" d="M272 130L273 131L272 130M277 130L278 131L277 130z"/>
<path style="fill:#a2cfed; stroke:none;" d="M271 131L260 132L263 135L272 132L271 131z"/>
<path style="fill:#5587ac; stroke:none;" d="M272 131L273 132L272 131M277 131L278 132L277 131z"/>
<path style="fill:#629ecb; stroke:none;" d="M271 132L272 133L271 132M278 132L279 133L278 132z"/>
<path style="fill:#a2cfed; stroke:none;" d="M279 132L279 133L288 133L286 136L289 132L279 132z"/>
<path style="fill:#5587ac; stroke:none;" d="M262 133L264 135L264 133L262 133M286 133L286 135L288 133L286 133z"/>
<path style="fill:#629ecb; stroke:none;" d="M264 135L265 136L264 135M285 135L286 136L285 135z"/>
<path style="fill:#a2cfed; stroke:none;" d="M265 136L267 138L265 136z"/>
<path style="fill:#5587ac; stroke:none;" d="M266 136L267 137L266 136z"/>
<path style="fill:#a2cfed; stroke:none;" d="M284 136L285 137L284 136z"/>
<path style="fill:#5587ac; stroke:none;" d="M267 137L268 138L267 137M282 137L283 138L282 137z"/>
<path style="fill:#a2cfed; stroke:none;" d="M283 137L284 138L283 137z"/>
<path style="fill:#629ecb; stroke:none;" d="M268 138L269 139L268 138M281 138L282 139L281 138M269 139L270 140L269 139M280 139L281 140L280 139z"/>
<path style="fill:#5587ac; stroke:none;" d="M269 140L270 141L269 140M280 140L281 141L280 140z"/>
<path style="fill:#a2cfed; stroke:none;" d="M268 141L269 142L268 141M281 141L282 142L281 141z"/>
<path style="fill:#629ecb; stroke:none;" d="M268 142L269 143L268 142M281 142L282 143L281 142z"/>
<path style="fill:#5587ac; stroke:none;" d="M268 143L269 144L268 143z"/>
<path style="fill:#629ecb; stroke:none;" d="M274.667 143.333L275.333 143.667L274.667 143.333z"/>
<path style="fill:#5587ac; stroke:none;" d="M281 143L282 144L281 143z"/>
<path style="fill:#629ecb; stroke:none;" d="M198 144L199 145L198 144z"/>
<path style="fill:#a2cfed; stroke:none;" d="M267 144L268 145L267 144z"/>
<path style="fill:#5587ac; stroke:none;" d="M272 144L271 146L272 144z"/>
<path style="fill:#a2cfed; stroke:none;" d="M273 144L274 145L273 144M276 144L278 146L276 144z"/>
<path style="fill:#5587ac; stroke:none;" d="M277 144L278 145L277 144z"/>
<path style="fill:#a2cfed; stroke:none;" d="M282 144L283 145L282 144z"/>
<path style="fill:#629ecb; stroke:none;" d="M351 144L352 145L351 144z"/>
<path style="fill:#5587ac; stroke:none;" d="M198 145L199 146L198 145z"/>
<path style="fill:#a2cfed; stroke:none;" d="M199 145L200 146L199 145z"/>
<path style="fill:#629ecb; stroke:none;" d="M267 145L268 146L267 145z"/>
<path style="fill:#a2cfed; stroke:none;" d="M272 145L273 146L272 145z"/>
<path style="fill:#629ecb; stroke:none;" d="M278 145L279 146L278 145M282 145L283 146L282 145z"/>
<path style="fill:#a2cfed; stroke:none;" d="M350 145L351 146L350 145z"/>
<path style="fill:#5587ac; stroke:none;" d="M351 145L352 146L351 145z"/>
<path style="fill:#a2cfed; stroke:none;" d="M197 146L198 147L197 146z"/>
<path style="fill:#0173ce; stroke:none;" d="M198 146C196.414 152.59 193.768 154.92 187 155L187 156C192.213 160.117 192.396 162.798 191 169C197.814 165.793 199.285 165.273 206 169C204.633 162.26 205.84 160.269 210 155C202.256 154.908 202.091 151.46 198 146z"/>
<path style="fill:#629ecb; stroke:none;" d="M199 146L200 147L199 146z"/>
<path style="fill:#5587ac; stroke:none;" d="M267 146L267 149L269 148L269 147L267 146z"/>
<path style="fill:#629ecb; stroke:none;" d="M270 146L271 147L270 146M279 146L280 147L279 146z"/>
<path style="fill:#5587ac; stroke:none;" d="M282 146L283 149L282 146z"/>
<path style="fill:#629ecb; stroke:none;" d="M350 146L351 147L350 146z"/>
<path style="fill:#0173ce; stroke:none;" d="M351 146C348.891 152.41 346.963 154.918 340 155C344.235 160.347 345.539 162.161 344 169C350.533 165.828 352.467 165.828 359 169C357.604 162.798 357.787 160.117 363 156L363 155C355.439 154.911 354.651 151.764 351 146z"/>
<path style="fill:#a2cfed; stroke:none;" d="M352 146L353 147L352 146z"/>
<path style="fill:#629ecb; stroke:none;" d="M197 147L198 148L197 147z"/>
<path style="fill:#5587ac; stroke:none;" d="M199 147L200 148L199 147z"/>
<path style="fill:#a2cfed; stroke:none;" d="M266 147L267 148L266 147M269 147L270 148L269 147M280 147L281 148L280 147M283 147L284 148L283 147z"/>
<path style="fill:#5587ac; stroke:none;" d="M350 147L351 148L350 147z"/>
<path style="fill:#629ecb; stroke:none;" d="M352 147L353 148L352 147z"/>
<path style="fill:#5587ac; stroke:none;" d="M197 148L198 149L197 148z"/>
<path style="fill:#a2cfed; stroke:none;" d="M200.333 148.667L200.667 149.333L200.333 148.667z"/>
<path style="fill:#629ecb; stroke:none;" d="M266 148L267 149L266 148z"/>
<path style="fill:#a2cfed; stroke:none;" d="M268 148L269 149L268 148z"/>
<path style="fill:#629ecb; stroke:none;" d="M283 148L284 149L283 148z"/>
<path style="fill:#a2cfed; stroke:none;" d="M349 148L350 149L349 148z"/>
<path style="fill:#5587ac; stroke:none;" d="M352 148L353 149L352 148z"/>
<path style="fill:#a2cfed; stroke:none;" d="M196 149L197 150L196 149M266 149L267 150L266 149M283 149L284 150L283 149z"/>
<path style="fill:#629ecb; stroke:none;" d="M349 149L350 150L349 149z"/>
<path style="fill:#a2cfed; stroke:none;" d="M353 149L354 150L353 149z"/>
<path style="fill:#629ecb; stroke:none;" d="M196 150L197 151L196 150z"/>
<path style="fill:#5587ac; stroke:none;" d="M200 150L201 151L200 150M349 150L350 151L349 150z"/>
<path style="fill:#629ecb; stroke:none;" d="M353 150L354 151L353 150z"/>
<path style="fill:#5587ac; stroke:none;" d="M196 151L197 152L196 151z"/>
<path style="fill:#a2cfed; stroke:none;" d="M201.333 151.667L201.667 152.333L201.333 151.667M348 151L349 152L348 151z"/>
<path style="fill:#5587ac; stroke:none;" d="M353 151L354 152L353 151z"/>
<path style="fill:#a2cfed; stroke:none;" d="M195 152L196 153L195 152z"/>
<path style="fill:#629ecb; stroke:none;" d="M348 152L349 153L348 152z"/>
<path style="fill:#a2cfed; stroke:none;" d="M354 152L355 153L354 152z"/>
<path style="fill:#629ecb; stroke:none;" d="M195 153L196 154L195 153z"/>
<path style="fill:#5587ac; stroke:none;" d="M201 153L202 154L201 153M348 153L349 154L348 153z"/>
<path style="fill:#629ecb; stroke:none;" d="M354 153L355 154L354 153z"/>
<path style="fill:#a2cfed; stroke:none;" d="M184 154L187 157L184 154z"/>
<path style="fill:#5587ac; stroke:none;" d="M185 154L185 155L195 155L185 154M202 154L202 155L212 155L202 154z"/>
<path style="fill:#a2cfed; stroke:none;" d="M212 154L213 155L212 154M337 154L340 157L337 154z"/>
<path style="fill:#5587ac; stroke:none;" d="M338 154L338 155L348 155L338 154M355 154L355 155L365 155L355 154z"/>
<path style="fill:#a2cfed; stroke:none;" d="M365 154L366 155L365 154M211 155L212 156L211 155M364 155L365 156L364 155z"/>
<path style="fill:#629ecb; stroke:none;" d="M187 156L188 157L187 156M209 156L210 157L209 156z"/>
<path style="fill:#a2cfed; stroke:none;" d="M210 156L211 157L210 156z"/>
<path style="fill:#629ecb; stroke:none;" d="M340 156L341 157L340 156M362 156L363 157L362 156z"/>
<path style="fill:#a2cfed; stroke:none;" d="M188 157L190 159L188 157z"/>
<path style="fill:#5587ac; stroke:none;" d="M189 157L190 158L189 157z"/>
<path style="fill:#629ecb; stroke:none;" d="M208 157L209 158L208 157M341 157L342 158L341 157z"/>
<path style="fill:#5587ac; stroke:none;" d="M360 157L359 159L360 157z"/>
<path style="fill:#a2cfed; stroke:none;" d="M361 157L362 158L361 157z"/>
<path style="fill:#5587ac; stroke:none;" d="M190 158L191 159L190 158M206 158L207 159L206 158z"/>
<path style="fill:#a2cfed; stroke:none;" d="M207 158L208 159L207 158M342 158L344 160L342 158z"/>
<path style="fill:#5587ac; stroke:none;" d="M343 158L344 159L343 158z"/>
<path style="fill:#a2cfed; stroke:none;" d="M360 158L361 159L360 158z"/>
<path style="fill:#629ecb; stroke:none;" d="M191 159L192 160L191 159M205 159L206 160L205 159M344 159L345 160L344 159M358 159L359 160L358 159z"/>
<path style="fill:#a2cfed; stroke:none;" d="M192.333 160.667L192.667 161.333L192.333 160.667M204.333 160.667L204.667 161.333L204.333 160.667M345.333 160.667L345.667 161.333L345.333 160.667M357.333 160.667L357.667 161.333L357.333 160.667z"/>
<path style="fill:#629ecb; stroke:none;" d="M192 162L193 163L192 162M204 162L205 163L204 162M345 162L346 163L345 162M357 162L358 163L357 162z"/>
<path style="fill:#5587ac; stroke:none;" d="M192 163L193 164L192 163z"/>
<path style="fill:#a2cfed; stroke:none;" d="M205.333 163.667L205.667 164.333L205.333 163.667M344.333 163.667L344.667 164.333L344.333 163.667z"/>
<path style="fill:#5587ac; stroke:none;" d="M345 163L346 164L345 163M357 163L358 164L357 163z"/>
<path style="fill:#a2cfed; stroke:none;" d="M191.333 164.667L191.667 165.333L191.333 164.667z"/>
<path style="fill:#5587ac; stroke:none;" d="M198 164L199 165L198 164z"/>
<path style="fill:#a2cfed; stroke:none;" d="M358 164L359 165L358 164z"/>
<path style="fill:#629ecb; stroke:none;" d="M197 165L198 166L197 165z"/>
<path style="fill:#a2cfed; stroke:none;" d="M199 165L201 167L199 165z"/>
<path style="fill:#5587ac; stroke:none;" d="M200 165L201 166L200 165z"/>
<path style="fill:#629ecb; stroke:none;" d="M205 165L206 166L205 165M344 165L345 166L344 165z"/>
<path style="fill:#5587ac; stroke:none;" d="M349 165L350 166L349 165z"/>
<path style="fill:#a2cfed; stroke:none;" d="M350 165L351 166L350 165z"/>
<path style="fill:#629ecb; stroke:none;" d="M352 165L353 166L352 165z"/>
<path style="fill:#5587ac; stroke:none;" d="M353 165L355 167L353 165z"/>
<path style="fill:#629ecb; stroke:none;" d="M358 165L359 166L358 165z"/>
<path style="fill:#5587ac; stroke:none;" d="M191 166L192 167L191 166M195 166L196 167L195 166z"/>
<path style="fill:#a2cfed; stroke:none;" d="M196 166L197 167L196 166z"/>
<path style="fill:#629ecb; stroke:none;" d="M201 166L202 167L201 166z"/>
<path style="fill:#5587ac; stroke:none;" d="M205 166L206 167L205 166z"/>
<path style="fill:#a2cfed; stroke:none;" d="M206.333 166.667L206.667 167.333L206.333 166.667M343.333 166.667L343.667 167.333L343.333 166.667z"/>
<path style="fill:#5587ac; stroke:none;" d="M344 166L345 167L344 166z"/>
<path style="fill:#629ecb; stroke:none;" d="M348 166L349 167L348 166z"/>
<path style="fill:#a2cfed; stroke:none;" d="M349 166L350 167L349 166M353 166L354 167L353 166z"/>
<path style="fill:#5587ac; stroke:none;" d="M358 166L359 167L358 166z"/>
<path style="fill:#a2cfed; stroke:none;" d="M190.333 167.667L190.667 168.333L190.333 167.667z"/>
<path style="fill:#629ecb; stroke:none;" d="M194 167L195 168L194 167z"/>
<path style="fill:#a2cfed; stroke:none;" d="M195 167L196 168L195 167z"/>
<path style="fill:#629ecb; stroke:none;" d="M202 167L203 168L202 167z"/>
<path style="fill:#5587ac; stroke:none;" d="M203 167L205 169L203 167z"/>
<path style="fill:#629ecb; stroke:none;" d="M347 167L348 168L347 167z"/>
<path style="fill:#a2cfed; stroke:none;" d="M354 167L355 168L354 167z"/>
<path style="fill:#629ecb; stroke:none;" d="M355 167L356 168L355 167z"/>
<path style="fill:#a2cfed; stroke:none;" d="M359.333 167.667L359.667 168.333L359.333 167.667z"/>
<path style="fill:#5587ac; stroke:none;" d="M192 168L190 169L190 170L192 168z"/>
<path style="fill:#a2cfed; stroke:none;" d="M193 168L194 169L193 168M203 168L204 169L203 168z"/>
<path style="fill:#629ecb; stroke:none;" d="M206 168L205 170L206 168M343 168L344 169L343 168z"/>
<path style="fill:#5587ac; stroke:none;" d="M345 168L343 169L343 170L345 168z"/>
<path style="fill:#a2cfed; stroke:none;" d="M346 168L347 169L346 168M356 168L358 170L356 168z"/>
<path style="fill:#5587ac; stroke:none;" d="M357 168L358 169L357 168z"/>
<path style="fill:#a2cfed; stroke:none;" d="M192 169L193 170L192 169M204 169L205 170L204 169z"/>
<path style="fill:#5587ac; stroke:none;" d="M206 169L207 170L206 169z"/>
<path style="fill:#a2cfed; stroke:none;" d="M342 169L342 171L344 171L342 169M345 169L346 170L345 169z"/>
<path style="fill:#5587ac; stroke:none;" d="M358.667 169.333L359.333 169.667L358.667 169.333z"/>
<path style="fill:#a2cfed; stroke:none;" d="M189 170L190 171L189 170z"/>
<path style="fill:#629ecb; stroke:none;" d="M190 170L191 171L190 170z"/>
<path style="fill:#a2cfed; stroke:none;" d="M206.667 170.333L207.333 170.667L206.667 170.333z"/>
<path style="fill:#629ecb; stroke:none;" d="M359 170L360 171L359 170M0 183L0 184L550 184C537.593 178.794 515.515 183 502 183L390 183L0 183z"/>
<path style="fill:#0173ce; stroke:none;" d="M0 184L0 275L550 275L550 184L0 184z"/>
</svg>
