<?xml version="1.0" standalone="yes"?>
<svg xmlns="http://www.w3.org/2000/svg" width="550" height="367">
<path style="fill:#023062; stroke:none;" d="M0 0L0 147L238 147L238 0L0 0z"/>
<path style="fill:#a8ab8d; stroke:none;" d="M238 0L238 147L239 147L239 44C239 31.5323 242.807 11.4559 238 0z"/>
<path style="fill:#fdfdfd; stroke:none;" d="M239 0L239 147L0 147L0 220L239 220L239 367L311 367L311 220L550 220L550 147L311 147L311 0L239 0z"/>
<path style="fill:#a8ab8d; stroke:none;" d="M311 0L311 147L312 147L312 44C312 31.5323 315.807 11.4559 311 0z"/>
<path style="fill:#ce1228; stroke:none;" d="M312 0L312 107L312 135L313.028 145.397L328 147L372 147L550 147L550 0L312 0z"/>
<path style="fill:#a8ab8d; stroke:none;" d="M268 146L268 147L281 147L268 146z"/>
<path style="fill:#549860; stroke:none;" d="M312 146L313 147L312 146M266 147L267 148L266 147z"/>
<path style="fill:#023062; stroke:none;" d="M245 159L245 160L271 154L271 151L278 151L278 154L304 160L304 159L293 152L293 153L296 156L292 151L291 151L291 154L285 153L286 150C269.526 142.628 259.364 152.631 245 159z"/>
<path style="fill:#a8ab8d; stroke:none;" d="M282 147L283 148L282 147M265 148L261 149L261 150L266 149L265 148z"/>
<path style="fill:#549860; stroke:none;" d="M269 148L270 149L269 148M271 148L272 150L273 150L274 148L271 148M275 150L278 150L276 148L275 150M279.333 148.667L279.667 149.333L279.333 148.667M265 149L266 150L265 149z"/>
<path style="fill:#a8ab8d; stroke:none;" d="M283 149L283 150L286 150L283 149M257.667 150.333L258.333 150.667L257.667 150.333z"/>
<path style="fill:#549860; stroke:none;" d="M259.667 150.333L260.333 150.667L259.667 150.333M285 153L291 154L290 150L285 153z"/>
<path style="fill:#a8ab8d; stroke:none;" d="M288 150L289 151L288 150M290 150L291 151L290 150M255 151L256 152L255 151z"/>
<path style="fill:#549860; stroke:none;" d="M256 151L257 152L256 151M257 154L264 153C261.738 150.619 258.935 151.606 257 154z"/>
<path style="fill:#a8ab8d; stroke:none;" d="M271 151L271 154L272 154L271 151M277 151L277 154L278 154L277 151z"/>
<path style="fill:#549860; stroke:none;" d="M292 151L296 156L292 151z"/>
<path style="fill:#a8ab8d; stroke:none;" d="M293 151L294 152L293 151M253 152L254 153L253 152M295 152L296 153L295 152z"/>
<path style="fill:#549860; stroke:none;" d="M252 153L253 154L252 153M296 153L297 154L296 153M251.333 154.667L251.667 155.333L251.333 154.667M261 154L262 155L261 154z"/>
<path style="fill:#a8ab8d; stroke:none;" d="M262 154L262 155L271 155L262 154M278 154L278 155L287 155L278 154z"/>
<path style="fill:#549860; stroke:none;" d="M287 154L288 155L287 154M297.333 154.667L297.667 155.333L297.333 154.667z"/>
<path style="fill:#a8ab8d; stroke:none;" d="M258 155L259 156L258 155M289 155L290 156L289 155z"/>
<path style="fill:#549860; stroke:none;" d="M290 155L291 156L290 155z"/>
<path style="fill:#a8ab8d; stroke:none;" d="M250 156L251 157L250 156z"/>
<path style="fill:#549860; stroke:none;" d="M257.333 156.667L257.667 157.333L257.333 156.667M291.333 156.667L291.667 157.333L291.333 156.667z"/>
<path style="fill:#a8ab8d; stroke:none;" d="M298 156L299 157L298 156M247 157L248 158L247 157z"/>
<path style="fill:#549860; stroke:none;" d="M248 157L249 158L248 157M300 157L301 158L300 157z"/>
<path style="fill:#a8ab8d; stroke:none;" d="M301 157L302 158L301 157M245 158L246 159L245 158z"/>
<path style="fill:#549860; stroke:none;" d="M246 158L247 159L246 158z"/>
<path style="fill:#a8ab8d; stroke:none;" d="M256 158L257 159L256 158z"/>
<path style="fill:#549860; stroke:none;" d="M292 158L293 159L292 158M302 158L303 159L302 158z"/>
<path style="fill:#a8ab8d; stroke:none;" d="M303 158L304 159L303 158z"/>
<path style="fill:#549860; stroke:none;" d="M244 159L245 160L244 159z"/>
<path style="fill:#a8ab8d; stroke:none;" d="M254.667 159.333L255.333 159.667L254.667 159.333M293 159L294 160L293 159z"/>
<path style="fill:#549860; stroke:none;" d="M294 159L295 160L294 159z"/>
<path style="fill:#a8ab8d; stroke:none;" d="M304 159L305 160L304 159M246 160L247 161L246 160z"/>
<path style="fill:#549860; stroke:none;" d="M250 160L251 161L250 160z"/>
<path style="fill:#a8ab8d; stroke:none;" d="M251 160L252 161L251 160M256 161L256 162L264 161L256 161M265 160L265 161L268 161L265 160M269 160L269 161L271 175L270 175L269 172L268 172L268 183L269 183L271 181L270 185L271 185L271 182L276 179L275 179L274 182L272 182L271 175L273 175L274 178L275 178L272 168L273 168L273 173L276 168L277 168C277.039 172.318 277.032 175.682 281 178L281 171L280 171L279 174L278 174L279 160L275 161L275 162L277 166L275 164L274 164L272 166L274 162L274 161L269 160M280.667 160.333L281.333 160.667L280.667 160.333M286.667 160.333L287.333 160.667L286.667 160.333M290 160L291 161L290 160M297 160L298 161L297 160z"/>
<path style="fill:#549860; stroke:none;" d="M298 160L299 161L298 160z"/>
<path style="fill:#a8ab8d; stroke:none;" d="M302 160L303 161L302 160z"/>
<path style="fill:#549860; stroke:none;" d="M246.667 161.333L247.333 161.667L246.667 161.333z"/>
<path style="fill:#a8ab8d; stroke:none;" d="M248 161L249 162L248 161z"/>
<path style="fill:#023062; stroke:none;" d="M257 161L260 175L268 182L266 171L267 170L271 173L271 161L257 161z"/>
<path style="fill:#ce1228; stroke:none;" d="M278 161L278 174L279 174L280 171L282 172L286 169L286 175L289 175L291 161L278 161z"/>
<path style="fill:#549860; stroke:none;" d="M291 161L292 162L291 161z"/>
<path style="fill:#a8ab8d; stroke:none;" d="M292 161L293 162L292 161M300 161L301 162L300 161z"/>
<path style="fill:#549860; stroke:none;" d="M301.667 161.333L302.333 161.667L301.667 161.333z"/>
<path style="fill:#a8ab8d; stroke:none;" d="M245.667 162.333L246.333 162.667L245.667 162.333z"/>
<path style="fill:#549860; stroke:none;" d="M257 162L258 163L257 162z"/>
<path style="fill:#a8ab8d; stroke:none;" d="M291 162L292 163L291 162M302.667 162.333L303.333 162.667L302.667 162.333z"/>
<path style="fill:#549860; stroke:none;" d="M258 163L259 164L258 163M262 163L261 166L266 171L262 163M265 163L267 165L267 163L265 163z"/>
<path style="fill:#a8ab8d; stroke:none;" d="M290 163L291 164L290 163M292 164L292 165L295 165L292 164z"/>
<path style="fill:#549860; stroke:none;" d="M259 164L260 165L259 164z"/>
<path style="fill:#a8ab8d; stroke:none;" d="M289 164L290 165L289 164z"/>
<path style="fill:#549860; stroke:none;" d="M293 164L292 185L295 187L292 186L292 195L290 194L289 198L284 202L289 204L299 201L297 196L301 197L307 188C303.64 188 305.17 181.56 306 179L304 180L304 179L306 176L303 178L304 174L303 170L301 167L296 169L293 164z"/>
<path style="fill:#a8ab8d; stroke:none;" d="M250 165L249 167L250 165M253.667 165.333L254.333 165.667L253.667 165.333M259 165L259 175L260 175L259 165z"/>
<path style="fill:#549860; stroke:none;" d="M250 172L246 172L246 176L243 174L245 188L244 191L250 201L254 200L254 203L260 204L264 199L256 197C256.595 193.032 257.258 184.512 254 182L254 181L254 180L256 177L253 177L258 173L251 171L251 170L255 169L256 167C251.461 165.223 249.219 167.374 250 172z"/>
<path style="fill:#023062; stroke:none;" d="M253 166L254 167L253 166M263 166L266 170L263 166z"/>
<path style="fill:#a8ab8d; stroke:none;" d="M295 166L296 167L295 166M300 166L301 171L303 170L303 171L302 174L305 175L303 178L308 176L305 170L300 166z"/>
<path style="fill:#023062; stroke:none;" d="M251 167L250 169L252 169L251 167M254 167L255 168L254 167z"/>
<path style="fill:#a8ab8d; stroke:none;" d="M255 167L256 168L255 167M290.667 167.333L291.333 167.667L290.667 167.333z"/>
<path style="fill:#023062; stroke:none;" d="M294 167L295 168L294 167z"/>
<path style="fill:#a8ab8d; stroke:none;" d="M297 167L298 168L297 167M299 167L300 168L299 167z"/>
<path style="fill:#fdfdfd; stroke:none;" d="M272 168L275 178L274 178L273 175L271 175L272 182L274 182L275 179L279 179L277 168L276 168L273 173L272 168z"/>
<path style="fill:#a8ab8d; stroke:none;" d="M296 168L297 169L296 168M298 168L299 169L298 168M253 169L254 170L253 169z"/>
<path style="fill:#549860; stroke:none;" d="M269 169L270 170L269 169z"/>
<path style="fill:#023062; stroke:none;" d="M282 170L281 183C285.709 179.171 285.984 174.774 286 169L282 170M295 169L296 175L297 175L297 171L295 171L295 170C296.396 169.302 296.396 169.698 295 169z"/>
<path style="fill:#fdfdfd; stroke:none;" d="M301 169L302 170L301 169z"/>
<path style="fill:#a8ab8d; stroke:none;" d="M246 172L250 172C248.444 170.187 247.556 170.187 246 172z"/>
<path style="fill:#fdfdfd; stroke:none;" d="M251 170L252 171L251 170z"/>
<path style="fill:#a8ab8d; stroke:none;" d="M252 170L253 171L252 170z"/>
<path style="fill:#549860; stroke:none;" d="M267 170L266 171L266 172L267 173L268 173L269 172L269 171L267 170z"/>
<path style="fill:#a8ab8d; stroke:none;" d="M290 170L291 172L292 172L293 170L290 170M253 171L254 172L253 171M255 171L255 172L258 173L255 171z"/>
<path style="fill:#549860; stroke:none;" d="M270 171L271 172L270 171M282 171L283 172L282 171z"/>
<path style="fill:#023062; stroke:none;" d="M299 171L300 172L299 171z"/>
<path style="fill:#a8ab8d; stroke:none;" d="M300 171L301 172L300 171z"/>
<path style="fill:#549860; stroke:none;" d="M269 172L270 173L269 172M281 172L282 173L281 172z"/>
<path style="fill:#a8ab8d; stroke:none;" d="M246.333 173.667L246.667 174.333L246.333 173.667z"/>
<path style="fill:#023062; stroke:none;" d="M253 173L254 174L253 173z"/>
<path style="fill:#549860; stroke:none;" d="M268 173L269 174L268 173M270.333 173.667L270.667 174.333L270.333 173.667z"/>
<path style="fill:#a8ab8d; stroke:none;" d="M292 173L293 179L294 179L292 173M242 174L242 178L243 178L242 174M257 174L258 175L257 174z"/>
<path style="fill:#023062; stroke:none;" d="M243 175L244 176L243 175z"/>
<path style="fill:#a8ab8d; stroke:none;" d="M256 175L257 176L256 175z"/>
<path style="fill:#549860; stroke:none;" d="M260 175L260 176L263 176L260 175z"/>
<path style="fill:#fdfdfd; stroke:none;" d="M269 175L270 176L269 175M279.333 175.667L279.667 176.333L279.333 175.667z"/>
<path style="fill:#a8ab8d; stroke:none;" d="M286 175L286 176L288 181L285 179C283.231 180.721 281.475 183.563 281 180L280 180L281 184L284 184L284 181L289 182L289 175L286 175z"/>
<path style="fill:#fdfdfd; stroke:none;" d="M304 175L305 176L304 175z"/>
<path style="fill:#023062; stroke:none;" d="M250 176L251 177L250 176z"/>
<path style="fill:#549860; stroke:none;" d="M263 176L263 179L264 179L263 176z"/>
<path style="fill:#fdfdfd; stroke:none;" d="M286 176L286 181L288 181L288 176L286 176z"/>
<path style="fill:#a8ab8d; stroke:none;" d="M252 177L253 178L252 177z"/>
<path style="fill:#023062; stroke:none;" d="M254 177L255 178L254 177z"/>
<path style="fill:#a8ab8d; stroke:none;" d="M256 177L256 180L257 180L256 177z"/>
<path style="fill:#549860; stroke:none;" d="M268.333 177.667L268.667 178.333L268.333 177.667M285.333 177.667L285.667 178.333L285.333 177.667z"/>
<path style="fill:#023062; stroke:none;" d="M298 177L299 178L298 177z"/>
<path style="fill:#a8ab8d; stroke:none;" d="M305 177L304 180L307 178L305 177z"/>
<path style="fill:#023062; stroke:none;" d="M244 178L244 179L245 181L246 181L247 181L244 178z"/>
<path style="fill:#a8ab8d; stroke:none;" d="M249 178L250 179L249 178z"/>
<path style="fill:#549860; stroke:none;" d="M278 181L281 178L278 181z"/>
<path style="fill:#a8ab8d; stroke:none;" d="M242 179L243 180L242 179M247 179L247 181L249 179L247 179M250 179L250 183L253 179L250 179M263 179L259 181C259 186.78 258.361 191.906 263 196L260 182L266 182L263 179M277 179L278 180L277 179z"/>
<path style="fill:#023062; stroke:none;" d="M278 179L279 180L278 179M298 179L298 183L299 183L298 179z"/>
<path style="fill:#a8ab8d; stroke:none;" d="M243 180L244 181L243 180z"/>
<path style="fill:#fdfdfd; stroke:none;" d="M251 180L252 181L251 180z"/>
<path style="fill:#a8ab8d; stroke:none;" d="M254 180L256 182L256 180L254 180z"/>
<path style="fill:#549860; stroke:none;" d="M276 180L275 183L276 180z"/>
<path style="fill:#023062; stroke:none;" d="M277.333 180.667L277.667 181.333L277.333 180.667z"/>
<path style="fill:#fdfdfd; stroke:none;" d="M279 180L278 189L283 183L279 180z"/>
<path style="fill:#a8ab8d; stroke:none;" d="M294 180L295 181L294 180M303 180L304 181L303 180M305 182L308 181L305 182z"/>
<path style="fill:#fdfdfd; stroke:none;" d="M254 181L255 182L254 181M264 181L271 189L272 186L270 181L269 181L264 181z"/>
<path style="fill:#549860; stroke:none;" d="M270 181L271 182L270 181z"/>
<path style="fill:#023062; stroke:none;" d="M275 181L276 182L275 181z"/>
<path style="fill:#a8ab8d; stroke:none;" d="M278 181L278 185L276 183L275 183L276 192L279 190L279 187L277 188L277 187L278 181z"/>
<path style="fill:#fdfdfd; stroke:none;" d="M284 181L283 183L285 183L284 181z"/>
<path style="fill:#023062; stroke:none;" d="M253 182L255 186L255 185L253 183L255 184L253 182z"/>
<path style="fill:#ce1228; stroke:none;" d="M260 182C260.001 191.128 260.881 195.964 271 196L272 189L260 182z"/>
<path style="fill:#549860; stroke:none;" d="M267 182L268 183L267 182M271 182L271 184L273 184L271 182z"/>
<path style="fill:#023062; stroke:none;" d="M274 182L271 184L275 193L274 182z"/>
<path style="fill:#ce1228; stroke:none;" d="M276 182L276 185L278 185L278 182L276 182z"/>
<path style="fill:#549860; stroke:none;" d="M285 182L284 184L285 182z"/>
<path style="fill:#023062; stroke:none;" d="M285 183C285.658 188.186 283.425 191.459 278 191L278 196C287.911 195.91 288.994 190.961 289 182L285 183z"/>
<path style="fill:#a8ab8d; stroke:none;" d="M292.333 182.667L292.667 183.333L292.333 182.667z"/>
<path style="fill:#023062; stroke:none;" d="M294 182C297.808 190.605 291.508 193.875 288 201L292 201C292.702 199.175 302.895 181.881 297 186L294 182z"/>
<path style="fill:#a8ab8d; stroke:none;" d="M307 182L308 183L307 182M242 183L242 185L244 183L242 183M304 183L307 186L304 183z"/>
<path style="fill:#023062; stroke:none;" d="M243 184L244 185L243 184z"/>
<path style="fill:#a8ab8d; stroke:none;" d="M246 184L247 185L246 184z"/>
<path style="fill:#fdfdfd; stroke:none;" d="M247 184L248 185L247 184z"/>
<path style="fill:#a8ab8d; stroke:none;" d="M266 184L267 185L266 184z"/>
<path style="fill:#ce1228; stroke:none;" d="M274 184L274 188L275 188L274 184M278 191C283.398 192.2 285.432 189.083 286 184L278 191z"/>
<path style="fill:#a8ab8d; stroke:none;" d="M292 185L295 187L294 184L292 185M303 184L304 185L303 184z"/>
<path style="fill:#023062; stroke:none;" d="M245 185L246 186L245 185z"/>
<path style="fill:#a8ab8d; stroke:none;" d="M248 185L249 186L248 185M256 185L257 186L256 185M267 185L268 186L267 185M281 185L282 186L281 185M242.333 186.667L242.667 187.333L242.333 186.667M249 186L250 187L249 186M255 186L256 187L255 186M268.333 186.667L268.667 187.333L268.333 186.667M271 186L272 187L271 186z"/>
<path style="fill:#549860; stroke:none;" d="M277 186L278 187L277 186z"/>
<path style="fill:#a8ab8d; stroke:none;" d="M291 186L293 190L291 186M305 186L305 189L308 188L308 187L305 186z"/>
<path style="fill:#023062; stroke:none;" d="M252 187L253 188L252 187z"/>
<path style="fill:#a8ab8d; stroke:none;" d="M270 187L271 188L270 187z"/>
<path style="fill:#023062; stroke:none;" d="M277 187L278 188L277 187z"/>
<path style="fill:#a8ab8d; stroke:none;" d="M280 187L281 188L280 187M293 187L294 188L293 187z"/>
<path style="fill:#023062; stroke:none;" d="M301 187L302 188L301 187z"/>
<path style="fill:#a8ab8d; stroke:none;" d="M244 188L245 189L244 188z"/>
<path style="fill:#023062; stroke:none;" d="M248 188L249 189L248 188z"/>
<path style="fill:#a8ab8d; stroke:none;" d="M271 188L272 189L271 188M243 189L244 190L243 189M247 189L248 190L247 189M270 189L271 190L270 189z"/>
<path style="fill:#549860; stroke:none;" d="M277 189L277 196L278 196L277 189z"/>
<path style="fill:#a8ab8d; stroke:none;" d="M294.333 189.667L294.667 190.333L294.333 189.667M307 189L308 190L307 189z"/>
<path style="fill:#023062; stroke:none;" d="M251 190L252 191L251 190z"/>
<path style="fill:#a8ab8d; stroke:none;" d="M271 190L271 196L265 196L265 197L284 197L284 196L273 197C272.017 194.05 271.513 193.378 274 194L271 190M305 190L306 191L305 190M245 191L246 192L245 191M255 191L256 194L257 194L257 191L255 191z"/>
<path style="fill:#549860; stroke:none;" d="M275 191L276 192L275 191M288.333 191.667L288.667 192.333L288.333 191.667z"/>
<path style="fill:#a8ab8d; stroke:none;" d="M291 191L291 195L293 191L291 191M306.667 191.333L307.333 191.667L306.667 191.333M246 192L247 193L246 192M248.667 192.333L249.333 192.667L248.667 192.333z"/>
<path style="fill:#fdfdfd; stroke:none;" d="M272 193L273 197L277 192L272 193z"/>
<path style="fill:#a8ab8d; stroke:none;" d="M305 192L301 197L307 193L305 192M247.333 193.667L247.667 194.333L247.333 193.667M251 193L252 194L251 193z"/>
<path style="fill:#023062; stroke:none;" d="M299 193L300 194L299 193z"/>
<path style="fill:#a8ab8d; stroke:none;" d="M257.333 194.667L257.667 195.333L257.333 194.667M287 194L288 195L287 194M245 195L248 198L245 195M248 195L249 196L248 195z"/>
<path style="fill:#023062; stroke:none;" d="M250 195L251 196L250 195M255 195L256 196L255 195z"/>
<path style="fill:#549860; stroke:none;" d="M285 195L286 196L285 195z"/>
<path style="fill:#a8ab8d; stroke:none;" d="M286 195L287 196L286 195M289 195L290 196L289 195z"/>
<path style="fill:#023062; stroke:none;" d="M299 195L300 196L299 195z"/>
<path style="fill:#549860; stroke:none;" d="M245 196L245 198L247 198L245 196z"/>
<path style="fill:#a8ab8d; stroke:none;" d="M249 196L248 200L251 200L249 196M256 196L257 197L256 196z"/>
<path style="fill:#023062; stroke:none;" d="M297.667 196.333L298.333 196.667L297.667 196.333z"/>
<path style="fill:#549860; stroke:none;" d="M303.333 196.667L303.667 197.333L303.333 196.667z"/>
<path style="fill:#a8ab8d; stroke:none;" d="M242 197L243 200L244 200L244 197L242 197M253 197L254 198L253 197M255 197L256 198L255 197M260.667 197.333L261.333 197.667L260.667 197.333M286 197L287 198L286 197M288 197L289 198L288 197M298 197L299 201L302 198L299 199L300 197L298 197z"/>
<path style="fill:#fdfdfd; stroke:none;" d="M299 199L302 197L299 199z"/>
<path style="fill:#ce1228; stroke:none;" d="M302 197L295 205C280.206 200.802 268.781 200.805 254 205C251.888 200.902 248.562 198.648 244 198C245.099 203.674 252.01 213.06 258.875 211.639C262.393 210.911 264.158 207.607 268 207L267 210C270.757 210 279.363 211.609 280 207C284.578 207.347 287.715 211.744 292 211.623C297.54 211.468 308.352 201.735 302 197z"/>
<path style="fill:#a8ab8d; stroke:none;" d="M305 197L305 200L306 200L307 197L305 197z"/>
<path style="fill:#549860; stroke:none;" d="M243 198L244 199L243 198z"/>
<path style="fill:#a8ab8d; stroke:none;" d="M259 198L260 199L259 198M262.667 198.333L263.333 198.667L262.667 198.333z"/>
<path style="fill:#023062; stroke:none;" d="M295 198L296 199L295 198z"/>
<path style="fill:#549860; stroke:none;" d="M305 198L306 199L305 198z"/>
<path style="fill:#fdfdfd; stroke:none;" d="M249 199L250 200L249 199z"/>
<path style="fill:#a8ab8d; stroke:none;" d="M264 199C264.654 202.054 266.007 201.936 269 202L269 201L264 199M252 200L254 203L255 202L254 200L252 200z"/>
<path style="fill:#023062; stroke:none;" d="M258 200L259 201L258 200M263 200L260 202L260 203L263 200z"/>
<path style="fill:#a8ab8d; stroke:none;" d="M284 200L285 201L284 200M296 200L293 204L293 205L296 200M244 201L245 202L244 201z"/>
<path style="fill:#fdfdfd; stroke:none;" d="M253 201L254 202L253 201z"/>
<path style="fill:#023062; stroke:none;" d="M256 201L257 202L256 201z"/>
<path style="fill:#549860; stroke:none;" d="M279 201L280 202L279 201z"/>
<path style="fill:#a8ab8d; stroke:none;" d="M280 201L280 202L284 202L280 201z"/>
<path style="fill:#023062; stroke:none;" d="M285 201L285 202L289 203L285 201z"/>
<path style="fill:#a8ab8d; stroke:none;" d="M304 201L305 202L304 201z"/>
<path style="fill:#023062; stroke:none;" d="M257 202L258 203L257 202z"/>
<path style="fill:#a8ab8d; stroke:none;" d="M259 202L260 203L259 202M293 202L294 203L293 202z"/>
<path style="fill:#fdfdfd; stroke:none;" d="M294 202L292 203L292 204L294 202z"/>
<path style="fill:#a8ab8d; stroke:none;" d="M245 203L246 204L245 203M254 205L258 204L254 205M291 203L292 204L291 203M303 203L304 204L303 203z"/>
<path style="fill:#549860; stroke:none;" d="M246 204L247 205L246 204z"/>
<path style="fill:#a8ab8d; stroke:none;" d="M267 204L268 205L267 204M246 205L247 206L246 205M302 205L303 206L302 205M247 206L248 207L247 206M301 206L302 207L301 206M249.667 207.333L250.333 207.667L249.667 207.333M263.667 207.333L264.333 207.667L263.667 207.333M266 207C266.209 209.858 266.174 211 269 211L268 207L266 207M280 207L280 208L281 210L282 210L280 207M284.667 207.333L285.333 207.667L284.667 207.333M298.667 207.333L299.333 207.667L298.667 207.333M251 208L252 209L251 208M262.333 208.667L262.667 209.333L262.333 208.667z"/>
<path style="fill:#549860; stroke:none;" d="M281 208L282 209L281 208z"/>
<path style="fill:#a8ab8d; stroke:none;" d="M297 208L298 209L297 208M252 209L253 210L252 209M279 209L278 212L282 212L282 211L279 209z"/>
<path style="fill:#549860; stroke:none;" d="M280 209L281 210L280 209M268 211L268 212L272 211L268 211z"/>
<path style="fill:#a8ab8d; stroke:none;" d="M276 210L277 211L276 210z"/>
<path style="fill:#549860; stroke:none;" d="M277 210L278 211L277 210z"/>
<path style="fill:#023062; stroke:none;" d="M278 210L279 211L278 210z"/>
<path style="fill:#549860; stroke:none;" d="M287 210L288 211L287 210z"/>
<path style="fill:#a8ab8d; stroke:none;" d="M296 210L297 211L296 210M254 211L255 212L254 211M261 211L262 212L261 211M270 211L271 212L270 211z"/>
<path style="fill:#549860; stroke:none;" d="M279 211L280 212L279 211z"/>
<path style="fill:#a8ab8d; stroke:none;" d="M288 211L289 212L288 211M294.667 211.333L295.333 211.667L294.667 211.333M256 212L256 213L259 213L256 212M290 212L290 213L294 213L290 212z"/>
<path style="fill:#ce1228; stroke:none;" d="M0 220L0 367L238 367L238 220L0 220z"/>
<path style="fill:#a8ab8d; stroke:none;" d="M238 220L238 367L239 367L239 264C239 251.532 242.807 231.456 238 220M311 220L311 367L312 367L312 264C312 251.532 315.807 231.456 311 220z"/>
<path style="fill:#023062; stroke:none;" d="M312 220L312 367L550 367L550 220L312 220z"/>
</svg>
