<?xml version="1.0" encoding="utf-8"?>
<svg version="1.1" id="Layer_1" xmlns="http://www.w3.org/2000/svg" xmlns:xlink="http://www.w3.org/1999/xlink" x="0px" y="0px"
	 viewBox="0 0 576 146" style="enable-background:new 0 0 576 146;" xml:space="preserve">
<style type="text/css">
	.st0{fill:#40C1AC;}
	.st1{fill:#0072CE;}
</style>
<g>
	<path class="st0" d="M212.51,95.42H219v30.01h-6.48V95.42z"/>
	<path class="st0" d="M224.05,102.27h6.07v3.1c1.86-2.55,4.49-3.57,7.32-3.57c6.11,0,8.24,3.94,8.24,10.28v13.34h-6.21v-12.55
		c0-3.38-0.88-5.19-4.03-5.19c-3.1,0-5.19,2.5-5.19,6.02v11.72h-6.21V102.27z"/>
	<path class="st0" d="M251.04,117.97v-10.7h-3.38v-5h3.38v-4.45l6.2-1.39v5.84h6.39v5h-6.39v10.6c0,1.99,0.97,2.64,2.09,2.64
		c1.48,0,2.78-0.83,2.96-0.97l1.76,4.59c-1.39,0.93-3.43,1.76-5.88,1.76C253.53,125.89,251.04,123.2,251.04,117.97z"/>
	<path class="st0" d="M291.99,102.27h6.11v4.45c0.65-1.9,3.01-4.91,8.1-4.91v6.76c-5.37,0-8.01,2.45-8.01,7.97v8.89h-6.21V102.27z"
		/>
	<path class="st0" d="M308.65,102.27h6.07v3.1c1.86-2.55,4.49-3.57,7.32-3.57c6.11,0,8.24,3.94,8.24,10.28v13.34h-6.21v-12.55
		c0-3.38-0.88-5.19-4.03-5.19c-3.1,0-5.19,2.5-5.19,6.02v11.72h-6.21V102.27z"/>
	<path class="st0" d="M333.58,113.85c0-6.67,4.08-12.04,10.47-12.04c2.69,0,5.56,1.07,7.22,3.29v-2.82h6.07v23.16h-6.07v-2.78
		c-1.62,2.22-4.54,3.24-7.22,3.24C337.66,125.89,333.58,120.52,333.58,113.85z M351.14,113.85c0-3.61-2.32-6.3-5.51-6.3
		c-3.33,0-5.74,2.69-5.74,6.3c0,3.66,2.41,6.3,5.74,6.3C348.82,120.15,351.14,117.56,351.14,113.85z"/>
	<path class="st0" d="M363.38,117.97v-10.7H360v-5h3.38v-4.45l6.2-1.39v5.84h6.39v5h-6.39v10.6c0,1.99,0.97,2.64,2.09,2.64
		c1.48,0,2.78-0.83,2.96-0.97l1.76,4.59c-1.39,0.93-3.43,1.76-5.88,1.76C365.88,125.89,363.38,123.2,363.38,117.97z"/>
	<path class="st0" d="M378.5,95.79c0-2.04,1.67-3.7,3.66-3.7c2.04,0,3.7,1.67,3.7,3.7c0,1.99-1.67,3.66-3.7,3.66
		C380.17,99.45,378.5,97.78,378.5,95.79z M379.1,102.27h6.21v23.16h-6.21V102.27z"/>
	<path class="st0" d="M388.56,113.85c0-6.71,5.47-12.04,12.37-12.04c6.95,0,12.41,5.33,12.41,12.04c0,6.72-5.47,12.04-12.41,12.04
		C394.03,125.89,388.56,120.57,388.56,113.85z M407,113.85c0-3.61-2.6-6.3-6.07-6.3c-3.47,0-6.07,2.69-6.07,6.3
		c0,3.66,2.59,6.3,6.07,6.3C404.4,120.15,407,117.51,407,113.85z"/>
	<path class="st0" d="M416.75,102.27h6.07v3.1c1.86-2.55,4.49-3.57,7.32-3.57c6.11,0,8.24,3.94,8.24,10.28v13.34h-6.21v-12.55
		c0-3.38-0.88-5.19-4.03-5.19c-3.1,0-5.19,2.5-5.19,6.02v11.72h-6.21V102.27z"/>
	<path class="st0" d="M441.68,113.85c0-6.67,4.08-12.04,10.47-12.04c2.69,0,5.56,1.07,7.22,3.29v-2.82h6.07v23.16h-6.07v-2.78
		c-1.62,2.22-4.54,3.24-7.22,3.24C445.76,125.89,441.68,120.52,441.68,113.85z M459.24,113.85c0-3.61-2.32-6.3-5.51-6.3
		c-3.34,0-5.74,2.69-5.74,6.3c0,3.66,2.41,6.3,5.74,6.3C456.92,120.15,459.24,117.56,459.24,113.85z"/>
	<path class="st0" d="M469.92,94.96h6.21v30.47h-6.21V94.96z"/>
	<path class="st0" d="M265.25,113.85c0-6.67,5.19-12.04,12-12.04c6.3,0,11.25,5.37,11.25,11.95c0,1.11-0.14,2.22-0.14,2.22h-16.81
		c0.74,3.2,2.78,4.78,5.84,4.78c2.49,0,3.89-0.32,5.42-2.25l4.8,2.4c-2.34,3.56-6.39,4.96-10.16,4.96
		C270.69,125.87,265.25,121.49,265.25,113.85z M282.66,111.86c-0.46-2.92-2.78-4.86-5.6-4.86c-2.69,0-5,1.95-5.6,4.86H282.66z"/>
</g>
<g>
	<path class="st1" d="M257.15,32.25c-3.62,5.18-11.43,16.32-11.43,16.32s-7.72-11.24-11.43-16.41l-9.96-14.06h-11.82v63.3h13.67
		V41.33c0,0,2.45,4.1,5.67,8.69l13.87,19.73l13.77-19.63c3.32-4.79,5.77-8.79,5.77-8.79v40.05h13.67v-63.3h-11.82L257.15,32.25z"/>
	<path class="st1" d="M312.87,31.56c-14.36,0-25.3,11.33-25.3,25.4c0,16.12,11.48,25.35,25.74,25.35c7.94,0,16.48-2.96,21.43-10.47
		l-10.13-5.06c-3.24,4.08-6.2,4.75-11.44,4.75c-6.45,0-10.75-3.34-12.32-10.08h35.46c0,0,0.3-2.35,0.3-4.69
		C336.61,42.89,326.15,31.56,312.87,31.56z M300.66,52.76c1.27-6.15,6.16-10.26,11.82-10.26c5.96,0,10.84,4.1,11.82,10.26H300.66z"
		/>
	<path class="st1" d="M372.2,31.56c-5.96,0-11.52,2.15-15.44,7.52v-6.55h-12.79v48.84h13.09V56.67c0-7.42,4.39-12.7,10.94-12.7
		c6.64,0,8.5,3.81,8.5,10.94v26.47h13.09V53.25C389.59,39.87,385.1,31.56,372.2,31.56z"/>
	<path class="st1" d="M418.37,71.03c-2.35,0-4.4-1.37-4.4-5.57V43.09h13.48V32.54h-13.48V20.23l-13.08,2.93v9.38h-7.14v10.55h7.14
		v22.56c0,11.04,5.27,16.7,15.04,16.7c5.18,0,9.48-1.76,12.41-3.71l-3.71-9.67C424.23,69.27,421.49,71.03,418.37,71.03z"/>
	<path class="st1" d="M456.94,31.56c-14.55,0-26.08,11.23-26.08,25.4c0,14.17,11.53,25.4,26.08,25.4c14.65,0,26.18-11.23,26.18-25.4
		C483.13,42.8,471.6,31.56,456.94,31.56z M456.94,70.25c-7.33,0-12.79-5.57-12.79-13.29c0-7.62,5.47-13.28,12.79-13.28
		s12.8,5.67,12.8,13.28C469.74,64.68,464.27,70.25,456.94,70.25z"/>
	<path class="st1" d="M503.21,41.92v-9.38h-12.9v48.84h13.09V62.63c0-11.62,5.57-16.8,16.9-16.8V31.56
		C509.55,31.56,504.57,37.91,503.21,41.92z"/>
	<path class="st1" d="M558.44,55.89c-1.55-1.14-3.28-2.05-5.13-2.72c-1.81-0.66-3.66-1.2-5.5-1.62c-3.36-0.79-5.94-1.56-7.67-2.31
		c-1.57-0.68-2.34-1.82-2.34-3.48c0-1.66,0.69-2.82,2.1-3.54c1.54-0.76,3.23-1.15,5.07-1.15c2.1,0,4.08,0.5,5.85,1.49
		c1.79,0.99,3.21,2.17,4.25,3.51l0.33,0.44l8.22-7.27l0.37-0.32l-0.3-0.39c-1.99-2.54-4.71-4.45-8.08-5.67
		c-3.35-1.21-6.82-1.83-10.34-1.83c-2.44,0-4.84,0.31-7.13,0.91c-2.32,0.61-4.43,1.56-6.27,2.83c-1.87,1.28-3.39,2.93-4.51,4.93
		c-1.14,2-1.72,4.4-1.72,7.15c0,2.34,0.43,4.34,1.26,5.95c0.83,1.59,1.95,2.94,3.34,4.02s2.96,1.94,4.69,2.57
		c1.7,0.64,3.49,1.17,5.31,1.58c3.61,0.85,6.35,1.71,8.16,2.56c1.65,0.78,2.45,2.04,2.45,3.84c0,0.96-0.21,1.77-0.62,2.42
		c-0.43,0.66-0.98,1.18-1.67,1.57c-0.72,0.41-1.49,0.71-2.37,0.9c-0.86,0.19-1.7,0.29-2.53,0.29c-2.5,0-4.81-0.55-6.86-1.65
		c-2.07-1.1-3.75-2.49-5.03-4.16l-0.34-0.46l-8.32,7.8l-0.38,0.35l0.35,0.38c2.37,2.58,5.4,4.6,9,5.98
		c3.57,1.38,7.3,2.09,11.08,2.09c2.62,0,5.21-0.29,7.67-0.86c2.49-0.58,4.7-1.54,6.58-2.84c1.9-1.31,3.43-3.03,4.56-5.13
		c1.15-2.11,1.73-4.7,1.73-7.7c0-2.4-0.49-4.49-1.48-6.22C561.27,58.45,559.99,57.02,558.44,55.89z"/>
</g>
<path class="st1" d="M93.72,90.33c-2.65,2.46-6.2,3.97-10.1,3.97c-3.9,0-7.45-1.5-10.1-3.96L41.74,61.71
	c0,0.06-0.02,54.03-0.02,54.03c0,8.19-6.64,14.83-14.83,14.83s-14.83-6.64-14.83-14.83c0-0.09-0.04-87.44-0.04-87.44
	c0-8.22,6.66-14.88,14.88-14.88c3.91,0,7.48,1.51,10.13,3.98c0,0,46.6,42.04,46.61,42.05l33.99-30.65c0,0.01,0,0.02,0,0.03
	c0,0.11,0.01,0.21,0.01,0.31c0,0.02,0,0.05,0,0.07c0,0.03,0,0.06,0,0.09c0,0.04,0,0.07,0,0.11c0,0.04,0,0.07,0.01,0.11
	c0,0.03,0,0.06,0,0.09c0,0.02,0,0.03,0,0.05c0,0.02,0,0.05,0,0.07c0,0.03,0,0.06,0.01,0.09c0,0.03,0,0.07,0.01,0.1c0,0,0,0,0,0.01
	c0,0.03,0,0.07,0.01,0.1c0,0.03,0,0.06,0.01,0.09c0,0.02,0,0.04,0.01,0.07c0,0.02,0,0.04,0.01,0.07c0,0.03,0.01,0.06,0.01,0.09
	c0,0.03,0.01,0.06,0.01,0.1c0,0,0,0,0,0.01c0,0.03,0.01,0.06,0.01,0.09c0,0.03,0.01,0.06,0.01,0.1c0,0.02,0.01,0.05,0.01,0.07
	c0,0.02,0,0.04,0.01,0.06c0,0.03,0.01,0.06,0.01,0.1c0,0.03,0.01,0.06,0.01,0.09c0,0.03,0.01,0.06,0.01,0.08
	c0,0.03,0.01,0.07,0.01,0.1c0,0.03,0.01,0.05,0.01,0.08c0,0.02,0,0.04,0.01,0.05c0,0.03,0.01,0.06,0.01,0.1
	c0,0.03,0.01,0.06,0.01,0.09c0,0.03,0.01,0.05,0.01,0.08c0.01,0.04,0.01,0.07,0.02,0.11c0,0.03,0.01,0.06,0.01,0.09
	c0,0.02,0.01,0.03,0.01,0.05c0,0.03,0.01,0.06,0.01,0.09c0,0.03,0.01,0.06,0.01,0.09c0,0.02,0.01,0.05,0.01,0.07
	c0.01,0.04,0.01,0.07,0.02,0.11c0.01,0.03,0.01,0.06,0.02,0.09c0,0.02,0.01,0.03,0.01,0.05c0.01,0.03,0.01,0.06,0.02,0.09
	c0.01,0.03,0.01,0.06,0.02,0.08c0,0.02,0.01,0.04,0.01,0.07c0.01,0.04,0.02,0.08,0.02,0.12c0.01,0.03,0.01,0.06,0.02,0.1
	c0,0.02,0.01,0.03,0.01,0.05c0.01,0.03,0.01,0.06,0.02,0.09c0.01,0.03,0.01,0.05,0.02,0.08c0,0,0,0,0,0c0,0.02,0.01,0.04,0.01,0.06
	c0.01,0.04,0.02,0.08,0.03,0.12c0,0.01,0.01,0.03,0.01,0.04c0.03,0.13,0.06,0.27,0.09,0.4c0,0.02,0.01,0.04,0.01,0.06
	c0.02,0.1,0.05,0.19,0.07,0.29c0.01,0.05,0.03,0.09,0.04,0.14c0.02,0.08,0.04,0.16,0.07,0.24c0,0.01,0.01,0.02,0.01,0.04
	c0.01,0.05,0.03,0.1,0.04,0.14c0.01,0.04,0.02,0.09,0.04,0.13c0.02,0.06,0.04,0.12,0.05,0.18c0.02,0.08,0.05,0.17,0.08,0.25
	c0.01,0.04,0.02,0.07,0.03,0.11c0.02,0.05,0.03,0.1,0.05,0.16c0.02,0.07,0.04,0.13,0.07,0.2c0.03,0.08,0.05,0.16,0.08,0.24
	c0.01,0.02,0.02,0.05,0.02,0.07c0,0.01,0.01,0.03,0.01,0.04c0.03,0.09,0.07,0.18,0.1,0.27c0.01,0.02,0.02,0.05,0.02,0.07
	c0.03,0.09,0.07,0.18,0.1,0.27c0,0,0,0,0,0.01c0.01,0.03,0.02,0.06,0.03,0.09c0.04,0.09,0.07,0.18,0.11,0.28
	c0.01,0.01,0.01,0.02,0.02,0.04c0.04,0.09,0.08,0.19,0.12,0.28c0.02,0.05,0.04,0.1,0.07,0.16c0.03,0.08,0.07,0.16,0.1,0.23
	c0.04,0.09,0.09,0.19,0.13,0.28c0.02,0.04,0.04,0.09,0.06,0.13c0.03,0.07,0.07,0.14,0.1,0.21c0.01,0.02,0.02,0.05,0.04,0.07
	c0.03,0.07,0.07,0.13,0.1,0.2c0.03,0.06,0.06,0.11,0.08,0.17c0.04,0.08,0.08,0.16,0.13,0.24c0.01,0.01,0.01,0.03,0.02,0.04
	c0.04,0.07,0.07,0.14,0.11,0.21c0.03,0.06,0.07,0.12,0.1,0.18c0.05,0.09,0.1,0.18,0.15,0.26c0.04,0.08,0.09,0.15,0.13,0.23
	c0.01,0.02,0.02,0.04,0.03,0.06c0.02,0.04,0.04,0.07,0.06,0.11c0.05,0.09,0.11,0.17,0.16,0.26c0.04,0.07,0.08,0.13,0.12,0.2
	c0.01,0.01,0.01,0.02,0.02,0.03c0.02,0.04,0.05,0.08,0.07,0.12c0.01,0.01,0.01,0.02,0.02,0.03c0,0,0,0,0,0
	c0.06,0.09,0.11,0.17,0.17,0.26c0.03,0.04,0.06,0.09,0.09,0.13c0.01,0.02,0.02,0.03,0.03,0.05c0,0,0,0.01,0.01,0.01
	c0.03,0.04,0.05,0.08,0.08,0.12c0,0,0,0,0,0.01c0.01,0.02,0.03,0.04,0.04,0.06c0,0,0,0,0,0.01c0.06,0.08,0.12,0.17,0.18,0.25
	c0.01,0.02,0.02,0.03,0.03,0.05c0.02,0.03,0.05,0.06,0.07,0.1c0.03,0.04,0.05,0.07,0.08,0.11c0.01,0.01,0.01,0.02,0.02,0.03
	c0.01,0.02,0.03,0.04,0.04,0.06c0.01,0.01,0.01,0.01,0.02,0.02c0.07,0.09,0.14,0.18,0.2,0.27c0.03,0.03,0.05,0.07,0.08,0.1
	c0.02,0.03,0.04,0.06,0.07,0.09c0.01,0.02,0.02,0.03,0.04,0.05c0.1,0.13,0.2,0.25,0.31,0.38c0.02,0.02,0.04,0.05,0.06,0.07
	c0.02,0.02,0.04,0.05,0.06,0.07c0,0,0.01,0.01,0.01,0.01c0.01,0.01,0.02,0.02,0.03,0.03c0.01,0.01,0.02,0.02,0.03,0.04
	c0.13,0.16,0.27,0.31,0.4,0.46c0.02,0.02,0.04,0.04,0.05,0.06c0.02,0.03,0.05,0.06,0.08,0.08c0.15,0.16,0.3,0.33,0.46,0.49
	c0.02,0.02,0.04,0.04,0.06,0.06c0.04,0.04,0.07,0.08,0.11,0.11c0.01,0.01,0.03,0.03,0.04,0.04c0.11,0.11,0.22,0.23,0.34,0.34
	c0,0,0,0,0,0c0.01,0.01,0.02,0.01,0.02,0.02c0.03,0.03,0.07,0.07,0.1,0.1c0.01,0.01,0.02,0.02,0.03,0.03
	c0.01,0.01,0.01,0.01,0.02,0.02c0,0,0.01,0.01,0.01,0.01c0.1,0.09,0.19,0.18,0.29,0.27c0.02,0.02,0.04,0.03,0.06,0.05
	c0.03,0.03,0.07,0.06,0.1,0.09c0.01,0.01,0.03,0.02,0.04,0.04c0.02,0.01,0.03,0.03,0.05,0.04c0.01,0.01,0.03,0.02,0.04,0.04
	c0,0,0.01,0,0.01,0.01c0.09,0.08,0.18,0.16,0.28,0.24c0.04,0.03,0.07,0.06,0.11,0.09c0.02,0.02,0.04,0.03,0.05,0.05
	c0.02,0.02,0.05,0.04,0.07,0.06c0.03,0.02,0.05,0.04,0.08,0.06c0.09,0.07,0.18,0.15,0.27,0.22c0.02,0.02,0.04,0.03,0.06,0.05
	c0.02,0.02,0.05,0.04,0.07,0.05c0.03,0.03,0.06,0.05,0.1,0.07c0.03,0.02,0.06,0.05,0.09,0.07c0.01,0.01,0.01,0.01,0.02,0.02
	c0.09,0.07,0.19,0.14,0.28,0.21c0.03,0.02,0.05,0.04,0.08,0.06c0.04,0.03,0.08,0.06,0.12,0.09c0.03,0.02,0.06,0.04,0.09,0.07
	c0.02,0.01,0.03,0.02,0.05,0.03c0.1,0.07,0.2,0.14,0.3,0.21c0.01,0,0.01,0.01,0.02,0.01c0.05,0.03,0.09,0.06,0.14,0.1
	c0.04,0.03,0.08,0.05,0.12,0.08c0.02,0.01,0.04,0.02,0.05,0.04c0.1,0.07,0.21,0.14,0.31,0.2c0.04,0.03,0.09,0.06,0.13,0.08
	c0.05,0.03,0.09,0.06,0.14,0.09c0.03,0.02,0.07,0.04,0.1,0.07c0.06,0.04,0.13,0.08,0.2,0.12c0.06,0.04,0.12,0.07,0.18,0.11
	c0.05,0.03,0.1,0.06,0.15,0.09c0.03,0.02,0.06,0.03,0.09,0.05c0.06,0.04,0.13,0.07,0.19,0.11c0.07,0.04,0.14,0.08,0.21,0.12
	c0.06,0.03,0.11,0.06,0.17,0.09c0.02,0.01,0.05,0.02,0.07,0.04c0.06,0.03,0.12,0.06,0.18,0.1c0.08,0.04,0.15,0.08,0.23,0.12
	c0.06,0.03,0.11,0.06,0.17,0.09c0.02,0.01,0.04,0.02,0.06,0.03c0.06,0.03,0.11,0.06,0.17,0.08c0.08,0.04,0.17,0.08,0.25,0.12
	c0.06,0.03,0.12,0.06,0.18,0.08c0.02,0.01,0.03,0.02,0.05,0.02c0.05,0.02,0.11,0.05,0.16,0.07c0.09,0.04,0.18,0.08,0.28,0.12
	c0.06,0.03,0.12,0.05,0.19,0.08c0.02,0.01,0.04,0.02,0.06,0.02c0.05,0.02,0.09,0.04,0.14,0.06c0.1,0.04,0.2,0.08,0.3,0.12
	c0.07,0.03,0.13,0.05,0.2,0.08c0.02,0.01,0.04,0.02,0.07,0.03c0.03,0.01,0.07,0.03,0.1,0.04c0.11,0.04,0.21,0.08,0.32,0.12
	c0.07,0.03,0.14,0.05,0.21,0.07c0.07,0.02,0.14,0.05,0.2,0.07c0,0,0.01,0,0.01,0c0,0,0,0,0.01,0c0.01,0,0.03,0.01,0.04,0.01
	c0.01,0,0.03,0.01,0.04,0.01c0.02,0.01,0.04,0.01,0.05,0.02c0.04,0.01,0.08,0.03,0.12,0.04c0.01,0,0.02,0.01,0.03,0.01
	c0.02,0.01,0.05,0.02,0.07,0.02c0.03,0.01,0.06,0.02,0.09,0.03c0.01,0,0.01,0,0.02,0.01c0.01,0,0.01,0,0.02,0.01
	c0.02,0.01,0.03,0.01,0.05,0.02c0.02,0.01,0.04,0.01,0.06,0.02c0.04,0.01,0.08,0.03,0.13,0.04c0.01,0,0.02,0.01,0.04,0.01
	c0,0,0,0,0.01,0c0.03,0.01,0.05,0.02,0.08,0.02c0.03,0.01,0.06,0.02,0.09,0.03c0.02,0.01,0.04,0.01,0.07,0.02c0,0,0,0,0,0
	c0,0,0,0,0.01,0c0.02,0.01,0.04,0.01,0.06,0.02c0.05,0.01,0.09,0.02,0.14,0.04c0.01,0,0.02,0,0.03,0.01c0.01,0,0.01,0,0.02,0
	c0.03,0.01,0.05,0.01,0.08,0.02c0.03,0.01,0.06,0.02,0.09,0.02c0.02,0.01,0.04,0.01,0.07,0.02c0,0,0,0,0.01,0
	c0.02,0.01,0.04,0.01,0.06,0.02c0.05,0.01,0.1,0.03,0.15,0.04c0,0,0,0,0,0c0.01,0,0.02,0,0.03,0.01c0.03,0.01,0.05,0.01,0.08,0.02
	c0.03,0.01,0.06,0.01,0.09,0.02c0.02,0.01,0.05,0.01,0.07,0.02c0,0,0,0,0,0c0.02,0,0.04,0.01,0.06,0.01
	c0.05,0.01,0.11,0.02,0.16,0.04c0.01,0,0.02,0.01,0.04,0.01c0.03,0.01,0.05,0.01,0.08,0.02c0.03,0.01,0.06,0.01,0.09,0.02
	c0.02,0,0.04,0.01,0.06,0.01c0,0,0.01,0,0.01,0c0.01,0,0.03,0.01,0.04,0.01c0.05,0.01,0.11,0.02,0.16,0.03c0.01,0,0.01,0,0.02,0
	c0.01,0,0.02,0,0.03,0.01c0.03,0.01,0.06,0.01,0.08,0.02c0.03,0.01,0.06,0.01,0.09,0.02c0.02,0,0.04,0.01,0.06,0.01
	c0.01,0,0.01,0,0.02,0c0.01,0,0.02,0,0.03,0.01c0.05,0.01,0.11,0.02,0.16,0.03c0,0,0,0,0,0c0.02,0,0.03,0.01,0.05,0.01
	c0.03,0,0.06,0.01,0.09,0.01c0.03,0.01,0.06,0.01,0.09,0.02c0.02,0,0.04,0.01,0.06,0.01c0.01,0,0.03,0,0.04,0.01
	c0.05,0.01,0.11,0.02,0.16,0.03c0,0,0.01,0,0.01,0c0.02,0,0.03,0,0.05,0.01c0.03,0,0.06,0.01,0.08,0.01c0.03,0,0.06,0.01,0.1,0.01
	c0.02,0,0.04,0.01,0.07,0.01c0.01,0,0.02,0,0.03,0c0.08,0.01,0.16,0.02,0.24,0.03c0.01,0,0.02,0,0.02,0L93.72,90.33z"/>
<g>
	<path class="st0" d="M155.26,115.68c0,8.23-6.67,14.9-14.9,14.9c-8.23,0-14.9-6.67-14.9-14.9l0.02-32.22
		c0-8.22,6.66-14.88,14.88-14.88c8.22,0,14.88,6.66,14.88,14.88L155.26,115.68z"/>
	<circle class="st0" cx="140.36" cy="28.3" r="14.86"/>
</g>
</svg>
