<?xml version="1.0" standalone="no"?>
<!DOCTYPE svg PUBLIC "-//W3C//DTD SVG 20010904//EN"
 "http://www.w3.org/TR/2001/REC-SVG-20010904/DTD/svg10.dtd">
<svg version="1.0" xmlns="http://www.w3.org/2000/svg"
 width="2111.000000pt" height="2215.000000pt" viewBox="0 0 2111.000000 2215.000000"
 preserveAspectRatio="xMidYMid meet">

<g transform="translate(0.000000,2215.000000) scale(0.100000,-0.100000)"
fill="#fff" stroke="none">
<path d="M1350 18352 l0 -1838 32 -24 c55 -41 259 -243 305 -303 61 -79 126
-204 162 -314 69 -204 95 -415 111 -884 16 -449 8 -8095 -8 -8269 -38 -416
-76 -596 -162 -775 -75 -156 -227 -341 -380 -461 l-60 -47 0 -1838 0 -1839
2880 0 2880 0 0 1839 0 1839 -97 72 c-149 111 -289 257 -340 355 -100 193
-153 440 -184 855 -8 108 -13 803 -16 2298 l-4 2142 50 0 c30 0 51 -4 51 -11
0 -23 93 -625 135 -875 89 -525 193 -1043 337 -1674 57 -254 103 -440 292
-1180 47 -184 380 -1529 741 -2989 361 -1460 658 -2658 661 -2663 5 -7 2484
-12 2484 -4 0 15 1147 4737 1205 4961 210 808 340 1455 490 2432 123 807 306
1937 321 1986 5 15 15 17 52 15 l47 -3 0 -2030 c-1 -2076 -4 -2292 -40 -2625
-38 -346 -95 -551 -194 -702 -48 -75 -207 -240 -300 -313 l-50 -40 -1 -1842 0
-1843 3430 0 3430 0 0 1839 0 1839 -72 58 c-168 136 -312 311 -393 479 -96
196 -142 450 -165 905 -6 120 -10 1336 -10 3173 l0 2977 -1005 0 -1005 0 0
-1120 0 -1120 -1155 0 -1155 0 0 1120 0 1120 -1070 0 -1070 0 0 1155 0 1155
1070 0 1070 0 0 1180 0 1180 1155 0 1155 0 0 -1180 0 -1180 1019 0 c1122 0
1031 -5 1031 60 0 66 52 330 85 427 82 244 245 472 458 641 l57 45 0 1838 0
1839 -3839 0 -3838 0 -6 -27 c-13 -63 -1379 -6141 -1388 -6176 l-10 -38 -62 3
-61 3 -578 3115 c-317 1713 -577 3116 -578 3118 0 1 -1777 2 -3950 2 l-3950 0
0 -1838z m12400 -14611 c0 -13 69 -479 76 -514 3 -16 7 -27 9 -25 2 2 25 118
50 258 25 140 48 263 51 273 5 16 27 17 280 17 l274 0 0 -154 c0 -143 -2 -158
-22 -193 -23 -38 -23 -40 -23 -468 0 -429 0 -430 23 -466 20 -34 22 -48 22
-193 l0 -156 -245 0 -245 0 0 167 c0 144 2 169 18 186 15 17 17 47 20 251 2
127 1 228 -2 225 -3 -3 -15 -70 -25 -150 -11 -79 -43 -264 -71 -411 l-52 -268
-89 0 c-49 0 -89 1 -89 3 0 2 -27 138 -60 302 -34 165 -69 352 -80 415 l-19
115 2 -231 c2 -205 4 -234 20 -251 15 -17 17 -42 17 -186 l0 -167 -205 0 -205
0 0 160 c0 151 1 163 23 191 l22 31 0 431 c0 431 0 432 -22 468 -21 34 -23 48
-23 193 l0 156 285 0 c166 0 285 -4 285 -9z m3610 -241 l0 -180 50 0 50 0 0
-150 0 -150 -50 0 -50 0 0 -257 c0 -287 2 -297 63 -326 l38 -19 -3 -146 -3
-146 -45 -14 c-25 -8 -90 -15 -145 -16 -121 -1 -177 17 -229 74 -64 71 -69
102 -74 498 -3 294 -6 352 -18 352 -11 0 -14 27 -14 150 0 125 2 150 15 150
11 0 15 21 17 107 l3 108 190 71 c105 40 193 72 198 73 4 1 7 -80 7 -179z
m-2048 -171 c55 -12 128 -46 164 -76 74 -63 91 -134 100 -405 l7 -218 -262 0
-261 0 1 -77 c0 -124 29 -174 86 -152 15 5 24 19 27 43 4 20 8 52 11 71 l6 35
194 0 195 0 0 -150 0 -150 -42 -31 c-58 -42 -101 -63 -184 -91 -62 -21 -87
-23 -244 -23 -157 1 -181 3 -231 23 -126 50 -181 136 -200 313 -14 126 -6 602
11 672 25 103 114 184 234 213 65 16 318 18 388 3z m1245 -14 c53 -22 97 -68
125 -129 22 -49 23 -63 28 -376 4 -284 7 -329 23 -357 14 -26 17 -58 17 -183
l0 -150 -204 0 c-202 0 -204 0 -211 23 -4 12 -10 189 -14 392 -4 277 -9 376
-19 393 -16 28 -58 45 -90 37 l-25 -6 5 -237 c4 -195 8 -243 21 -269 14 -26
17 -61 17 -183 l0 -150 -235 0 -235 0 0 145 c0 126 3 150 20 182 18 35 20 57
20 273 0 216 -2 238 -20 273 -17 32 -20 56 -20 182 l0 145 210 0 210 0 0 -31
c0 -17 3 -29 8 -27 4 2 32 15 63 31 30 15 75 32 99 37 59 12 159 5 207 -15z
m1750 1 c110 -35 183 -124 202 -246 14 -84 14 -616 1 -699 -22 -132 -79 -200
-205 -246 -75 -27 -338 -33 -439 -11 -132 30 -210 101 -241 221 -19 74 -22
671 -4 757 28 129 98 200 234 234 74 19 383 13 452 -10z m1033 -211 l0 -235
-42 0 c-57 0 -108 -27 -133 -70 -18 -31 -20 -52 -20 -180 0 -122 3 -150 18
-173 14 -22 17 -50 17 -177 l0 -150 -235 0 -236 0 4 158 c2 121 7 167 21 202
15 39 17 73 14 265 -3 190 -5 225 -20 248 -15 22 -18 50 -18 177 l0 150 204 0
205 0 3 -47 3 -48 22 37 c31 53 76 78 141 78 l52 0 0 -235z"/>
<path d="M15097 3038 c-22 -17 -37 -61 -37 -109 l0 -39 66 0 66 0 -4 61 c-4
49 -9 66 -27 80 -27 22 -41 24 -64 7z"/>
<path d="M18033 3022 c-27 -17 -33 -70 -33 -302 0 -280 6 -309 67 -310 49 0
53 24 53 310 0 224 -2 269 -16 288 -15 22 -48 29 -71 14z"/>
</g>
</svg>
